<?xml version="1.0" encoding="UTF-8"?>
<!-- Generator: visioncortex VTracer 0.6.3 -->
<svg version="1.1" xmlns="http://www.w3.org/2000/svg" width="1280" height="344">
<path d="M0 0 C26.02 -0.05 52.05 -0.08 78.07 -0.1 C90.16 -0.11 102.24 -0.13 114.32 -0.15 C124.85 -0.17 135.38 -0.18 145.91 -0.19 C151.49 -0.19 157.07 -0.2 162.64 -0.21 C167.89 -0.22 173.13 -0.23 178.38 -0.23 C180.31 -0.23 182.24 -0.23 184.17 -0.24 C186.79 -0.25 189.42 -0.25 192.05 -0.24 C193.2 -0.25 193.2 -0.25 194.38 -0.26 C198.14 -0.24 199.79 -0.14 203 2 C203.36 4.52 203.36 4.52 203.34 7.73 C203.34 8.94 203.34 10.14 203.34 11.37 C203.32 12.68 203.31 13.98 203.29 15.32 C203.29 16.66 203.28 18.01 203.28 19.35 C203.27 22.88 203.24 26.42 203.21 29.95 C203.18 33.56 203.16 37.16 203.15 40.77 C203.11 47.85 203.06 54.92 203 62 C202.02 61.99 202.02 61.99 201.01 61.98 C198.05 61.96 195.09 61.95 192.12 61.94 C191.09 61.93 190.06 61.92 189 61.91 C188.01 61.91 187.02 61.91 186.01 61.9 C184.64 61.89 184.64 61.89 183.25 61.89 C180.96 61.85 180.96 61.85 179 63 C177.81 59.27 177.89 55.73 177.9 51.83 C177.9 50.8 177.9 50.8 177.91 49.76 C177.91 47.59 177.92 45.42 177.94 43.25 C177.94 41.77 177.95 40.3 177.95 38.82 C177.96 35.22 177.98 31.61 178 28 C178.66 28 179.32 28 180 28 C179.67 27.34 179.34 26.68 179 26 C128.51 26 78.02 26 26 26 C26 111.8 26 197.6 26 286 C76.49 286 126.98 286 179 286 C179 283.69 179 281.38 179 279 C178.67 279 178.34 279 178 279 C178 269.1 178 259.2 178 249 C182.66 247.84 186.85 247.82 191.62 247.81 C192.5 247.8 193.37 247.79 194.27 247.78 C195.1 247.77 195.93 247.77 196.79 247.77 C197.55 247.77 198.31 247.76 199.09 247.76 C201 248 201 248 203 250 C203 269.8 203 289.6 203 310 C136.34 310 69.68 310 1 310 C0.67 308.35 0.34 306.7 0 305 C0.33 305 0.66 305 1 305 C1 209.3 1 113.6 1 15 C0.67 15 0.34 15 0 15 C0 10.05 0 5.1 0 0 Z " fill="#020204" transform="translate(11,22)"/>
<path d="M0 0 C1.98 0 3.96 0 6 0 C6 0.66 6 1.32 6 2 C6.64 1.77 7.28 1.55 7.94 1.31 C13.88 0.71 19.19 3.24 24.06 6.5 C25.52 7.74 25.52 7.74 27 9 C27 9.99 27 10.98 27 12 C27.99 12.5 27.99 12.5 29 13 C29.99 14.48 29.99 14.48 31 16 C31.99 17.34 32.99 18.67 34 20 C36.98 16.91 36.98 16.91 38 13 C38.62 12.92 39.24 12.84 39.88 12.75 C42.18 12.21 42.18 12.21 43.06 10 C43.53 9.01 43.53 9.01 44 8 C44.99 7.67 45.98 7.34 47 7 C47.33 6.34 47.66 5.68 48 5 C49.32 4.63 50.66 4.31 52 4 C53.34 3.35 54.68 2.68 56 2 C64.46 -0.82 75.5 0.19 83.59 3.68 C89.51 6.93 93.74 10.25 95.88 16.81 C96.06 17.56 96.24 18.31 96.43 19.08 C96.9 21.22 96.9 21.22 99 23 C100.32 29.63 100.19 36.64 100.32 43.38 C100.34 44.32 100.36 45.26 100.38 46.23 C100.44 49.2 100.5 52.16 100.56 55.12 C100.61 57.15 100.65 59.18 100.69 61.2 C100.8 66.14 100.9 71.07 101 76 C103.64 76.33 106.28 76.66 109 77 C108.67 87.23 108.34 97.46 108 108 C103.91 107.99 99.82 107.98 95.6 107.96 C92.34 107.96 89.09 107.95 85.83 107.95 C82.39 107.94 78.95 107.94 75.5 107.92 C71.56 107.91 67.61 107.91 63.66 107.9 C61.81 107.89 61.81 107.89 59.92 107.89 C58.78 107.89 57.64 107.89 56.46 107.89 C55.45 107.88 54.44 107.88 53.4 107.88 C50.99 107.84 50.99 107.84 49 109 C48.18 106.11 47.87 103.55 47.87 100.55 C47.87 99.7 47.86 98.85 47.86 97.98 C47.87 97.1 47.87 96.22 47.88 95.31 C47.87 94.45 47.87 93.59 47.86 92.71 C47.87 87.06 48.29 81.6 49 76 C52.47 75.5 52.47 75.5 56 75 C56.33 64.44 56.66 53.88 57 43 C56.34 42.67 55.68 42.34 55 42 C53.94 40.06 53.94 40.06 53 38 C52.67 37.34 52.34 36.68 52 36 C48.7 36 45.4 36 42 36 C41.5 36.99 41.5 36.99 41 38 C40.01 38 39.02 38 38 38 C36.17 42.69 35.76 46.57 35.8 51.59 C35.81 52.64 35.81 52.64 35.81 53.71 C35.82 55.93 35.85 58.15 35.88 60.38 C35.89 61.89 35.89 63.4 35.9 64.92 C35.92 68.61 35.96 72.31 36 76 C38.64 76.33 41.28 76.66 44 77 C43.67 77.66 43.34 78.32 43 79 C42.91 81.18 42.89 83.36 42.9 85.54 C42.91 86.84 42.91 88.14 42.91 89.48 C42.92 90.86 42.93 92.24 42.94 93.62 C42.94 95.01 42.95 96.4 42.95 97.79 C42.96 101.19 42.98 104.6 43 108 C42.29 108 41.58 108 40.85 107.99 C34.17 107.97 27.49 107.96 20.81 107.95 C17.37 107.94 13.94 107.94 10.5 107.92 C6.56 107.91 2.61 107.91 -1.34 107.9 C-2.57 107.9 -3.81 107.89 -5.08 107.89 C-6.22 107.89 -7.36 107.89 -8.54 107.89 C-9.55 107.88 -10.56 107.88 -11.6 107.88 C-14.01 107.84 -14.01 107.84 -16 109 C-17.05 105.55 -17.13 102.37 -17.13 98.77 C-17.13 97.58 -17.14 96.38 -17.14 95.15 C-17.13 93.9 -17.13 92.66 -17.12 91.38 C-17.13 90.12 -17.13 88.87 -17.14 87.58 C-17.14 86.38 -17.13 85.19 -17.13 83.96 C-17.13 82.87 -17.13 81.77 -17.13 80.64 C-17 78 -17 78 -16 76 C-9.25 75.88 -9.25 75.88 -7 77 C-7.16 76.15 -7.32 75.29 -7.48 74.41 C-7.99 71.04 -8.19 67.8 -8.28 64.39 C-8.34 62.55 -8.34 62.55 -8.39 60.67 C-8.47 58.09 -8.54 55.5 -8.61 52.92 C-8.66 51.08 -8.66 51.08 -8.72 49.21 C-8.75 48.09 -8.78 46.97 -8.81 45.82 C-8.89 42.92 -8.89 42.92 -10 40 C-10 39.34 -10 38.68 -10 38 C-13.83 35.61 -17.6 35.44 -22 35 C-22.5 35.99 -22.5 35.99 -23 37 C-25.06 37.62 -25.06 37.62 -27 38 C-28.7 43.12 -29.2 47.22 -28.98 52.68 C-28.95 53.38 -28.93 54.08 -28.9 54.81 C-28.82 57.02 -28.72 59.23 -28.62 61.44 C-28.57 62.95 -28.51 64.46 -28.45 65.97 C-28.31 69.65 -28.16 73.32 -28 77 C-27.4 76.79 -26.8 76.59 -26.19 76.38 C-24 76 -24 76 -21 78 C-20.75 80.98 -20.75 80.98 -20.93 84.76 C-20.97 85.97 -21.02 87.18 -21.07 88.43 C-21.15 89.98 -21.23 91.53 -21.31 93.12 C-21.54 98.03 -21.77 102.94 -22 108 C-41.47 108 -60.94 108 -81 108 C-82.13 96.73 -82.13 96.73 -82.13 92.46 C-82.13 91.55 -82.14 90.64 -82.14 89.71 C-82.13 88.34 -82.13 88.34 -82.12 86.94 C-82.13 85.99 -82.13 85.04 -82.14 84.06 C-82.14 83.17 -82.13 82.27 -82.13 81.34 C-82.13 80.53 -82.13 79.72 -82.13 78.88 C-82 77 -82 77 -81 76 C-78.67 75.96 -76.33 75.96 -74 76 C-72.73 72.2 -72.77 68.58 -72.68 64.61 C-72.66 63.8 -72.64 62.98 -72.62 62.14 C-72.56 59.53 -72.5 56.92 -72.44 54.31 C-72.39 52.54 -72.35 50.77 -72.31 49.01 C-72.2 44.67 -72.1 40.34 -72 36 C-72.64 35.95 -73.28 35.9 -73.93 35.85 C-74.76 35.78 -75.59 35.7 -76.44 35.62 C-77.26 35.56 -78.08 35.49 -78.93 35.41 C-79.62 35.28 -80.3 35.14 -81 35 C-82.43 32.14 -82.13 29.69 -82.13 26.5 C-82.13 25.2 -82.14 23.9 -82.14 22.56 C-82.13 21.89 -82.13 21.21 -82.13 20.51 C-82.13 18.44 -82.13 16.37 -82.14 14.3 C-82.14 13 -82.13 11.71 -82.13 10.37 C-82.13 9.17 -82.13 7.98 -82.13 6.74 C-82 4 -82 4 -81 3 C-79.45 2.9 -77.9 2.87 -76.34 2.87 C-74.86 2.87 -74.86 2.87 -73.34 2.86 C-72.26 2.86 -71.18 2.87 -70.07 2.87 C-68.97 2.87 -67.87 2.87 -66.73 2.86 C-64.4 2.86 -62.06 2.87 -59.73 2.87 C-56.15 2.87 -52.57 2.87 -48.99 2.86 C-46.72 2.86 -44.46 2.87 -42.2 2.87 C-40.58 2.86 -40.58 2.86 -38.94 2.86 C-37.44 2.87 -37.44 2.87 -35.91 2.87 C-35.04 2.87 -34.16 2.87 -33.25 2.87 C-31 3 -31 3 -28 4 C-28 7.3 -28 10.6 -28 14 C-23.67 14 -22.09 11.88 -19 9 C-18.67 8.01 -18.34 7.02 -18 6 C-11.85 2.92 -6.87 1.45 0 1 C0 0.67 0 0.34 0 0 Z M-31 5 C-30.67 7.64 -30.34 10.28 -30 13 C-29.67 13 -29.34 13 -29 13 C-29 10.36 -29 7.72 -29 5 C-29.66 5 -30.32 5 -31 5 Z M-31 70 C-30 72 -30 72 -30 72 Z M-31 73 C-30 75 -30 75 -30 75 Z M-81 77 C-80 79 -80 79 -80 79 Z M49 91 C49 93.97 49 96.94 49 100 C49.33 100 49.66 100 50 100 C50 97.03 50 94.06 50 91 C49.67 91 49.34 91 49 91 Z " fill="#040406" transform="translate(795,103)"/>
<path d="M0 0 C3.27 1.7 5.67 3.57 8.27 6.18 C8.27 6.84 8.27 7.5 8.27 8.18 C9.26 8.67 9.26 8.67 10.27 9.18 C10.56 10 10.85 10.83 11.15 11.68 C12 14.36 12 14.36 14.4 14.99 C15.02 15.05 15.64 15.12 16.27 15.18 C16.36 14.6 16.44 14.02 16.52 13.43 C17.51 10.48 18.9 9.15 21.27 7.18 C22.6 6.84 23.94 6.5 25.27 6.18 C25.6 5.19 25.93 4.2 26.27 3.18 C27.26 2.85 28.25 2.52 29.27 2.18 C31.79 1 33.94 -0.27 36.27 -1.82 C43.81 -4.54 55.45 -3.97 62.9 -1.2 C68.18 1.36 73.08 4.41 75.46 9.93 C75.86 11.54 75.86 11.54 76.27 13.18 C77.28 15.54 78.32 17.89 79.37 20.23 C82.5 30.48 81.59 42.17 81.84 52.8 C81.88 54.59 81.92 56.38 81.97 58.16 C82.07 62.5 82.17 66.84 82.27 71.18 C84.58 71.84 86.89 72.5 89.27 73.18 C89.27 83.41 89.27 93.64 89.27 104.18 C85.18 104.17 81.09 104.16 76.88 104.14 C73.62 104.14 70.36 104.13 67.1 104.13 C63.66 104.12 60.22 104.12 56.78 104.1 C52.83 104.09 48.88 104.09 44.94 104.08 C43.08 104.07 43.08 104.07 41.19 104.07 C40.05 104.07 38.91 104.07 37.73 104.07 C36.72 104.06 35.72 104.06 34.68 104.06 C32.26 104.02 32.26 104.02 30.27 105.18 C30.27 103.53 30.27 101.88 30.27 100.18 C29.61 99.85 28.95 99.52 28.27 99.18 C28.41 95.43 28.56 91.68 28.71 87.93 C28.75 86.87 28.79 85.8 28.83 84.71 C28.87 83.68 28.91 82.66 28.96 81.6 C29.01 80.19 29.01 80.19 29.07 78.75 C29.25 76.44 29.63 74.4 30.27 72.18 C33.74 71.68 33.74 71.68 37.27 71.18 C37.11 70.66 36.94 70.15 36.77 69.62 C36.12 66.41 36.22 63.42 36.28 60.15 C36.3 58.77 36.32 57.39 36.33 56 C36.36 53.84 36.4 51.67 36.44 49.51 C36.49 47.41 36.51 45.31 36.53 43.21 C36.55 41.96 36.58 40.71 36.6 39.42 C36.25 35.96 35.72 34.59 33.27 32.18 C28.72 31.17 23.23 31.66 19.27 34.18 C17.06 38.34 17.01 42.28 17.08 46.89 C17.08 47.97 17.08 47.97 17.09 49.08 C17.1 51.39 17.12 53.69 17.15 55.99 C17.16 57.56 17.17 59.13 17.18 60.69 C17.2 64.52 17.23 68.35 17.27 72.18 C19.91 72.51 22.55 72.84 25.27 73.18 C24.94 73.84 24.61 74.5 24.27 75.18 C24.2 77.27 24.19 79.37 24.21 81.46 C24.22 83.34 24.22 83.34 24.23 85.26 C24.25 87.23 24.25 87.23 24.27 89.24 C24.3 91.84 24.32 94.43 24.34 97.03 C24.35 98.18 24.36 99.34 24.37 100.53 C24.27 103.18 24.27 103.18 23.27 104.18 C21.46 104.27 19.65 104.3 17.84 104.29 C16.67 104.29 15.51 104.29 14.32 104.29 C12.42 104.29 12.42 104.29 10.49 104.28 C9.2 104.28 7.92 104.27 6.59 104.27 C3.17 104.27 -0.26 104.26 -3.68 104.25 C-7.17 104.24 -10.67 104.23 -14.16 104.23 C-21.01 104.22 -27.87 104.2 -34.73 104.18 C-35.85 100.82 -35.84 98.3 -35.82 94.76 C-35.82 92.88 -35.82 92.88 -35.81 90.96 C-35.8 89 -35.8 89 -35.79 86.99 C-35.78 85.66 -35.78 84.32 -35.78 82.99 C-35.76 79.72 -35.75 76.45 -35.73 73.18 C-33.09 72.85 -30.45 72.52 -27.73 72.18 C-27.63 67.29 -27.55 62.39 -27.51 57.5 C-27.49 55.84 -27.46 54.17 -27.42 52.51 C-27.38 50.11 -27.35 47.72 -27.34 45.32 C-27.32 44.58 -27.29 43.84 -27.27 43.08 C-27.27 39.38 -27.62 37.35 -29.63 34.2 C-31.5 32.06 -31.5 32.06 -33.73 31.66 C-34.39 31.71 -35.05 31.75 -35.73 31.8 C-36.42 31.85 -37.12 31.9 -37.83 31.95 C-40.74 32.3 -42.84 32.61 -45.33 34.21 C-47.55 37.34 -46.98 40.67 -46.8 44.35 C-46.77 45.14 -46.75 45.94 -46.72 46.76 C-46.63 49.29 -46.52 51.83 -46.41 54.37 C-46.35 56.09 -46.29 57.81 -46.23 59.53 C-46.08 63.75 -45.91 67.96 -45.73 72.18 C-42.76 72.67 -42.76 72.67 -39.73 73.18 C-40.06 73.84 -40.39 74.5 -40.73 75.18 C-40.73 84.75 -40.73 94.32 -40.73 104.18 C-60.2 104.18 -79.67 104.18 -99.73 104.18 C-101.16 101.32 -100.86 98.87 -100.86 95.68 C-100.86 94.38 -100.86 93.08 -100.86 91.74 C-100.86 91.07 -100.86 90.39 -100.86 89.69 C-100.85 87.62 -100.86 85.55 -100.86 83.48 C-100.86 82.18 -100.86 80.89 -100.86 79.55 C-100.86 78.35 -100.86 77.16 -100.86 75.92 C-100.73 73.18 -100.73 73.18 -99.73 72.18 C-97.09 71.85 -94.45 71.52 -91.73 71.18 C-91.4 58.31 -91.07 45.44 -90.73 32.18 C-93.7 31.85 -96.67 31.52 -99.73 31.18 C-99.73 20.62 -99.73 10.06 -99.73 -0.82 C-92.66 -0.84 -85.59 -0.86 -78.53 -0.88 C-76.12 -0.88 -73.72 -0.89 -71.32 -0.9 C-67.86 -0.91 -64.41 -0.91 -60.96 -0.92 C-59.88 -0.92 -58.8 -0.93 -57.69 -0.93 C-56.19 -0.93 -56.19 -0.93 -54.66 -0.93 C-53.78 -0.94 -52.89 -0.94 -51.99 -0.94 C-49.73 -0.82 -49.73 -0.82 -46.73 0.18 C-46.65 4.06 -46.75 7.43 -47.73 11.18 C-47.23 12.17 -47.23 12.17 -46.73 13.18 C-46.24 12.7 -45.76 12.22 -45.27 11.72 C-31.81 -1.73 -31.81 -1.73 -20.73 -2.82 C-13.8 -5.13 -6.49 -2.8 0 0 Z M79.27 36.18 C80.27 38.18 80.27 38.18 80.27 38.18 Z M-48.73 44.18 C-48.73 53.42 -48.73 62.66 -48.73 72.18 C-48.4 72.18 -48.07 72.18 -47.73 72.18 C-47.73 62.94 -47.73 53.7 -47.73 44.18 C-48.06 44.18 -48.39 44.18 -48.73 44.18 Z M-99.73 73.18 C-98.73 75.18 -98.73 75.18 -98.73 75.18 Z M-99.73 76.18 C-98.73 79.18 -98.73 79.18 -98.73 79.18 Z M-99.73 80.18 C-99.73 85.46 -99.73 90.74 -99.73 96.18 C-99.4 96.18 -99.07 96.18 -98.73 96.18 C-98.73 90.9 -98.73 85.62 -98.73 80.18 C-99.06 80.18 -99.39 80.18 -99.73 80.18 Z " fill="#040406" transform="translate(436.7265625,106.8203125)"/>
<path d="M0 0 C0.97 -0.01 1.95 -0.02 2.95 -0.03 C4.54 -0.04 4.54 -0.04 6.17 -0.04 C7.25 -0.05 8.33 -0.05 9.44 -0.06 C11.74 -0.07 14.03 -0.08 16.32 -0.08 C19.84 -0.09 23.36 -0.12 26.88 -0.15 C29.1 -0.16 31.32 -0.16 33.54 -0.17 C34.6 -0.18 35.66 -0.19 36.75 -0.2 C37.73 -0.2 38.7 -0.2 39.71 -0.2 C41.01 -0.2 41.01 -0.2 42.33 -0.21 C43.02 -0.09 43.71 0.04 44.42 0.16 C46.58 3.4 46.68 4.35 46.74 8.09 C46.76 9.09 46.78 10.09 46.8 11.12 C46.81 12.2 46.82 13.28 46.83 14.39 C46.85 15.5 46.87 16.6 46.89 17.74 C46.95 21.28 47 24.81 47.05 28.35 C47.08 30.74 47.12 33.14 47.16 35.53 C47.26 41.41 47.34 47.29 47.42 53.16 C50.34 53.16 51.38 51.68 53.55 49.79 C54.27 49.16 54.99 48.53 55.74 47.89 C57.65 46.32 57.65 46.32 57.42 44.16 C63.42 40.71 67.67 39.57 74.55 39.79 C75.7 39.79 75.7 39.79 76.89 39.79 C83.34 39.89 88.48 41.46 94.17 44.54 C94.93 44.94 95.69 45.34 96.47 45.75 C98.69 47.35 99.31 48.7 100.42 51.16 C101.08 51.49 101.74 51.82 102.42 52.16 C104.39 54.53 105.43 56.2 106.42 59.16 C107.22 60.98 108.03 62.79 108.86 64.6 C109.51 66.02 109.51 66.02 110.17 67.47 C111.3 70.05 111.3 70.05 112.48 71.88 C113.8 75.09 113.68 77.89 113.69 81.35 C113.69 82.05 113.69 82.75 113.69 83.46 C113.69 84.94 113.69 86.42 113.68 87.9 C113.67 90.13 113.68 92.35 113.69 94.57 C113.71 105.46 113.14 115.96 108.86 126.1 C107.05 130.4 107.05 130.4 106.02 134.92 C105.42 137.16 105.42 137.16 103.58 138.29 C102.86 138.58 102.15 138.86 101.42 139.16 C100.22 140.1 99.06 141.08 97.92 142.1 C90.85 148.31 86.83 149.41 77.48 149.85 C76.47 149.91 75.45 149.97 74.41 150.03 C72.95 150.1 72.95 150.1 71.46 150.17 C70.56 150.22 69.67 150.26 68.75 150.31 C66.42 150.16 66.42 150.16 63.42 148.16 C62.8 147.85 62.18 147.54 61.55 147.22 C57.17 145.04 53.77 142.74 50.42 139.16 C49.43 138.17 48.44 137.18 47.42 136.16 C47.09 139.79 46.76 143.42 46.42 147.16 C39.48 147.21 32.54 147.25 25.59 147.27 C23.23 147.28 20.87 147.29 18.51 147.31 C15.12 147.34 11.72 147.35 8.33 147.36 C7.27 147.37 6.21 147.38 5.12 147.39 C4.14 147.39 3.16 147.39 2.15 147.39 C0.85 147.39 0.85 147.39 -0.48 147.4 C-2.58 147.16 -2.58 147.16 -4.58 145.16 C-4.91 142.29 -4.91 142.29 -5.03 138.66 C-5.07 137.36 -5.12 136.06 -5.16 134.73 C-5.19 133.71 -5.19 133.71 -5.21 132.68 C-5.27 130.6 -5.34 128.53 -5.41 126.46 C-5.64 119.02 -5.64 119.02 -5.58 116.16 C-4.58 115.16 -4.58 115.16 -1.02 115.1 C0.12 115.12 1.25 115.14 2.42 115.16 C2.42 114.16 2.42 113.17 2.42 112.14 C2.42 85.81 2.42 59.49 2.42 33.16 C0.11 33.16 -2.2 33.16 -4.58 33.16 C-4.75 28.62 -4.91 24.08 -5.06 19.54 C-5.12 18 -5.17 16.45 -5.23 14.91 C-5.31 12.69 -5.38 10.48 -5.46 8.26 C-5.49 7.56 -5.51 6.87 -5.54 6.15 C-5.59 4.49 -5.59 2.83 -5.58 1.16 C-3.97 -0.45 -2.23 0.02 0 0 Z M48.42 77.16 C46.51 81.02 46.17 84.17 46.19 88.45 C46.19 89.64 46.19 90.83 46.2 92.05 C46.21 93.28 46.22 94.52 46.23 95.79 C46.23 97.03 46.23 98.27 46.23 99.54 C45.89 107.5 45.89 107.5 49.3 114.35 C53.9 117.02 58.22 116.49 63.42 116.16 C63.42 115.5 63.42 114.84 63.42 114.16 C64.08 114.16 64.74 114.16 65.42 114.16 C65.42 113.5 65.42 112.84 65.42 112.16 C66.08 112.16 66.74 112.16 67.42 112.16 C69.12 107.05 68.65 101.69 68.67 96.35 C68.69 95.17 68.71 94 68.73 92.78 C68.76 85.71 68.35 81.1 64.04 75.31 C61.8 73.72 60.21 73.76 57.48 73.79 C56.63 73.78 55.77 73.77 54.89 73.76 C51.88 74.25 50.59 75.02 48.42 77.16 Z " fill="#030305" transform="translate(1031.579833984375,63.8388671875)"/>
<path d="M0 0 C7.1 -0.02 14.2 -0.04 21.31 -0.05 C23.73 -0.06 26.14 -0.07 28.56 -0.08 C32.03 -0.09 35.5 -0.09 38.96 -0.1 C40.05 -0.1 41.14 -0.11 42.26 -0.11 C43.76 -0.11 43.76 -0.11 45.3 -0.11 C46.63 -0.12 46.63 -0.12 47.98 -0.12 C50 0 50 0 51 1 C51.12 3.34 51.19 5.66 51.21 8 C51.22 8.73 51.23 9.46 51.24 10.22 C51.27 12.64 51.29 15.07 51.32 17.5 C51.34 19.18 51.36 20.86 51.38 22.54 C51.43 26.97 51.48 31.41 51.53 35.84 C51.58 40.35 51.64 44.87 51.69 49.39 C51.8 58.26 51.9 67.13 52 76 C52.78 75.22 53.57 74.43 54.38 73.62 C55.92 72.08 57.46 70.54 59 69 C59.5 67.51 59.5 67.51 60 66 C60.98 64.98 61.98 63.98 63 63 C63.66 62.01 64.32 61.02 65 60 C65.66 59.01 66.32 58.02 67 57 C67.33 56.01 67.66 55.02 68 54 C68.66 53.67 69.32 53.34 70 53 C70.33 52.17 70.66 51.35 71 50.5 C72 48 72 48 74 47 C74.33 46.17 74.66 45.35 75 44.5 C76 42 76 42 78 41 C78 40.67 78 40.34 78 40 C83.52 39.95 89.04 39.91 94.55 39.89 C96.43 39.88 98.31 39.87 100.19 39.85 C102.88 39.82 105.58 39.81 108.27 39.8 C109.12 39.79 109.96 39.78 110.83 39.77 C112.89 39.77 114.94 39.88 117 40 C117.66 40.66 118.32 41.32 119 42 C118.67 42.33 118.34 42.66 118 43 C117.91 45.15 117.89 47.29 117.9 49.44 C117.91 50.75 117.91 52.05 117.91 53.4 C117.92 54.79 117.93 56.17 117.94 57.56 C117.94 58.96 117.95 60.35 117.95 61.74 C117.96 65.16 117.98 68.58 118 72 C117.39 72.03 116.79 72.06 116.16 72.09 C111.16 72.39 111.16 72.39 106.8 74.6 C106.31 75.27 105.82 75.94 105.31 76.62 C104.76 77.34 104.21 78.06 103.64 78.8 C103.1 79.53 102.56 80.25 102 81 C100.88 82.28 99.76 83.55 98.62 84.81 C96.67 87.02 95.96 88.11 95 91 C95.66 91.33 96.32 91.66 97 92 C98.58 93.91 99.85 95.68 100.88 97.94 C102 100.23 102 100.23 104.44 102.44 C106.85 104.85 108.3 107.07 110 110 C111.21 111.88 111.21 111.88 113 113 C115 113.04 117 113.04 119 113 C119.66 113.66 120.32 114.32 121 115 C120.67 115.33 120.34 115.66 120 116 C119.91 118.15 119.89 120.29 119.9 122.44 C119.91 123.75 119.91 125.05 119.91 126.4 C119.92 127.79 119.93 129.17 119.94 130.56 C119.94 131.96 119.95 133.35 119.95 134.74 C119.96 138.16 119.98 141.58 120 145 C113.79 145.02 107.58 145.04 101.37 145.05 C99.25 145.06 97.14 145.07 95.03 145.08 C91.99 145.09 88.95 145.09 85.92 145.1 C84.5 145.11 84.5 145.11 83.05 145.11 C81.73 145.11 81.73 145.11 80.38 145.11 C79.6 145.12 78.83 145.12 78.03 145.12 C76 145 76 145 73 144 C71.67 141.68 70.5 139.42 69.38 137 C68.68 135.55 67.98 134.1 67.27 132.65 C66.91 131.89 66.54 131.13 66.16 130.35 C63.83 125.64 61.31 121.03 58.79 116.41 C56 111.21 56 111.21 56 109 C54.02 109.5 54.02 109.5 52 110 C51.67 121.55 51.34 133.1 51 145 C45.73 144.98 45.73 144.98 40.35 144.96 C36.96 144.96 33.57 144.95 30.17 144.95 C27.81 144.94 25.45 144.93 23.09 144.92 C19.7 144.91 16.3 144.91 12.91 144.9 C11.85 144.9 10.79 144.89 9.7 144.89 C8.72 144.89 7.74 144.89 6.73 144.89 C5.86 144.88 4.99 144.88 4.1 144.88 C1.94 144.86 1.94 144.86 0 146 C-0.17 141.46 -0.33 136.92 -0.48 132.38 C-0.54 130.84 -0.59 129.29 -0.65 127.75 C-0.73 125.53 -0.81 123.31 -0.88 121.1 C-0.91 120.4 -0.93 119.71 -0.96 118.99 C-1.01 117.33 -1.01 115.66 -1 114 C-0.5 113.5 -0.5 113.5 0 113 C2.31 113 4.62 113 7 113 C7 85.94 7 58.88 7 31 C4.69 31 2.38 31 0 31 C0 20.77 0 10.54 0 0 Z " fill="#040506" transform="translate(532,66)"/>
<path d="M0 0 C1.74 0 1.74 0 3.51 0 C8.42 0.03 12.93 0.17 17.75 1.19 C18.74 1.19 19.73 1.19 20.75 1.19 C20.75 1.85 20.75 2.51 20.75 3.19 C21.74 2.86 22.73 2.53 23.75 2.19 C23.75 2.85 23.75 3.51 23.75 4.19 C25.07 4.36 25.07 4.36 26.41 4.53 C35.38 6.3 43.12 12.12 48.75 19.19 C49.25 20.67 49.25 20.67 49.75 22.19 C50.74 23.67 50.74 23.67 51.75 25.19 C52.33 26.74 52.87 28.3 53.38 29.88 C53.77 31.09 53.77 31.09 54.16 32.32 C54.36 32.94 54.55 33.55 54.75 34.19 C55.41 34.19 56.07 34.19 56.75 34.19 C56.73 34.97 56.71 35.75 56.69 36.56 C56.56 39.17 56.56 39.17 57.75 41.19 C57.96 45.61 57.94 50.04 57.94 54.47 C57.94 56.68 57.96 58.88 57.97 61.09 C57.98 62.49 57.98 63.88 57.98 65.28 C57.98 66.56 57.99 67.83 57.99 69.15 C57.75 72.19 57.75 72.19 55.75 74.19 C55 76.17 54.32 78.17 53.69 80.19 C50.83 89.15 45.7 93.3 38.74 99.42 C37.37 100.63 36.04 101.89 34.75 103.19 C33.43 103.89 32.1 104.55 30.75 105.19 C29.76 105.68 29.76 105.68 28.75 106.19 C27.32 106.55 25.88 106.88 24.44 107.19 C23.68 107.35 22.92 107.52 22.14 107.69 C21.35 107.85 20.56 108.02 19.75 108.19 C19.01 108.35 18.27 108.52 17.51 108.69 C11.93 109.69 6.22 109.66 0.56 109.88 C-0.73 109.93 -2.03 109.99 -3.37 110.06 C-4.6 110.1 -5.83 110.15 -7.11 110.2 C-8.8 110.27 -8.8 110.27 -10.53 110.34 C-13.25 110.19 -13.25 110.19 -15.25 108.19 C-18.33 108.02 -18.33 108.02 -21.25 108.19 C-21.58 107.53 -21.91 106.87 -22.25 106.19 C-24.46 105.13 -24.46 105.13 -27.06 104.19 C-35.4 101.03 -35.4 101.03 -38.25 98.19 C-39.41 97.33 -39.41 97.33 -40.59 96.46 C-43.59 93.89 -45.74 91.1 -47.88 87.81 C-48.46 86.91 -48.46 86.91 -49.06 85.98 C-52.9 79.72 -54.29 73.47 -55.25 66.19 C-55.58 66.19 -55.91 66.19 -56.25 66.19 C-57.15 39.42 -57.15 39.42 -52.25 29.19 C-50.95 27.83 -49.62 26.49 -48.25 25.19 C-47.87 23.53 -47.52 21.87 -47.25 20.19 C-46.59 19.86 -45.93 19.53 -45.25 19.19 C-44.98 18.55 -44.71 17.91 -44.44 17.25 C-42.86 14.51 -41.2 14.12 -38.25 13.19 C-38.25 12.53 -38.25 11.87 -38.25 11.19 C-37.59 11.19 -36.93 11.19 -36.25 11.19 C-36.25 10.53 -36.25 9.87 -36.25 9.19 C-34.11 8.05 -31.96 6.93 -29.81 5.81 C-29.22 5.5 -28.63 5.18 -28.02 4.85 C-18.9 0.17 -10.12 -0.11 0 0 Z M-52.25 32.19 C-51.25 34.19 -51.25 34.19 -51.25 34.19 Z M-7.25 36.19 C-10.3 42.61 -9.62 51.01 -9.62 57.94 C-9.65 59.05 -9.67 60.16 -9.7 61.3 C-9.75 67.61 -9.75 67.61 -7.48 73.39 C-5.22 75.21 -4.1 75.9 -1.25 76.19 C-0.52 76.27 0.21 76.34 0.97 76.43 C5.88 76.6 5.88 76.6 10.25 74.56 C13.78 68.98 12.9 61.76 12.88 55.38 C12.88 54.41 12.88 53.44 12.89 52.45 C12.88 51.07 12.88 51.07 12.88 49.67 C12.88 48.83 12.88 48 12.88 47.13 C12.96 45.18 12.96 45.18 11.75 44.19 C11.63 43.24 11.5 42.29 11.38 41.31 C10.73 38.07 10.26 37.18 7.75 35.19 C7.42 34.86 7.09 34.53 6.75 34.19 C5.15 34.06 3.54 34.01 1.94 34 C1.06 33.99 0.19 33.97 -0.71 33.96 C-3.46 34.21 -4.93 34.7 -7.25 36.19 Z M-55.25 43.19 C-54.25 46.19 -54.25 46.19 -54.25 46.19 Z M-10.25 46.19 C-10.25 52.79 -10.25 59.39 -10.25 66.19 C-9.92 66.19 -9.59 66.19 -9.25 66.19 C-9.25 59.59 -9.25 52.99 -9.25 46.19 C-9.58 46.19 -9.91 46.19 -10.25 46.19 Z " fill="#030305" transform="translate(963.25,103.8125)"/>
<path d="M0 0 C1.76 1.59 1.76 1.59 3.36 3.61 C6.77 7.75 10.42 11.51 14.25 15.27 C15.59 16.61 16.94 17.94 18.28 19.27 C20.37 21.34 22.47 23.41 24.57 25.47 C26.61 27.48 28.65 29.5 30.68 31.52 C31.32 32.14 31.95 32.77 32.61 33.4 C34.11 34.9 35.56 36.44 37 38 C37 38.66 37 39.32 37 40 C37.53 40.21 38.06 40.41 38.61 40.62 C42.01 42.58 44.51 45.22 47.25 48 C47.8 48.55 48.36 49.09 48.93 49.66 C53 53.75 53 53.75 53 56 C53.62 56.23 54.24 56.45 54.88 56.69 C57.61 58.38 58.05 59.99 59 63 C58.56 63.37 58.13 63.73 57.68 64.11 C51.09 69.74 45 75.86 38.88 81.99 C37.73 83.14 36.58 84.29 35.42 85.44 C33.03 87.84 30.63 90.24 28.23 92.64 C25.16 95.71 22.09 98.79 19.01 101.86 C16.64 104.23 14.27 106.6 11.9 108.97 C10.76 110.1 9.63 111.24 8.49 112.37 C6.91 113.95 5.34 115.53 3.76 117.11 C2.86 118.01 1.97 118.91 1.04 119.83 C-1.03 121.83 -1.03 121.83 -2 124 C-7.12 123.11 -9.72 119.76 -13.25 116.19 C-13.9 115.56 -14.55 114.93 -15.22 114.28 C-15.83 113.67 -16.45 113.05 -17.08 112.42 C-17.64 111.86 -18.2 111.3 -18.78 110.72 C-20 109 -20 109 -20 105 C-19.4 104.89 -18.8 104.77 -18.18 104.65 C-14.64 103.59 -12.45 100.85 -9.92 98.29 C-9.35 97.71 -8.78 97.14 -8.19 96.56 C-6.99 95.35 -5.79 94.14 -4.59 92.93 C-2.75 91.06 -0.9 89.22 0.95 87.37 C2.12 86.2 3.29 85.02 4.45 83.85 C5.01 83.29 5.57 82.74 6.14 82.17 C9.07 79.56 9.07 79.56 10 76 C10.99 76 11.98 76 13 76 C12.34 75.34 11.68 74.68 11 74 C11 74.33 11 74.66 11 75 C-33.22 75 -77.44 75 -123 75 C-125 71 -125 71 -125 49 C-79.79 49 -34.58 49 12 49 C7.99 44.99 7.99 44.99 3.95 41.02 C0.99 38.12 -1.96 35.22 -4.91 32.31 C-6.18 31.06 -7.46 29.81 -8.74 28.56 C-10.59 26.76 -12.43 24.94 -14.27 23.12 C-14.84 22.57 -15.42 22.01 -16.01 21.44 C-17.6 19.85 -17.6 19.85 -20 17 C-20 15.68 -20 14.36 -20 13 C-19.34 13 -18.68 13 -18 13 C-17.73 12.38 -17.46 11.76 -17.19 11.12 C-16 9 -16 9 -13 7 C-12.67 6.34 -12.34 5.68 -12 5 C-11.34 5 -10.68 5 -10 5 C-10 4.34 -10 3.68 -10 3 C-9.34 3 -8.68 3 -8 3 C-7.67 2.01 -7.34 1.02 -7 0 C-4.25 -1.38 -2.91 -0.89 0 0 Z M-124 60 C-124 63.3 -124 66.6 -124 70 C-123.67 70 -123.34 70 -123 70 C-123 66.7 -123 63.4 -123 60 C-123.33 60 -123.66 60 -124 60 Z " fill="#040406" transform="translate(243,116)"/>
<path d="M0 0 C7.1 -0.02 14.2 -0.04 21.31 -0.05 C23.73 -0.06 26.14 -0.07 28.56 -0.08 C32.03 -0.09 35.5 -0.09 38.96 -0.1 C40.05 -0.1 41.14 -0.11 42.26 -0.11 C43.76 -0.11 43.76 -0.11 45.3 -0.11 C46.63 -0.12 46.63 -0.12 47.98 -0.12 C50 0 50 0 51 1 C51.11 2.45 51.15 3.91 51.16 5.37 C51.17 6.32 51.18 7.26 51.19 8.23 C51.2 9.8 51.2 9.8 51.21 11.39 C51.22 12.49 51.23 13.58 51.24 14.71 C51.27 18.34 51.29 21.97 51.32 25.6 C51.34 28.11 51.36 30.62 51.38 33.13 C51.43 39.07 51.47 45.01 51.52 50.95 C51.57 58.38 51.63 65.81 51.69 73.24 C51.8 86.49 51.9 99.75 52 113 C54.97 113.33 57.94 113.66 61 114 C61 124.56 61 135.12 61 146 C60.67 146 60.34 146 60 146 C60 135.77 60 125.54 60 115 C59.67 115.33 59.34 115.66 59 116 C59 125.57 59 135.14 59 145 C39.53 145.33 20.06 145.66 0 146 C0 135.11 0 124.22 0 113 C2.31 113 4.62 113 7 113 C7 85.94 7 58.88 7 31 C4.69 31 2.38 31 0 31 C0 20.77 0 10.54 0 0 Z " fill="#050507" transform="translate(1215,66)"/>
<path d="M0 0 C0 23.76 0 47.52 0 72 C2.64 72.33 5.28 72.66 8 73 C7.67 73.66 7.34 74.32 7 75 C7 84.57 7 94.14 7 104 C-12.8 104 -32.6 104 -53 104 C-55.29 99.42 -54.19 93.03 -54.19 88 C-54.2 86.69 -54.21 85.38 -54.22 84.03 C-54.23 82.78 -54.23 81.54 -54.23 80.25 C-54.23 79.1 -54.24 77.95 -54.24 76.77 C-54 74 -54 74 -52 72 C-49.38 71.88 -49.38 71.88 -47 72 C-46.98 70.86 -46.96 69.72 -46.94 68.54 C-46.86 64.32 -46.78 60.1 -46.68 55.87 C-46.64 54.05 -46.61 52.22 -46.58 50.39 C-46.53 47.76 -46.47 45.13 -46.41 42.51 C-46.4 41.69 -46.39 40.87 -46.38 40.02 C-46.23 34.23 -46.23 34.23 -44 32 C-45.09 31.92 -46.19 31.84 -47.31 31.75 C-51 31 -51 31 -52.71 29.35 C-54.38 26.3 -54.34 24.17 -54.29 20.7 C-54.28 19.5 -54.27 18.29 -54.26 17.05 C-54.24 15.8 -54.21 14.54 -54.19 13.25 C-54.17 11.98 -54.16 10.71 -54.15 9.4 C-54.11 6.27 -54.06 3.13 -54 0 C-35.86 -1.53 -18.29 -0.76 0 0 Z M-2 1 C-2 23.44 -2 45.88 -2 69 C-1.67 69 -1.34 69 -1 69 C-1 46.56 -1 24.12 -1 1 C-1.33 1 -1.66 1 -2 1 Z M-53 77 C-53 83.6 -53 90.2 -53 97 C-52.67 97 -52.34 97 -52 97 C-52 90.4 -52 83.8 -52 77 C-52.33 77 -52.66 77 -53 77 Z " fill="#060608" transform="translate(1203,107)"/>
<path d="M0 0 C1.26 -0.04 2.52 -0.08 3.81 -0.12 C4.52 -0.15 5.23 -0.17 5.96 -0.2 C8 0 8 0 11 2 C11.84 4.2 11.84 4.2 12.5 6.9 C12.75 7.87 13 8.85 13.25 9.85 C13.5 10.87 13.75 11.89 14 12.94 C14.49 14.95 14.99 16.96 15.5 18.96 C15.72 19.86 15.93 20.75 16.16 21.67 C17.05 24.15 18.01 25.32 20 27 C20.53 24.96 21.01 22.94 21.38 20.87 C22.19 17.11 23.34 13.48 24.5 9.81 C24.73 9.09 24.95 8.36 25.18 7.62 C26.87 2.27 26.87 2.27 28 0 C29.44 -0.05 30.87 -0.09 32.31 -0.12 C33.11 -0.15 33.91 -0.17 34.74 -0.2 C37 0 37 0 40 2 C39.67 2.33 39.34 2.66 39 3 C39.18 4.8 39.45 6.58 39.74 8.36 C39.92 9.48 40.1 10.59 40.29 11.74 C40.58 13.51 40.58 13.51 40.88 15.31 C42.29 23.88 43.38 32.34 44 41 C40.37 41.33 36.74 41.66 33 42 C30.61 38.41 30.82 36.87 30.94 32.62 C31.02 29.35 31.09 26.43 30.44 23.21 C30 21 30 21 31 19 C28.84 20.74 28.07 21.64 27.56 24.41 C27.52 25.29 27.48 26.16 27.44 27.06 C27.21 31.79 27.21 31.79 25 34 C23.96 36.32 22.96 38.65 22 41 C18.7 41 15.4 41 12 41 C11.5 38.52 11.5 38.52 11 36 C10.34 36 9.68 36 9 36 C8.9 35.05 8.79 34.1 8.69 33.12 C8.01 28.27 6.49 23.66 5 19 C3.04 21.94 2.7 22.9 2.37 26.23 C2.28 27.03 2.2 27.84 2.11 28.66 C2 29.91 2 29.91 1.88 31.19 C1.79 32.03 1.7 32.88 1.61 33.75 C1.4 35.83 1.2 37.92 1 40 C-1.31 40.66 -3.62 41.32 -6 42 C-6.22 40.42 -6.43 38.83 -6.62 37.25 C-6.74 36.37 -6.86 35.49 -6.98 34.58 C-7 31.69 -6.32 30.51 -5 28 C-4.62 25.43 -4.62 25.43 -4.5 22.62 C-4.16 17.83 -3.69 13.08 -3.06 8.31 C-2.91 7.13 -2.76 5.95 -2.6 4.74 C-2.4 3.83 -2.2 2.93 -2 2 C-1.34 1.67 -0.68 1.34 0 1 C0 0.67 0 0.34 0 0 Z M27 4 C28 6 28 6 28 6 Z M26 7 C27 10 27 10 27 10 Z M-2 10 C-1 12 -1 12 -1 12 Z M-3 16 C-2 18 -2 18 -2 18 Z M22 20 C23 22 23 22 23 22 Z M-6 32 C-5 36 -5 36 -5 36 Z " fill="#131315" transform="translate(592,248)"/>
<path d="M0 0 C5.07 -0.05 10.14 -0.09 15.22 -0.11 C16.94 -0.12 18.67 -0.13 20.39 -0.15 C22.87 -0.18 25.35 -0.19 27.83 -0.2 C28.6 -0.21 29.38 -0.22 30.17 -0.23 C33.99 -0.23 35.74 -0.17 39 2 C38.84 2.54 38.67 3.08 38.51 3.63 C37.91 6.43 37.89 9 37.9 11.86 C37.91 12.97 37.91 14.09 37.91 15.24 C37.92 16.4 37.93 17.56 37.94 18.75 C37.94 19.92 37.95 21.1 37.95 22.31 C37.96 25.21 37.98 28.1 38 31 C33.07 31.02 28.14 31.04 23.21 31.05 C21.53 31.06 19.86 31.07 18.18 31.08 C15.77 31.09 13.36 31.09 10.95 31.1 C10.2 31.1 9.45 31.11 8.68 31.11 C5.51 31.11 3.03 31.01 0 30 C-0.17 26.65 -0.34 23.29 -0.5 19.94 C-0.55 18.99 -0.6 18.05 -0.64 17.08 C-1.35 2.69 -1.35 2.69 0 0 Z " fill="#010103" transform="translate(1160,66)"/>
<path d="M0 0 C3.62 -0.15 7.25 -0.23 10.88 -0.31 C11.89 -0.35 12.9 -0.4 13.95 -0.44 C21.27 -0.56 26.94 0.71 33 5 C35.59 9.42 35.18 13.1 34 18 C32.56 20.44 32.56 20.44 31 22 C30.34 22 29.68 22 29 22 C29 22.66 29 23.32 29 24 C27.62 25.62 27.62 25.62 26 27 C25.34 27 24.68 27 24 27 C24.66 27.6 25.32 28.2 26 28.81 C28 31 28 31 28 34 C28.9 34.43 28.9 34.43 29.81 34.88 C32 36 32 36 35 38 C34.67 38.99 34.34 39.98 34 41 C29.9 41.47 26.08 41.7 22 41 C18.2 37.75 16.46 32.93 16 28 C15.34 28 14.68 28 14 28 C14 32.29 14 36.58 14 41 C9.71 41 5.42 41 1 41 C-0.67 37.67 -0.12 33.93 -0.1 30.27 C-0.1 29.41 -0.09 28.55 -0.09 27.66 C-0.09 24.9 -0.08 22.14 -0.06 19.38 C-0.06 17.51 -0.05 15.64 -0.05 13.77 C-0.04 9.18 -0.02 4.59 0 0 Z M14 5 C12.47 8.05 13.16 10.76 13.44 14.12 C13.54 15.41 13.64 16.69 13.75 18.01 C13.87 19.49 13.87 19.49 14 21 C16.31 21.33 18.62 21.66 21 22 C21.66 20.35 22.32 18.7 23 17 C22.67 16.67 22.34 16.34 22 16 C22.19 14.89 22.37 13.77 22.56 12.62 C23.41 8.91 23.41 8.91 21 6 C17.43 5.26 17.43 5.26 14 5 Z M12 7 C12 11.62 12 16.24 12 21 C12.33 21 12.66 21 13 21 C13 16.38 13 11.76 13 7 C12.67 7 12.34 7 12 7 Z M23 11 C23 12.98 23 14.96 23 17 C23.33 17 23.66 17 24 17 C24 15.02 24 13.04 24 11 C23.67 11 23.34 11 23 11 Z " fill="#1D1D1F" transform="translate(956,248)"/>
<path d="M0 0 C5.75 -0.06 5.75 -0.06 11.62 -0.12 C12.82 -0.14 14.02 -0.16 15.26 -0.18 C21.97 -0.22 26.95 0.27 32.88 3.62 C35 6 35 6 35.62 9.94 C35.43 13.49 34.95 14.06 32.5 17 C31.67 17.66 30.85 18.32 30 19 C30.78 19.58 31.57 20.15 32.38 20.75 C36.08 23.93 36.82 25.61 37.44 30.44 C36.88 34.96 35.51 36.2 32 39 C28.66 41.08 26.11 41.22 22.21 41.16 C21.1 41.15 20 41.14 18.86 41.13 C17.71 41.11 16.56 41.08 15.38 41.06 C13.09 41.03 10.81 41 8.52 40.97 C7.51 40.95 6.5 40.94 5.46 40.92 C2.99 40.83 2.99 40.83 1 42 C0.5 21.21 0.5 21.21 0 0 Z M12 6 C11.97 7.62 11.95 9.25 11.94 10.88 C11.93 11.78 11.91 12.68 11.9 13.62 C11.84 16.02 11.84 16.02 13 18 C18.22 18.44 18.22 18.44 23 16.88 C24.5 14.05 24.45 12.14 24 9 C22.5 6.5 22.5 6.5 20 5 C16.85 4.69 14.84 4.58 12 6 Z M12 22 C11.97 24.12 11.95 26.25 11.94 28.38 C11.93 29.56 11.91 30.74 11.9 31.96 C11.79 34.92 11.79 34.92 13 37 C14.44 37.05 15.87 37.09 17.31 37.12 C18.51 37.16 18.51 37.16 19.74 37.2 C22.28 37.16 22.28 37.16 25 35 C26.31 30.95 26.64 27.25 24.69 23.44 C20.57 21.24 16.57 21.69 12 22 Z " fill="#0C0C0E" transform="translate(690,248)"/>
<path d="M0 0 C3.84 2.49 6.1 4.52 7.95 8.73 C8.32 9.35 8.7 9.96 9.09 10.59 C11.33 16.17 9.68 23.78 7.64 29.23 C2.44 36.94 2.44 36.94 -2.05 38.73 C-3.04 39.23 -3.04 39.23 -4.05 39.73 C-12.82 39.79 -23.13 39.53 -29.77 33.05 C-32.32 29.75 -33.05 27.95 -33.05 23.73 C-33.71 23.73 -34.37 23.73 -35.05 23.73 C-35.44 12.9 -35.44 12.9 -33.05 7.73 C-32.39 7.4 -31.73 7.07 -31.05 6.73 C-30.72 6.07 -30.39 5.41 -30.05 4.73 C-28.96 3.68 -27.83 2.66 -26.68 1.67 C-26.07 1.14 -25.46 0.62 -24.84 0.07 C-18.84 -4.42 -6.65 -2.76 0 0 Z M-19.05 4.73 C-20.49 7.24 -20.49 7.24 -21.05 9.73 C-21.38 9.73 -21.71 9.73 -22.05 9.73 C-22.87 13.32 -23.21 16.68 -23.24 20.36 C-23.25 21.3 -23.27 22.24 -23.28 23.21 C-23.23 25.98 -23.23 25.98 -21.05 28.73 C-20.72 29.72 -20.39 30.71 -20.05 31.73 C-17.35 33.09 -14.93 33.07 -11.93 33.3 C-10.28 33.42 -10.28 33.42 -8.61 33.55 C-7.34 33.64 -7.34 33.64 -6.05 33.73 C-3.6 30.05 -3.3 26.71 -2.8 22.42 C-2.7 21.67 -2.59 20.93 -2.49 20.16 C-1.93 15.49 -2.06 12.12 -4.05 7.73 C-6.3 4.82 -6.3 4.82 -9.05 2.73 C-13.05 2.73 -15.44 3.08 -19.05 4.73 Z M-3.05 25.73 C-2.05 27.73 -2.05 27.73 -2.05 27.73 Z M-14.05 33.73 C-14.05 34.06 -14.05 34.39 -14.05 34.73 C-12.4 34.73 -10.75 34.73 -9.05 34.73 C-9.05 34.4 -9.05 34.07 -9.05 33.73 C-10.7 33.73 -12.35 33.73 -14.05 33.73 Z " fill="#151617" transform="translate(941.05078125,250.265625)"/>
<path d="M0 0 C0.67 0.33 1.34 0.65 2.04 0.99 C5.97 3.33 7.43 5.84 8.94 10.12 C9.6 10.12 10.26 10.12 10.94 10.12 C10.96 12.5 10.98 14.87 11 17.25 C11.01 17.92 11.02 18.58 11.03 19.27 C11.05 23.32 10.89 27.17 9.94 31.12 C7.94 32.25 7.94 32.25 5.94 33.12 C5.13 35.18 5.13 35.18 4.94 37.12 C2.46 37.62 2.46 37.62 -0.06 38.12 C-0.06 38.78 -0.06 39.44 -0.06 40.12 C-2.75 40.04 -5.44 39.93 -8.12 39.81 C-9.25 39.78 -9.25 39.78 -10.4 39.74 C-15.64 39.49 -19.35 38.41 -24.06 36.12 C-25.05 35.8 -26.04 35.47 -27.06 35.12 C-28.41 32.91 -28.41 32.91 -29.69 30.19 C-30.33 28.84 -30.33 28.84 -30.98 27.47 C-31.33 26.7 -31.69 25.92 -32.06 25.12 C-32.39 24.46 -32.72 23.81 -33.06 23.12 C-33.18 21.32 -33.24 19.5 -33.25 17.69 C-33.26 16.72 -33.28 15.75 -33.29 14.75 C-32.84 9.61 -28.71 5.56 -25.06 2.12 C-17.44 -4.27 -8.74 -4.35 0 0 Z M-16.06 -1.88 C-16.06 -1.54 -16.06 -1.22 -16.06 -0.88 C-14.41 -0.88 -12.76 -0.88 -11.06 -0.88 C-11.06 -1.21 -11.06 -1.53 -11.06 -1.88 C-12.71 -1.88 -14.36 -1.88 -16.06 -1.88 Z M-18.06 6.12 C-22.02 12.06 -21.58 19.2 -21.06 26.12 C-19.8 29.92 -18.83 31.5 -15.75 34 C-12.51 35.36 -10.54 35.63 -7.06 35.12 C-3.58 32.91 -1.53 30.97 -0.06 27.12 C0.25 23.79 0.25 23.79 0.19 20.19 C0.19 18.98 0.2 17.78 0.2 16.54 C-0.17 11.75 -1.56 7.51 -5.06 4.12 C-10.4 2.62 -13.43 3.11 -18.06 6.12 Z M-32.06 12.12 C-31.06 15.12 -31.06 15.12 -31.06 15.12 Z " fill="#111113" transform="translate(673.0625,249.875)"/>
<path d="M0 0 C1.89 0.03 1.89 0.03 3.81 0.06 C3.81 0.39 3.81 0.72 3.81 1.06 C5.03 1.12 6.25 1.19 7.5 1.25 C11.97 1.77 13.95 3.57 16.81 7.06 C16.48 7.72 16.15 8.38 15.81 9.06 C16.47 9.39 17.13 9.72 17.81 10.06 C16.49 11.38 15.17 12.7 13.81 14.06 C10.89 12.87 9.61 11.83 7.5 9.38 C4.95 6.67 4.95 6.67 1.19 7.06 C-2.67 8.19 -2.67 8.19 -5.19 11.06 C-5.19 11.72 -5.19 12.38 -5.19 13.06 C-1.06 15.27 2.86 16.73 7.38 17.94 C12.55 19.47 15.67 20.64 18.81 25.06 C18.81 25.72 18.81 26.38 18.81 27.06 C18.97 28.95 18.97 28.95 19.12 30.88 C19.14 34.46 18.9 34.95 16.5 37.94 C9.89 43.17 3.9 42.72 -4.19 42.06 C-7.83 41.23 -11.16 40.29 -14.19 38.06 C-15.45 35.42 -15.45 35.42 -16.19 33.06 C-14.7 32.57 -14.7 32.57 -13.19 32.06 C-13.19 31.4 -13.19 30.74 -13.19 30.06 C-11.54 30.06 -9.89 30.06 -8.19 30.06 C-8.19 30.72 -8.19 31.38 -8.19 32.06 C-4.55 35.18 -1.12 36.94 3.62 37.56 C6.79 37.33 6.79 37.33 8.75 35.56 C9.1 35.07 9.45 34.57 9.81 34.06 C8.15 30.18 7.1 29.18 3.12 27.52 C1.69 27.1 0.26 26.69 -1.19 26.31 C-1.91 26.1 -2.64 25.9 -3.38 25.68 C-5.31 25.13 -7.25 24.6 -9.19 24.06 C-12.19 23.06 -12.19 23.06 -13.94 20.5 C-15.48 16.26 -15.35 13.37 -14.19 9.06 C-12.47 5.38 -10.63 3.21 -7.19 1.06 C-4.44 0.15 -2.83 -0.05 0 0 Z M-4.19 1.06 C-0.19 2.06 -0.19 2.06 -0.19 2.06 Z " fill="#121314" transform="translate(851.1875,246.9375)"/>
<path d="M0 0 C1.11 -0 2.22 -0.01 3.37 -0.01 C4.54 -0 5.7 0.01 6.91 0.02 C8.07 0.01 9.24 0 10.44 -0.01 C11.55 -0.01 12.67 -0 13.81 0 C14.84 0 15.86 0 16.92 0.01 C19.41 0.27 19.41 0.27 21.41 2.27 C21.03 4.39 21.03 4.39 20.41 6.27 C19.34 6.33 18.26 6.39 17.16 6.45 C15.76 6.53 14.37 6.62 12.97 6.7 C11.91 6.76 11.91 6.76 10.83 6.82 C7.32 6.74 7.32 6.74 4.41 8.27 C4.33 9.95 4.32 11.64 4.34 13.33 C4.36 14.96 4.38 16.59 4.41 18.27 C8.7 18.27 12.99 18.27 17.41 18.27 C17.08 20.25 16.75 22.23 16.41 24.27 C12.12 24.27 7.83 24.27 3.41 24.27 C3.74 28.23 4.07 32.19 4.41 36.27 C5.85 36.01 5.85 36.01 7.33 35.76 C8.59 35.55 9.85 35.35 11.16 35.14 C12.41 34.93 13.66 34.72 14.95 34.51 C18.34 34.27 19.66 34.39 22.41 36.27 C22.41 37.92 22.41 39.57 22.41 41.27 C18.46 41.29 14.5 41.31 10.55 41.32 C8.55 41.33 6.54 41.34 4.54 41.35 C2.65 41.36 2.65 41.36 0.73 41.36 C-1.02 41.37 -1.02 41.37 -2.8 41.38 C-5.59 41.27 -5.59 41.27 -7.59 40.27 C-7.64 34.89 -7.68 29.52 -7.7 24.14 C-7.71 22.31 -7.73 20.48 -7.74 18.65 C-7.77 16.03 -7.78 13.4 -7.79 10.77 C-7.8 9.95 -7.81 9.13 -7.82 8.29 C-7.82 6.28 -7.72 4.27 -7.59 2.27 C-4.95 -0.38 -3.69 0.01 0 0 Z " fill="#111113" transform="translate(794.59375,247.734375)"/>
<path d="M0 0 C3.95 -0.05 7.9 -0.09 11.85 -0.11 C13.86 -0.12 15.87 -0.15 17.87 -0.18 C19.13 -0.18 20.38 -0.19 21.68 -0.2 C22.84 -0.21 24 -0.22 25.2 -0.23 C28 0 28 0 30 2 C29.62 4.12 29.62 4.12 29 6 C27.94 6.03 26.88 6.05 25.79 6.08 C24.4 6.13 23.01 6.19 21.62 6.25 C20.93 6.26 20.23 6.28 19.51 6.29 C17.22 6.36 17.22 6.36 14 7 C12.18 9.16 11.99 10.35 12.02 13.14 C12.14 13.84 12.26 14.53 12.38 15.25 C12.58 16.49 12.79 17.73 13 19 C13.66 18.34 14.32 17.68 15 17 C22.3 16.54 22.3 16.54 26 19 C25.67 20.65 25.34 22.3 25 24 C20.71 24 16.42 24 12 24 C12.33 27.63 12.66 31.26 13 35 C18.28 35 23.56 35 29 35 C29 36.98 29 38.96 29 41 C24.52 41.03 20.04 41.05 15.56 41.06 C14.28 41.07 13 41.08 11.69 41.09 C10.47 41.09 9.26 41.09 8 41.1 C6.88 41.1 5.75 41.11 4.59 41.11 C2 41 2 41 1 40 C0.84 37.04 0.74 34.11 0.68 31.15 C0.65 29.82 0.65 29.82 0.62 28.47 C0.56 25.62 0.5 22.78 0.44 19.94 C0.39 18.01 0.35 16.09 0.31 14.17 C0.2 9.45 0.1 4.72 0 0 Z " fill="#0D0D0F" transform="translate(997,248)"/>
<path d="M0 0 C0.68 0.05 1.36 0.1 2.06 0.15 C3.08 0.2 3.08 0.2 4.12 0.25 C6.06 0.52 6.06 0.52 9.06 1.52 C9.06 12.41 9.06 23.3 9.06 34.52 C10.38 34.85 11.7 35.18 13.06 35.52 C13.06 35.19 13.06 34.86 13.06 34.52 C14.5 34.47 15.94 34.43 17.38 34.4 C18.18 34.38 18.98 34.35 19.8 34.33 C22.06 34.52 22.06 34.52 25.06 36.52 C25.06 38.17 25.06 39.82 25.06 41.52 C15.49 41.52 5.92 41.52 -3.94 41.52 C-5.45 38.51 -5.12 35.38 -5.14 32.07 C-5.15 31.33 -5.15 30.59 -5.16 29.82 C-5.17 28.26 -5.17 26.69 -5.18 25.12 C-5.19 22.73 -5.22 20.34 -5.25 17.95 C-5.26 16.43 -5.26 14.9 -5.27 13.38 C-5.28 12.67 -5.29 11.96 -5.3 11.22 C-5.28 6.81 -4.95 1.34 0 0 Z M6.06 2.52 C6.39 13.41 6.72 24.3 7.06 35.52 C7.39 35.52 7.72 35.52 8.06 35.52 C8.06 24.63 8.06 13.74 8.06 2.52 C7.4 2.52 6.74 2.52 6.06 2.52 Z M-3.94 30.52 C-2.94 32.52 -2.94 32.52 -2.94 32.52 Z M-3.94 35.52 C-2.94 38.52 -2.94 38.52 -2.94 38.52 Z " fill="#222324" transform="translate(756.9375,247.4765625)"/>
<path d="M0 0 C4.52 -0.05 9.04 -0.09 13.56 -0.11 C15.1 -0.12 16.64 -0.13 18.18 -0.15 C20.39 -0.18 22.6 -0.19 24.8 -0.2 C25.49 -0.21 26.18 -0.22 26.89 -0.23 C28.6 -0.23 30.3 -0.12 32 0 C34 2 34 2 34 6 C30.7 6 27.4 6 24 6 C23.67 17.55 23.34 29.1 23 41 C17.55 41.5 17.55 41.5 12 42 C12 30.78 12 19.56 12 8 C8.7 8 5.4 8 2 8 C0 2.25 0 2.25 0 0 Z M2 6 C2 6.33 2 6.66 2 7 C4.64 7 7.28 7 10 7 C10 6.67 10 6.34 10 6 C7.36 6 4.72 6 2 6 Z " fill="#121314" transform="translate(872,248)"/>
<path d="M0 0 C1.6 -0.05 3.21 -0.09 4.81 -0.12 C5.71 -0.15 6.6 -0.17 7.52 -0.2 C10 0 10 0 13 2 C12.67 2.33 12.34 2.66 12 3 C11.91 5.81 11.88 8.6 11.9 11.41 C11.9 12.67 11.9 12.67 11.91 13.96 C11.91 16.66 11.92 19.36 11.94 22.06 C11.94 23.89 11.95 25.71 11.95 27.54 C11.96 32.03 11.98 36.51 12 41 C10.54 41.03 9.08 41.05 7.62 41.06 C6.41 41.08 6.41 41.08 5.16 41.1 C3 41 3 41 1 40 C-0.16 36.52 -0.11 33.81 -0.1 30.14 C-0.1 29.48 -0.09 28.82 -0.09 28.14 C-0.09 26.03 -0.08 23.92 -0.06 21.81 C-0.06 20.38 -0.05 18.95 -0.05 17.52 C-0.04 14.01 -0.02 10.51 0 7 C-0.33 7 -0.66 7 -1 7 C-0.67 4.69 -0.34 2.38 0 0 Z " fill="#060608" transform="translate(733,248)"/>
<path d="M0 0 C44.88 0.33 89.76 0.66 136 1 C136 1.33 136 1.66 136 2 C91.78 2 47.56 2 2 2 C1.34 13.19 1.34 13.19 3 24 C68.84 24.5 68.84 24.5 136 25 C136 25.33 136 25.66 136 26 C91.78 26 47.56 26 2 26 C0 22 0 22 0 0 Z " fill="#E2E4E4" transform="translate(118,165)"/>
<path d="M0 0 C0.33 0 0.66 0 1 0 C1 90.75 1 181.5 1 275 C0.67 275 0.34 275 0 275 C0 184.25 0 93.5 0 0 Z " fill="#3F3F40" transform="translate(11,46)"/>
<path d="M0 0 C66.33 0 132.66 0 201 0 C201 0.33 201 0.66 201 1 C134.67 1 68.34 1 0 1 C0 0.67 0 0.34 0 0 Z " fill="#F3F5F5" transform="translate(14,333)"/>
<path d="M0 0 C32.34 0 64.68 0 98 0 C98 0.33 98 0.66 98 1 C65.66 1 33.32 1 0 1 C0 0.67 0 0.34 0 0 Z " fill="#8D8E8F" transform="translate(129,164)"/>
<path d="M0 0 C0.87 0 1.74 0 2.63 0.01 C3.61 0.01 4.59 0.01 5.6 0.01 C6.67 0.01 7.74 0.02 8.84 0.02 C9.92 0.02 11.01 0.03 12.13 0.03 C15.61 0.03 19.1 0.05 22.58 0.06 C24.94 0.06 27.29 0.07 29.65 0.07 C35.44 0.08 41.23 0.1 47.02 0.12 C47.02 0.45 47.02 0.78 47.02 1.12 C31.51 1.45 16 1.78 0.02 2.12 C-0.31 12.35 -0.64 22.58 -0.98 33.12 C-1.31 33.12 -1.64 33.12 -1.98 33.12 C-2.15 28.58 -2.31 24.04 -2.46 19.5 C-2.52 17.96 -2.57 16.41 -2.63 14.87 C-2.71 12.65 -2.79 10.43 -2.86 8.22 C-2.89 7.52 -2.91 6.83 -2.94 6.11 C-2.99 4.45 -2.99 2.78 -2.98 1.12 C-1.98 0.12 -1.98 0.12 0 0 Z " fill="#7E7F80" transform="translate(1028.980484008789,63.87974548339844)"/>
<path d="M0 0 C0.33 0 0.66 0 1 0 C1 26.73 1 53.46 1 81 C0.67 81 0.34 81 0 81 C0 54.27 0 27.54 0 0 Z " fill="#F3F5F5" transform="translate(1267,93)"/>
<path d="M0 0 C4.52 -0.05 9.04 -0.09 13.56 -0.11 C15.1 -0.12 16.64 -0.13 18.18 -0.15 C20.39 -0.18 22.6 -0.19 24.8 -0.2 C25.49 -0.21 26.18 -0.22 26.89 -0.23 C28.6 -0.23 30.3 -0.12 32 0 C32.66 0.66 33.32 1.32 34 2 C23.44 2 12.88 2 2 2 C2 3.65 2 5.3 2 7 C1.67 7 1.34 7 1 7 C0.67 4.69 0.34 2.38 0 0 Z " fill="#838585" transform="translate(872,248)"/>
<path d="M0 0 C1.13 -0.04 2.27 -0.08 3.44 -0.12 C7 0 7 0 10 3 C1.75 3 -6.5 3 -15 3 C-15 2.34 -15 1.68 -15 1 C-3.98 -1.99 -3.98 -1.99 0 0 Z " fill="#515151" transform="translate(114,319)"/>
<path d="M0 0 C19.47 0 38.94 0 59 0 C59 0.33 59 0.66 59 1 C39.53 1 20.06 1 0 1 C0 0.67 0 0.34 0 0 Z " fill="#F3F5F5" transform="translate(1216,212)"/>
<path d="M0 0 C7.92 0 15.84 0 24 0 C24.33 0.66 24.66 1.32 25 2 C17.08 2.33 9.16 2.66 1 3 C0.67 2.01 0.34 1.02 0 0 Z " fill="#797A7B" transform="translate(690,248)"/>
<path d="M0 0 C14.85 0 29.7 0 45 0 C45 0.33 45 0.66 45 1 C30.15 1 15.3 1 0 1 C0 0.67 0 0.34 0 0 Z " fill="#2D2D2D" transform="translate(536,64)"/>
<path d="M0 0 C0.33 0 0.66 0 1 0 C1 13.53 1 27.06 1 41 C0.67 41 0.34 41 0 41 C0 27.47 0 13.94 0 0 Z " fill="#88898A" transform="translate(1033,102)"/>
<path d="M0 0 C0.5 1.98 0.5 1.98 1 4 C-10.55 4 -22.1 4 -34 4 C-34 3.67 -34 3.34 -34 3 C-22.78 3 -11.56 3 0 3 C0 2.01 0 1.02 0 0 Z " fill="#313131" transform="translate(189,304)"/>
<path d="M0 0 C0.33 0 0.66 0 1 0 C1 12.21 1 24.42 1 37 C0.67 37 0.34 37 0 37 C0 24.79 0 12.58 0 0 Z " fill="#000002" transform="translate(996,250)"/>
<path d="M0 0 C0.33 0 0.66 0 1 0 C1 10.89 1 21.78 1 33 C0.67 33 0.34 33 0 33 C0 22.11 0 11.22 0 0 Z " fill="#29292A" transform="translate(785,250)"/>
<path d="M0 0 C1.6 -0.05 3.21 -0.09 4.81 -0.12 C5.71 -0.15 6.6 -0.17 7.52 -0.2 C10 0 10 0 13 2 C12.24 2.03 11.48 2.05 10.7 2.08 C9.71 2.13 8.71 2.19 7.69 2.25 C6.7 2.3 5.72 2.34 4.7 2.39 C1.86 2.76 1.86 2.76 0.14 5.05 C-0.23 5.69 -0.61 6.34 -1 7 C-0.67 4.69 -0.34 2.38 0 0 Z " fill="#7E7F80" transform="translate(733,248)"/>
<path d="M0 0 C0.66 0.33 1.32 0.66 2 1 C-2.95 5.95 -7.9 10.9 -13 16 C-13 13 -13 13 -11.81 11.47 C-11.26 10.94 -10.72 10.41 -10.16 9.86 C-9.57 9.29 -8.98 8.71 -8.38 8.12 C-7.76 7.52 -7.14 6.93 -6.5 6.31 C-5.88 5.71 -5.26 5.1 -4.62 4.47 C-3.09 2.98 -1.54 1.49 0 0 Z " fill="#000002" transform="translate(251,193)"/>
<path d="M0 0 C0.33 0 0.66 0 1 0 C1 10.23 1 20.46 1 31 C0.67 31 0.34 31 0 31 C0 20.77 0 10.54 0 0 Z " fill="#F3F5F5" transform="translate(774,181)"/>
<path d="M0 0 C0.33 0 0.66 0 1 0 C1 10.23 1 20.46 1 31 C0.67 31 0.34 31 0 31 C0 20.77 0 10.54 0 0 Z " fill="#F3F5F5" transform="translate(653,181)"/>
<path d="M0 0 C0.33 0 0.66 0 1 0 C1 10.23 1 20.46 1 31 C0.67 31 0.34 31 0 31 C0 20.77 0 10.54 0 0 Z " fill="#F3F5F5" transform="translate(397,181)"/>
<path d="M0 0 C0.33 0 0.66 0 1 0 C1 10.23 1 20.46 1 31 C0.67 31 0.34 31 0 31 C0 20.77 0 10.54 0 0 Z " fill="#2F2F2F" transform="translate(344,142)"/>
<path d="M0 0 C0.33 0 0.66 0 1 0 C1 9.9 1 19.8 1 30 C0.67 30 0.34 30 0 30 C0 20.1 0 10.2 0 0 Z " fill="#F3F5F5" transform="translate(651,108)"/>
<path d="M0 0 C0.33 0 0.66 0 1 0 C1 9.24 1 18.48 1 28 C0.67 28 0.34 28 0 28 C0 18.76 0 9.52 0 0 Z " fill="#000002" transform="translate(336,107)"/>
<path d="M0 0 C0.33 0 0.66 0 1 0 C1 9.24 1 18.48 1 28 C0.67 28 0.34 28 0 28 C0 18.76 0 9.52 0 0 Z " fill="#707172" transform="translate(530,66)"/>
<path d="M0 0 C8.91 0 17.82 0 27 0 C27 0.33 27 0.66 27 1 C18.09 1 9.18 1 0 1 C0 0.67 0 0.34 0 0 Z " fill="#515151" transform="translate(112,307)"/>
<path d="M0 0 C8.91 0 17.82 0 27 0 C27 0.33 27 0.66 27 1 C18.09 1 9.18 1 0 1 C0 0.67 0 0.34 0 0 Z " fill="#515151" transform="translate(54,307)"/>
<path d="M0 0 C0.33 0 0.66 0 1 0 C1 8.58 1 17.16 1 26 C0.67 26 0.34 26 0 26 C0 17.42 0 8.84 0 0 Z " fill="#F3F5F5" transform="translate(831,147)"/>
<path d="M0 0 C8.25 0 16.5 0 25 0 C25 0.33 25 0.66 25 1 C16.75 1 8.5 1 0 1 C0 0.67 0 0.34 0 0 Z " fill="#161618" transform="translate(1215,64)"/>
<path d="M0 0 C0.33 0 0.66 0 1 0 C1 7.59 1 15.18 1 23 C0.67 23 0.34 23 0 23 C0 15.41 0 7.82 0 0 Z " fill="#151517" transform="translate(689,261)"/>
<path d="M0 0 C7.59 0 15.18 0 23 0 C23 0.33 23 0.66 23 1 C15.41 1 7.82 1 0 1 C0 0.67 0 0.34 0 0 Z " fill="#262627" transform="translate(1241,64)"/>
<path d="M0 0 C0.33 0 0.66 0 1 0 C1 7.26 1 14.52 1 22 C0.67 22 0.34 22 0 22 C0 14.74 0 7.48 0 0 Z " fill="#5F5F5F" transform="translate(882,260)"/>
<path d="M0 0 C0.66 0.33 1.32 0.66 2 1 C-1.3 4.3 -4.6 7.6 -8 11 C-8 8 -8 8 -6.25 5.96 C-5.51 5.25 -4.76 4.54 -4 3.81 C-2.89 2.74 -2.89 2.74 -1.75 1.64 C-1.17 1.1 -0.59 0.56 0 0 Z " fill="#000002" transform="translate(234,210)"/>
<path d="M0 0 C5.28 0 10.56 0 16 0 C16 0.33 16 0.66 16 1 C10.72 1 5.44 1 0 1 C0 0.67 0 0.34 0 0 Z " fill="#F3F5F5" transform="translate(1011,255)"/>
<path d="M0 0 C5.28 0 10.56 0 16 0 C16 0.33 16 0.66 16 1 C10.72 1 5.44 1 0 1 C0 0.67 0 0.34 0 0 Z " fill="#F3F5F5" transform="translate(800,255)"/>
<path d="M0 0 C5.28 0 10.56 0 16 0 C16 0.33 16 0.66 16 1 C10.72 1 5.44 1 0 1 C0 0.67 0 0.34 0 0 Z " fill="#F3F5F5" transform="translate(957,214)"/>
<path d="M0 0 C0.33 0 0.66 0 1 0 C1 5.28 1 10.56 1 16 C0.67 16 0.34 16 0 16 C0 10.72 0 5.44 0 0 Z " fill="#515151" transform="translate(408,154)"/>
<path d="M0 0 C0.33 0 0.66 0 1 0 C1 5.28 1 10.56 1 16 C0.67 16 0.34 16 0 16 C0 10.72 0 5.44 0 0 Z " fill="#000002" transform="translate(974,153)"/>
<path d="M0 0 C0.33 0 0.66 0 1 0 C1 4.95 1 9.9 1 15 C0.67 15 0.34 15 0 15 C0 10.05 0 5.1 0 0 Z " fill="#000002" transform="translate(1214,185)"/>
<path d="M0 0 C4.62 0 9.24 0 14 0 C14 0.33 14 0.66 14 1 C9.38 1 4.76 1 0 1 C0 0.67 0 0.34 0 0 Z " fill="#39393A" transform="translate(82,307)"/>
<path d="M0 0 C4.62 0 9.24 0 14 0 C14 0.33 14 0.66 14 1 C9.38 1 4.76 1 0 1 C0 0.67 0 0.34 0 0 Z " fill="#8A8C8C" transform="translate(230,164)"/>
<path d="M0 0 C0.33 0 0.66 0 1 0 C1 4.62 1 9.24 1 14 C0.67 14 0.34 14 0 14 C0 9.38 0 4.76 0 0 Z " fill="#DBDDDD" transform="translate(1213,75)"/>
<path d="M0 0 C4.29 0 8.58 0 13 0 C13 0.33 13 0.66 13 1 C8.71 1 4.42 1 0 1 C0 0.67 0 0.34 0 0 Z " fill="#F3F5F5" transform="translate(848,290)"/>
<path d="M0 0 C4.29 0 8.58 0 13 0 C13 0.33 13 0.66 13 1 C8.71 1 4.42 1 0 1 C0 0.67 0 0.34 0 0 Z " fill="#18181A" transform="translate(1011,282)"/>
<path d="M0 0 C0.33 0 0.66 0 1 0 C1 4.29 1 8.58 1 13 C0.67 13 0.34 13 0 13 C0 8.71 0 4.42 0 0 Z " fill="#F3F5F5" transform="translate(1146,152)"/>
<path d="M0 0 C3.96 0 7.92 0 12 0 C12 0.33 12 0.66 12 1 C8.04 1 4.08 1 0 1 C0 0.67 0 0.34 0 0 Z " fill="#F3F5F5" transform="translate(923,290)"/>
<path d="M0 0 C3.96 0 7.92 0 12 0 C12 0.33 12 0.66 12 1 C8.04 1 4.08 1 0 1 C0 0.67 0 0.34 0 0 Z " fill="#F3F5F5" transform="translate(657,290)"/>
<path d="M0 0 C0.33 0 0.66 0 1 0 C1 3.96 1 7.92 1 12 C0.67 12 0.34 12 0 12 C0 8.04 0 4.08 0 0 Z " fill="#F3F5F5" transform="translate(653,264)"/>
<path d="M0 0 C0.33 0 0.66 0 1 0 C1 3.96 1 7.92 1 12 C0.67 12 0.34 12 0 12 C0 8.04 0 4.08 0 0 Z " fill="#434343" transform="translate(721,151)"/>
<path d="M0 0 C3.63 0 7.26 0 11 0 C11 0.33 11 0.66 11 1 C7.37 1 3.74 1 0 1 C0 0.67 0 0.34 0 0 Z " fill="#424242" transform="translate(100,307)"/>
<path d="M0 0 C0.33 0 0.66 0 1 0 C1 3.63 1 7.26 1 11 C0.67 11 0.34 11 0 11 C0 7.37 0 3.74 0 0 Z " fill="#F3F5F5" transform="translate(919,265)"/>
<path d="M0 0 C3.63 0 7.26 0 11 0 C11 0.33 11 0.66 11 1 C7.37 1 3.74 1 0 1 C0 0.67 0 0.34 0 0 Z " fill="#F3F5F5" transform="translate(1102,214)"/>
<path d="M0 0 C0.33 0 0.66 0 1 0 C1 3.63 1 7.26 1 11 C0.67 11 0.34 11 0 11 C0 7.37 0 3.74 0 0 Z " fill="#848586" transform="translate(530,197)"/>
<path d="M0 0 C0.33 0 0.66 0 1 0 C1 3.63 1 7.26 1 11 C0.67 11 0.34 11 0 11 C0 7.37 0 3.74 0 0 Z " fill="#2C2C2D" transform="translate(721,164)"/>
<path d="M0 0 C3.63 0 7.26 0 11 0 C11 0.33 11 0.66 11 1 C7.37 1 3.74 1 0 1 C0 0.67 0 0.34 0 0 Z " fill="#424242" transform="translate(1160,64)"/>
<path d="M0 0 C3.3 0 6.6 0 10 0 C10 0.33 10 0.66 10 1 C6.7 1 3.4 1 0 1 C0 0.67 0 0.34 0 0 Z " fill="#303031" transform="translate(140,307)"/>
<path d="M0 0 C0.33 0 0.66 0 1 0 C1 3.3 1 6.6 1 10 C0.67 10 0.34 10 0 10 C0 6.7 0 3.4 0 0 Z " fill="#F3F5F5" transform="translate(951,265)"/>
<path d="M0 0 C3.3 0 6.6 0 10 0 C10 0.33 10 0.66 10 1 C6.7 1 3.4 1 0 1 C0 0.67 0 0.34 0 0 Z " fill="#F3F5F5" transform="translate(897,255)"/>
<path d="M0 0 C0.33 0 0.66 0 1 0 C1 3.3 1 6.6 1 10 C0.67 10 0.34 10 0 10 C0 6.7 0 3.4 0 0 Z " fill="#000002" transform="translate(1158,85)"/>
<path d="M0 0 C3.3 0 6.6 0 10 0 C10 0.33 10 0.66 10 1 C6.7 1 3.4 1 0 1 C0 0.67 0 0.34 0 0 Z " fill="#000002" transform="translate(1185,64)"/>
<path d="M0 0 C0.33 0 0.66 0 1 0 C1 2.97 1 5.94 1 9 C0.67 9 0.34 9 0 9 C0 6.03 0 3.06 0 0 Z " fill="#878889" transform="translate(1025,189)"/>
<path d="M0 0 C0.33 0 0.66 0 1 0 C1 2.97 1 5.94 1 9 C0.67 9 0.34 9 0 9 C0 6.03 0 3.06 0 0 Z " fill="#2D2D2D" transform="translate(850,164)"/>
<path d="M0 0 C0.33 0 0.66 0 1 0 C1 2.97 1 5.94 1 9 C0.67 9 0.34 9 0 9 C0 6.03 0 3.06 0 0 Z " fill="#CFD0D0" transform="translate(785,158)"/>
<path d="M0 0 C0.33 0 0.66 0 1 0 C1 2.97 1 5.94 1 9 C0.67 9 0.34 9 0 9 C0 6.03 0 3.06 0 0 Z " fill="#D8D9DA" transform="translate(1033,150)"/>
<path d="M0 0 C2.97 0 5.94 0 9 0 C9 0.33 9 0.66 9 1 C6.03 1 3.06 1 0 1 C0 0.67 0 0.34 0 0 Z " fill="#F3F5F5" transform="translate(1154,105)"/>
<path d="M0 0 C2.97 0 5.94 0 9 0 C9 0.33 9 0.66 9 1 C6.03 1 3.06 1 0 1 C0 0.67 0 0.34 0 0 Z " fill="#F3F5F5" transform="translate(191,85)"/>
<path d="M0 0 C2.64 0 5.28 0 8 0 C8 0.33 8 0.66 8 1 C5.36 1 2.72 1 0 1 C0 0.67 0 0.34 0 0 Z " fill="#000002" transform="translate(924,247)"/>
<path d="M0 0 C0.33 0 0.66 0 1 0 C1 2.64 1 5.28 1 8 C0.67 8 0.34 8 0 8 C0 5.36 0 2.72 0 0 Z " fill="#323233" transform="translate(408,144)"/>
<path d="M0 0 C0.66 0.33 1.32 0.66 2 1 C1.01 1.99 0.02 2.98 -1 4 C-1.66 3.67 -2.32 3.34 -3 3 C-2.01 2.01 -1.02 1.02 0 0 Z " fill="#000002" transform="translate(771,113)"/>
<path d="M0 0 C0.33 0 0.66 0 1 0 C1 2.64 1 5.28 1 8 C0.67 8 0.34 8 0 8 C0 5.36 0 2.72 0 0 Z " fill="#F3F5F5" transform="translate(1267,66)"/>
<path d="M0 0 C0.66 0 1.32 0 2 0 C1.67 0.99 1.34 1.98 1 3 C0.34 3 -0.32 3 -1 3 C-0.67 2.01 -0.34 1.02 0 0 Z " fill="#ADAEAE" transform="translate(991,288)"/>
<path d="M0 0 C0.33 0 0.66 0 1 0 C1 2.31 1 4.62 1 7 C0.67 7 0.34 7 0 7 C0 4.69 0 2.38 0 0 Z " fill="#000002" transform="translate(732,263)"/>
<path d="M0 0 C2.31 0 4.62 0 7 0 C7 0.33 7 0.66 7 1 C4.69 1 2.38 1 0 1 C0 0.67 0 0.34 0 0 Z " fill="#F3F5F5" transform="translate(1152,212)"/>
<path d="M0 0 C2.31 0 4.62 0 7 0 C7 0.33 7 0.66 7 1 C4.69 1 2.38 1 0 1 C0 0.67 0 0.34 0 0 Z " fill="#F3F5F5" transform="translate(1028,212)"/>
<path d="M0 0 C0.66 0.33 1.32 0.66 2 1 C0.68 1.99 -0.64 2.98 -2 4 C-1.34 2.68 -0.68 1.36 0 0 Z " fill="#F3F5F5" transform="translate(270,210)"/>
<path d="M0 0 C0.33 0 0.66 0 1 0 C1 2.31 1 4.62 1 7 C0.67 7 0.34 7 0 7 C0 4.69 0 2.38 0 0 Z " fill="#454647" transform="translate(712,201)"/>
<path d="M0 0 C0.66 0.33 1.32 0.66 2 1 C0.68 1.99 -0.64 2.98 -2 4 C-1.34 2.68 -0.68 1.36 0 0 Z " fill="#F3F5F5" transform="translate(282,198)"/>
<path d="M0 0 C0.66 0.33 1.32 0.66 2 1 C0.68 1.99 -0.64 2.98 -2 4 C-1.34 2.68 -0.68 1.36 0 0 Z " fill="#F3F5F5" transform="translate(288,192)"/>
<path d="M0 0 C2.31 0 4.62 0 7 0 C7 0.33 7 0.66 7 1 C4.69 1 2.38 1 0 1 C0 0.67 0 0.34 0 0 Z " fill="#454647" transform="translate(245,164)"/>
<path d="M0 0 C0.33 0 0.66 0 1 0 C1 2.31 1 4.62 1 7 C0.67 7 0.34 7 0 7 C0 4.69 0 2.38 0 0 Z " fill="#171718" transform="translate(11,38)"/>
<path d="M0 0 C0.33 0 0.66 0 1 0 C1 1.98 1 3.96 1 6 C0.67 6 0.34 6 0 6 C0 4.02 0 2.04 0 0 Z " fill="#F3F5F5" transform="translate(594,278)"/>
<path d="M0 0 C0.33 0 0.66 0 1 0 C1 1.98 1 3.96 1 6 C0.67 6 0.34 6 0 6 C0 4.02 0 2.04 0 0 Z " fill="#F3F5F5" transform="translate(812,267)"/>
<path d="M0 0 C0.33 0 0.66 0 1 0 C1 1.98 1 3.96 1 6 C0.67 6 0.34 6 0 6 C0 4.02 0 2.04 0 0 Z " fill="#000002" transform="translate(1214,201)"/>
<path d="M0 0 C0.33 0 0.66 0 1 0 C1 1.98 1 3.96 1 6 C0.67 6 0.34 6 0 6 C0 4.02 0 2.04 0 0 Z " fill="#F3F5F5" transform="translate(526,184)"/>
<path d="M0 0 C1.98 0 3.96 0 6 0 C6 0.33 6 0.66 6 1 C4.02 1 2.04 1 0 1 C0 0.67 0 0.34 0 0 Z " fill="#000002" transform="translate(120,164)"/>
<path d="M0 0 C0.33 0 0.66 0 1 0 C1 1.98 1 3.96 1 6 C0.67 6 0.34 6 0 6 C0 4.02 0 2.04 0 0 Z " fill="#28282A" transform="translate(1033,161)"/>
<path d="M0 0 C0.33 0 0.66 0 1 0 C1 1.98 1 3.96 1 6 C0.67 6 0.34 6 0 6 C0 4.02 0 2.04 0 0 Z " fill="#F3F5F5" transform="translate(518,134)"/>
<path d="M0 0 C0.33 0 0.66 0 1 0 C1 1.65 1 3.3 1 5 C0.67 5 0.34 5 0 5 C0 3.35 0 1.7 0 0 Z " fill="#F3F5F5" transform="translate(636,279)"/>
<path d="M0 0 C0.33 0 0.66 0 1 0 C1 1.65 1 3.3 1 5 C0.67 5 0.34 5 0 5 C0 3.35 0 1.7 0 0 Z " fill="#F3F5F5" transform="translate(635,272)"/>
<path d="M0 0 C0.33 0 0.66 0 1 0 C1 1.65 1 3.3 1 5 C0.67 5 0.34 5 0 5 C0 3.35 0 1.7 0 0 Z " fill="#F3F5F5" transform="translate(1023,267)"/>
<path d="M0 0 C0.33 0 0.66 0 1 0 C1 1.65 1 3.3 1 5 C0.67 5 0.34 5 0 5 C0 3.35 0 1.7 0 0 Z " fill="#F3F5F5" transform="translate(634,265)"/>
<path d="M0 0 C1.65 0 3.3 0 5 0 C5 0.33 5 0.66 5 1 C3.35 1 1.7 1 0 1 C0 0.67 0 0.34 0 0 Z " fill="#F3F5F5" transform="translate(851,254)"/>
<path d="M0 0 C0.33 0 0.66 0 1 0 C1 1.65 1 3.3 1 5 C0.67 5 0.34 5 0 5 C0 3.35 0 1.7 0 0 Z " fill="#F3F5F5" transform="translate(632,251)"/>
<path d="M0 0 C0.33 0 0.66 0 1 0 C1 1.65 1 3.3 1 5 C0.67 5 0.34 5 0 5 C0 3.35 0 1.7 0 0 Z " fill="#F3F5F5" transform="translate(816,250)"/>
<path d="M0 0 C0.33 0 0.66 0 1 0 C1 1.65 1 3.3 1 5 C0.67 5 0.34 5 0 5 C0 3.35 0 1.7 0 0 Z " fill="#F3F5F5" transform="translate(1145,171)"/>
<path d="M0 0 C0.33 0 0.66 0 1 0 C1 1.65 1 3.3 1 5 C0.67 5 0.34 5 0 5 C0 3.35 0 1.7 0 0 Z " fill="#515151" transform="translate(850,148)"/>
<path d="M0 0 C0.33 0 0.66 0 1 0 C1 1.65 1 3.3 1 5 C0.67 5 0.34 5 0 5 C0 3.35 0 1.7 0 0 Z " fill="#F3F5F5" transform="translate(454,146)"/>
<path d="M0 0 C0.33 0 0.66 0 1 0 C1 1.65 1 3.3 1 5 C0.67 5 0.34 5 0 5 C0 3.35 0 1.7 0 0 Z " fill="#F3F5F5" transform="translate(1145,144)"/>
<path d="M0 0 C0.33 0 0.66 0 1 0 C1 1.65 1 3.3 1 5 C0.67 5 0.34 5 0 5 C0 3.35 0 1.7 0 0 Z " fill="#101011" transform="translate(721,140)"/>
<path d="M0 0 C0.66 0.33 1.32 0.66 2 1 C1.01 1.66 0.02 2.32 -1 3 C-0.67 2.01 -0.34 1.02 0 0 Z " fill="#000002" transform="translate(394,113)"/>
<path d="M0 0 C0.66 0.33 1.32 0.66 2 1 C1.01 1.66 0.02 2.32 -1 3 C-0.67 2.01 -0.34 1.02 0 0 Z " fill="#000002" transform="translate(1083,112)"/>
<path d="M0 0 C1.65 0 3.3 0 5 0 C5 0.33 5 0.66 5 1 C3.35 1 1.7 1 0 1 C0 0.67 0 0.34 0 0 Z " fill="#000002" transform="translate(1104,103)"/>
<path d="M0 0 C1.65 0 3.3 0 5 0 C5 0.33 5 0.66 5 1 C3.35 1 1.7 1 0 1 C0 0.67 0 0.34 0 0 Z " fill="#F3F5F5" transform="translate(1216,97)"/>
<path d="M0 0 C0.33 0 0.66 0 1 0 C1 1.65 1 3.3 1 5 C0.67 5 0.34 5 0 5 C0 3.35 0 1.7 0 0 Z " fill="#000002" transform="translate(1025,80)"/>
<path d="M0 0 C1.65 0 3.3 0 5 0 C5 0.33 5 0.66 5 1 C3.35 1 1.7 1 0 1 C0 0.67 0 0.34 0 0 Z " fill="#202021" transform="translate(1179,64)"/>
<path d="M0 0 C1.65 0 3.3 0 5 0 C5 0.33 5 0.66 5 1 C3.35 1 1.7 1 0 1 C0 0.67 0 0.34 0 0 Z " fill="#404041" transform="translate(1172,64)"/>
<path d="M0 0 C1 4 1 4 1 4 Z " fill="#282829" transform="translate(11,322)"/>
<path d="M0 0 C1 4 1 4 1 4 Z " fill="#F3F5F5" transform="translate(1027,285)"/>
<path d="M0 0 C1 4 1 4 1 4 Z " fill="#F3F5F5" transform="translate(637,285)"/>
<path d="M0 0 C1 4 1 4 1 4 Z " fill="#F3F5F5" transform="translate(595,270)"/>
<path d="M0 0 C1 4 1 4 1 4 Z " fill="#000002" transform="translate(732,257)"/>
<path d="M0 0 C1 4 1 4 1 4 Z " fill="#000002" transform="translate(835,256)"/>
<path d="M0 0 C4 1 4 1 4 1 Z " fill="#F3F5F5" transform="translate(928,254)"/>
<path d="M0 0 C1 4 1 4 1 4 Z " fill="#F3F5F5" transform="translate(1027,250)"/>
<path d="M0 0 C0.66 0.33 1.32 0.66 2 1 C1.01 1 0.02 1 -1 1 C-0.67 0.67 -0.34 0.34 0 0 Z " fill="#000002" transform="translate(970,177)"/>
<path d="M0 0 C1 4 1 4 1 4 Z " fill="#000002" transform="translate(786,175)"/>
<path d="M0 0 C1 4 1 4 1 4 Z " fill="#000002" transform="translate(973,172)"/>
<path d="M0 0 C1 4 1 4 1 4 Z " fill="#F3F5F5" transform="translate(1033,169)"/>
<path d="M0 0 C1 4 1 4 1 4 Z " fill="#000002" transform="translate(850,159)"/>
<path d="M0 0 C0.66 0.33 1.32 0.66 2 1 C1.01 1 0.02 1 -1 1 C-0.67 0.67 -0.34 0.34 0 0 Z " fill="#000002" transform="translate(1087,109)"/>
<path d="M0 0 C4 1 4 1 4 1 Z " fill="#F3F5F5" transform="translate(1181,105)"/>
<path d="M0 0 C4 1 4 1 4 1 Z " fill="#000002" transform="translate(957,103)"/>
<path d="M0 0 C4 1 4 1 4 1 Z " fill="#F3F5F5" transform="translate(1028,97)"/>
<path d="M0 0 C4 1 4 1 4 1 Z " fill="#F3F5F5" transform="translate(533,97)"/>
<path d="M0 0 C1 4 1 4 1 4 Z " fill="#F3F5F5" transform="translate(1198,88)"/>
<path d="M0 0 C0.99 0.5 0.99 0.5 2 1 C1.01 1.5 1.01 1.5 0 2 C0 1.34 0 0.68 0 0 Z " fill="#BDBEBE" transform="translate(865,287)"/>
<path d="M0 0 C0.99 0.5 0.99 0.5 2 1 C1.01 1.5 1.01 1.5 0 2 C0 1.34 0 0.68 0 0 Z " fill="#BDBEBE" transform="translate(674,287)"/>
<path d="M0 0 C0.33 0.66 0.66 1.32 1 2 C0.34 1.67 -0.32 1.34 -1 1 C-0.67 0.67 -0.34 0.34 0 0 Z " fill="#F3F5F5" transform="translate(593,288)"/>
<path d="M0 0 C0.99 0.5 0.99 0.5 2 1 C1.01 1.5 1.01 1.5 0 2 C0 1.34 0 0.68 0 0 Z " fill="#F3F5F5" transform="translate(723,286)"/>
<path d="M0 0 C0.33 0.66 0.66 1.32 1 2 C0.34 1.67 -0.32 1.34 -1 1 C-0.67 0.67 -0.34 0.34 0 0 Z " fill="#F3F5F5" transform="translate(705,282)"/>
<path d="M0 0 C0.99 0.5 0.99 0.5 2 1 C1.01 1.5 1.01 1.5 0 2 C0 1.34 0 0.68 0 0 Z " fill="#F3F5F5" transform="translate(680,282)"/>
<path d="M0 0 C0.99 0.5 0.99 0.5 2 1 C1.01 1.5 1.01 1.5 0 2 C0 1.34 0 0.68 0 0 Z " fill="#000002" transform="translate(934,281)"/>
<path d="M0 0 C3 1 3 1 3 1 Z " fill="#F3F5F5" transform="translate(849,274)"/>
<path d="M0 0 C0.33 0.66 0.66 1.32 1 2 C0.34 1.67 -0.32 1.34 -1 1 C-0.67 0.67 -0.34 0.34 0 0 Z " fill="#F3F5F5" transform="translate(725,262)"/>
<path d="" fill="#F3F5F5" transform="translate(0,0)"/>
<path d="" fill="#F3F5F5" transform="translate(0,0)"/>
<path d="" fill="#000002" transform="translate(0,0)"/>
<path d="" fill="#BDBEBE" transform="translate(0,0)"/>
<path d="M0 0 C0.99 0.5 0.99 0.5 2 1 C1.01 1.5 1.01 1.5 0 2 C0 1.34 0 0.68 0 0 Z " fill="#000002" transform="translate(645,253)"/>
<path d="" fill="#515151" transform="translate(0,0)"/>
<path d="M0 0 C0.99 0.5 0.99 0.5 2 1 C1.01 1.5 1.01 1.5 0 2 C0 1.34 0 0.68 0 0 Z " fill="#000002" transform="translate(786,248)"/>
<path d="M0 0 C0.99 0.5 0.99 0.5 2 1 C1.01 1.5 1.01 1.5 0 2 C0 1.34 0 0.68 0 0 Z " fill="#515153" transform="translate(752,248)"/>
<path d="M0 0 C0.99 0.5 0.99 0.5 2 1 C1.01 1.5 1.01 1.5 0 2 C0 1.34 0 0.68 0 0 Z " fill="#F3F5F5" transform="translate(243,237)"/>
<path d="M0 0 C3 1 3 1 3 1 Z " fill="#F3F5F5" transform="translate(1116,213)"/>
<path d="M0 0 C3 1 3 1 3 1 Z " fill="#F3F5F5" transform="translate(978,213)"/>
<path d="M0 0 C3 1 3 1 3 1 Z " fill="#BDBEBE" transform="translate(945,212)"/>
<path d="M0 0 C3 1 3 1 3 1 Z " fill="#F3F5F5" transform="translate(845,212)"/>
<path d="M0 0 C3 1 3 1 3 1 Z " fill="#F3F5F5" transform="translate(468,212)"/>
<path d="M0 0 C3 1 3 1 3 1 Z " fill="#F3F5F5" transform="translate(338,212)"/>
<path d="" fill="#A2A3A4" transform="translate(0,0)"/>
<path d="M0 0 C0.99 0.5 0.99 0.5 2 1 C1.01 1.5 1.01 1.5 0 2 C0 1.34 0 0.68 0 0 Z " fill="#F3F5F5" transform="translate(1002,203)"/>
<path d="" fill="#F3F5F5" transform="translate(0,0)"/>
<path d="" fill="#BDBEBE" transform="translate(0,0)"/>
<path d="M0 0 C0.99 0.5 0.99 0.5 2 1 C1.01 1.5 1.01 1.5 0 2 C0 1.34 0 0.68 0 0 Z " fill="#F3F5F5" transform="translate(297,183)"/>
<path d="M0 0 C0.99 0.5 0.99 0.5 2 1 C1.01 1.5 1.01 1.5 0 2 C0 1.34 0 0.68 0 0 Z " fill="#F3F5F5" transform="translate(299,181)"/>
<path d="" fill="#000002" transform="translate(0,0)"/>
<path d="" fill="#BDBEBE" transform="translate(0,0)"/>
<path d="" fill="#363636" transform="translate(0,0)"/>
<path d="M0 0 C0.99 0.5 0.99 0.5 2 1 C1.01 1.5 1.01 1.5 0 2 C0 1.34 0 0.68 0 0 Z " fill="#BDBEBE" transform="translate(633,148)"/>
<path d="" fill="#F3F5F5" transform="translate(0,0)"/>
<path d="" fill="#F3F5F5" transform="translate(0,0)"/>
<path d="M0 0 C0.99 0.5 0.99 0.5 2 1 C1.01 1.5 1.01 1.5 0 2 C0 1.34 0 0.68 0 0 Z " fill="#000002" transform="translate(836,113)"/>
<path d="M0 0 C3 1 3 1 3 1 Z " fill="#000002" transform="translate(861,103)"/>
<path d="M0 0 C3 1 3 1 3 1 Z " fill="#F3F5F5" transform="translate(1160,97)"/>
<path d="M0 0 C3 1 3 1 3 1 Z " fill="#F3F5F5" transform="translate(212,85)"/>
<path d="M0 0 C3 1 3 1 3 1 Z " fill="#000002" transform="translate(532,64)"/>
<path d="" fill="#F3F5F5" transform="translate(0,0)"/>
<path d="M0 0 C2 1 2 1 2 1 Z " fill="#000002" transform="translate(152,307)"/>
<path d="M0 0 C2 1 2 1 2 1 Z " fill="#000002" transform="translate(51,307)"/>
<path d="M0 0 C2 1 2 1 2 1 Z " fill="#000002" transform="translate(41,307)"/>
<path d="M0 0 C2 1 2 1 2 1 Z " fill="#F3F5F5" transform="translate(1017,290)"/>
<path d="M0 0 C2 1 2 1 2 1 Z " fill="#F3F5F5" transform="translate(862,289)"/>
<path d="M0 0 C2 1 2 1 2 1 Z " fill="#F3F5F5" transform="translate(787,289)"/>
<path d="M0 0 C2 1 2 1 2 1 Z " fill="#F3F5F5" transform="translate(734,289)"/>
<path d="M0 0 C2 1 2 1 2 1 Z " fill="#A2A3A3" transform="translate(718,289)"/>
<path d="M0 0 C2 1 2 1 2 1 Z " fill="#F3F5F5" transform="translate(654,289)"/>
<path d="" fill="#A2A3A3" transform="translate(0,0)"/>
<path d="M0 0 C2 1 2 1 2 1 Z " fill="#A2A3A3" transform="translate(918,288)"/>
<path d="" fill="#F3F5F5" transform="translate(0,0)"/>
<path d="M0 0 C2 1 2 1 2 1 Z " fill="#A2A3A3" transform="translate(916,287)"/>
<path d="M0 0 C2 1 2 1 2 1 Z " fill="#A2A3A3" transform="translate(650,287)"/>
<path d="" fill="#F3F5F5" transform="translate(0,0)"/>
<path d="" fill="#A2A3A3" transform="translate(0,0)"/>
<path d="" fill="#F3F5F5" transform="translate(0,0)"/>
<path d="" fill="#000002" transform="translate(0,0)"/>
<path d="" fill="#000002" transform="translate(0,0)"/>
<path d="" fill="#A2A3A3" transform="translate(0,0)"/>
<path d="M0 0 C2 1 2 1 2 1 Z " fill="#F3F5F5" transform="translate(854,275)"/>
<path d="" fill="#F3F5F5" transform="translate(0,0)"/>
<path d="" fill="#000002" transform="translate(0,0)"/>
<path d="" fill="#F3F5F5" transform="translate(0,0)"/>
<path d="" fill="#F3F5F5" transform="translate(0,0)"/>
<path d="" fill="#F3F5F5" transform="translate(0,0)"/>
<path d="M0 0 C2 1 2 1 2 1 Z " fill="#000002" transform="translate(975,268)"/>
<path d="" fill="#F3F5F5" transform="translate(0,0)"/>
<path d="" fill="#F3F5F5" transform="translate(0,0)"/>
<path d="" fill="#F3F5F5" transform="translate(0,0)"/>
<path d="" fill="#F3F5F5" transform="translate(0,0)"/>
<path d="M0 0 C2 1 2 1 2 1 Z " fill="#797A7B" transform="translate(801,265)"/>
<path d="" fill="#F3F5F5" transform="translate(0,0)"/>
<path d="M0 0 C2 1 2 1 2 1 Z " fill="#000002" transform="translate(710,263)"/>
<path d="" fill="#F3F5F5" transform="translate(0,0)"/>
<path d="" fill="#F3F5F5" transform="translate(0,0)"/>
<path d="" fill="#F3F5F5" transform="translate(0,0)"/>
<path d="" fill="#F3F5F5" transform="translate(0,0)"/>
<path d="" fill="#515151" transform="translate(0,0)"/>
<path d="" fill="#F3F5F5" transform="translate(0,0)"/>
<path d="" fill="#F3F5F5" transform="translate(0,0)"/>
<path d="" fill="#000002" transform="translate(0,0)"/>
<path d="" fill="#F3F5F5" transform="translate(0,0)"/>
<path d="" fill="#000002" transform="translate(0,0)"/>
<path d="M0 0 C2 1 2 1 2 1 Z " fill="#F3F5F5" transform="translate(663,254)"/>
<path d="" fill="#F3F5F5" transform="translate(0,0)"/>
<path d="M0 0 C2 1 2 1 2 1 Z " fill="#F3F5F5" transform="translate(983,212)"/>
<path d="M0 0 C2 1 2 1 2 1 Z " fill="#F3F5F5" transform="translate(781,212)"/>
<path d="M0 0 C2 1 2 1 2 1 Z " fill="#F3F5F5" transform="translate(772,212)"/>
<path d="M0 0 C2 1 2 1 2 1 Z " fill="#F3F5F5" transform="translate(721,212)"/>
<path d="M0 0 C2 1 2 1 2 1 Z " fill="#F3F5F5" transform="translate(716,212)"/>
<path d="M0 0 C2 1 2 1 2 1 Z " fill="#F3F5F5" transform="translate(608,212)"/>
<path d="M0 0 C2 1 2 1 2 1 Z " fill="#F3F5F5" transform="translate(582,212)"/>
<path d="M0 0 C2 1 2 1 2 1 Z " fill="#F3F5F5" transform="translate(404,212)"/>
<path d="M0 0 C2 1 2 1 2 1 Z " fill="#A2A3A3" transform="translate(1122,211)"/>
<path d="" fill="#F3F5F5" transform="translate(0,0)"/>
<path d="M0 0 C2 1 2 1 2 1 Z " fill="#F3F5F5" transform="translate(987,211)"/>
<path d="" fill="#F3F5F5" transform="translate(0,0)"/>
<path d="M0 0 C2 1 2 1 2 1 Z " fill="#F3F5F5" transform="translate(939,210)"/>
<path d="M0 0 C2 1 2 1 2 1 Z " fill="#F3F5F5" transform="translate(996,207)"/>
<path d="M0 0 C2 1 2 1 2 1 Z " fill="#A2A3A3" transform="translate(1131,205)"/>
<path d="" fill="#000002" transform="translate(0,0)"/>
<path d="" fill="#F3F5F5" transform="translate(0,0)"/>
<path d="" fill="#F3F5F5" transform="translate(0,0)"/>
<path d="" fill="#F3F5F5" transform="translate(0,0)"/>
<path d="" fill="#000002" transform="translate(0,0)"/>
<path d="" fill="#F3F5F5" transform="translate(0,0)"/>
<path d="" fill="#000002" transform="translate(0,0)"/>
<path d="" fill="#F3F5F5" transform="translate(0,0)"/>
<path d="" fill="#F3F5F5" transform="translate(0,0)"/>
<path d="" fill="#000002" transform="translate(0,0)"/>
<path d="" fill="#515151" transform="translate(0,0)"/>
<path d="" fill="#F3F5F5" transform="translate(0,0)"/>
<path d="" fill="#F3F5F5" transform="translate(0,0)"/>
<path d="" fill="#F3F5F5" transform="translate(0,0)"/>
<path d="" fill="#F3F5F5" transform="translate(0,0)"/>
<path d="" fill="#000002" transform="translate(0,0)"/>
<path d="" fill="#F3F5F5" transform="translate(0,0)"/>
<path d="" fill="#F3F5F5" transform="translate(0,0)"/>
<path d="" fill="#000002" transform="translate(0,0)"/>
<path d="M0 0 C2 1 2 1 2 1 Z " fill="#000002" transform="translate(831,118)"/>
<path d="" fill="#A2A3A3" transform="translate(0,0)"/>
<path d="M0 0 C2 1 2 1 2 1 Z " fill="#000002" transform="translate(774,111)"/>
<path d="M0 0 C2 1 2 1 2 1 Z " fill="#000002" transform="translate(397,111)"/>
<path d="M0 0 C2 1 2 1 2 1 Z " fill="#000002" transform="translate(845,107)"/>
<path d="M0 0 C2 1 2 1 2 1 Z " fill="#000002" transform="translate(468,107)"/>
<path d="M0 0 C2 1 2 1 2 1 Z " fill="#F3F5F5" transform="translate(1197,105)"/>
<path d="M0 0 C2 1 2 1 2 1 Z " fill="#F3F5F5" transform="translate(1169,105)"/>
<path d="M0 0 C2 1 2 1 2 1 Z " fill="#000002" transform="translate(964,103)"/>
<path d="M0 0 C2 1 2 1 2 1 Z " fill="#000002" transform="translate(484,103)"/>
<path d="M0 0 C2 1 2 1 2 1 Z " fill="#000002" transform="translate(416,103)"/>
<path d="" fill="#000002" transform="translate(0,0)"/>
<path d="M0 0 C2 1 2 1 2 1 Z " fill="#F3F5F5" transform="translate(206,85)"/>
<path d="" fill="#F3F5F5" transform="translate(0,0)"/>
<path d="" fill="#000002" transform="translate(0,0)"/>
<path d="" fill="#797A7B" transform="translate(0,0)"/>
<path d="" fill="#F3F5F5" transform="translate(0,0)"/>
<path d="" fill="#000002" transform="translate(0,0)"/>
<path d="" fill="#000002" transform="translate(0,0)"/>
<path d="" fill="#F3F5F5" transform="translate(0,0)"/>
<path d="M0 0 C2 1 2 1 2 1 Z " fill="#000002" transform="translate(12,21)"/>
<path d="" fill="#000002" transform="translate(0,0)"/>
<path d="" fill="#000002" transform="translate(0,0)"/>
<path d="" fill="#F3F5F5" transform="translate(0,0)"/>
<path d="" fill="#515151" transform="translate(0,0)"/>
<path d="" fill="#F3F5F5" transform="translate(0,0)"/>
<path d="" fill="#515151" transform="translate(0,0)"/>
<path d="" fill="#F3F5F5" transform="translate(0,0)"/>
<path d="" fill="#F3F5F5" transform="translate(0,0)"/>
<path d="" fill="#515151" transform="translate(0,0)"/>
<path d="" fill="#515151" transform="translate(0,0)"/>
<path d="" fill="#515151" transform="translate(0,0)"/>
<path d="" fill="#F3F5F5" transform="translate(0,0)"/>
<path d="" fill="#F3F5F5" transform="translate(0,0)"/>
<path d="" fill="#F3F5F5" transform="translate(0,0)"/>
<path d="" fill="#F3F5F5" transform="translate(0,0)"/>
<path d="" fill="#F3F5F5" transform="translate(0,0)"/>
<path d="" fill="#F3F5F5" transform="translate(0,0)"/>
<path d="" fill="#F3F5F5" transform="translate(0,0)"/>
<path d="" fill="#515151" transform="translate(0,0)"/>
<path d="" fill="#F3F5F5" transform="translate(0,0)"/>
<path d="" fill="#F3F5F5" transform="translate(0,0)"/>
<path d="" fill="#000002" transform="translate(0,0)"/>
<path d="" fill="#515151" transform="translate(0,0)"/>
<path d="" fill="#515151" transform="translate(0,0)"/>
<path d="" fill="#F3F5F5" transform="translate(0,0)"/>
<path d="" fill="#F3F5F5" transform="translate(0,0)"/>
<path d="" fill="#515151" transform="translate(0,0)"/>
<path d="" fill="#F3F5F5" transform="translate(0,0)"/>
<path d="" fill="#F3F5F5" transform="translate(0,0)"/>
<path d="" fill="#515151" transform="translate(0,0)"/>
<path d="" fill="#000002" transform="translate(0,0)"/>
<path d="" fill="#F3F5F5" transform="translate(0,0)"/>
<path d="" fill="#F3F5F5" transform="translate(0,0)"/>
<path d="" fill="#000002" transform="translate(0,0)"/>
<path d="" fill="#000002" transform="translate(0,0)"/>
<path d="" fill="#F3F5F5" transform="translate(0,0)"/>
<path d="" fill="#000002" transform="translate(0,0)"/>
<path d="" fill="#000002" transform="translate(0,0)"/>
<path d="" fill="#F3F5F5" transform="translate(0,0)"/>
<path d="" fill="#000002" transform="translate(0,0)"/>
<path d="" fill="#F3F5F5" transform="translate(0,0)"/>
<path d="" fill="#000002" transform="translate(0,0)"/>
<path d="" fill="#F3F5F5" transform="translate(0,0)"/>
<path d="" fill="#000002" transform="translate(0,0)"/>
<path d="" fill="#F3F5F5" transform="translate(0,0)"/>
<path d="" fill="#F3F5F5" transform="translate(0,0)"/>
<path d="" fill="#F3F5F5" transform="translate(0,0)"/>
<path d="" fill="#F3F5F5" transform="translate(0,0)"/>
<path d="" fill="#F3F5F5" transform="translate(0,0)"/>
<path d="" fill="#F3F5F5" transform="translate(0,0)"/>
<path d="" fill="#F3F5F5" transform="translate(0,0)"/>
<path d="" fill="#F3F5F5" transform="translate(0,0)"/>
<path d="" fill="#F3F5F5" transform="translate(0,0)"/>
<path d="" fill="#F3F5F5" transform="translate(0,0)"/>
<path d="" fill="#F3F5F5" transform="translate(0,0)"/>
<path d="" fill="#F3F5F5" transform="translate(0,0)"/>
<path d="" fill="#F3F5F5" transform="translate(0,0)"/>
<path d="" fill="#515151" transform="translate(0,0)"/>
<path d="" fill="#515151" transform="translate(0,0)"/>
<path d="" fill="#515151" transform="translate(0,0)"/>
<path d="" fill="#F3F5F5" transform="translate(0,0)"/>
<path d="" fill="#F3F5F5" transform="translate(0,0)"/>
<path d="" fill="#000002" transform="translate(0,0)"/>
<path d="" fill="#F3F5F5" transform="translate(0,0)"/>
<path d="" fill="#F3F5F5" transform="translate(0,0)"/>
<path d="" fill="#F3F5F5" transform="translate(0,0)"/>
<path d="" fill="#F3F5F5" transform="translate(0,0)"/>
<path d="" fill="#F3F5F5" transform="translate(0,0)"/>
<path d="" fill="#F3F5F5" transform="translate(0,0)"/>
<path d="" fill="#F3F5F5" transform="translate(0,0)"/>
<path d="" fill="#515151" transform="translate(0,0)"/>
<path d="" fill="#F3F5F5" transform="translate(0,0)"/>
<path d="" fill="#F3F5F5" transform="translate(0,0)"/>
<path d="" fill="#F3F5F5" transform="translate(0,0)"/>
<path d="" fill="#000002" transform="translate(0,0)"/>
<path d="" fill="#000002" transform="translate(0,0)"/>
<path d="" fill="#F3F5F5" transform="translate(0,0)"/>
<path d="" fill="#F3F5F5" transform="translate(0,0)"/>
<path d="" fill="#F3F5F5" transform="translate(0,0)"/>
<path d="" fill="#F3F5F5" transform="translate(0,0)"/>
<path d="" fill="#F3F5F5" transform="translate(0,0)"/>
<path d="" fill="#F3F5F5" transform="translate(0,0)"/>
<path d="" fill="#F3F5F5" transform="translate(0,0)"/>
<path d="" fill="#000002" transform="translate(0,0)"/>
<path d="" fill="#F3F5F5" transform="translate(0,0)"/>
<path d="" fill="#F3F5F5" transform="translate(0,0)"/>
<path d="" fill="#000002" transform="translate(0,0)"/>
<path d="" fill="#F3F5F5" transform="translate(0,0)"/>
<path d="" fill="#F3F5F5" transform="translate(0,0)"/>
<path d="" fill="#F3F5F5" transform="translate(0,0)"/>
<path d="" fill="#000002" transform="translate(0,0)"/>
<path d="" fill="#000002" transform="translate(0,0)"/>
<path d="" fill="#000002" transform="translate(0,0)"/>
<path d="" fill="#000002" transform="translate(0,0)"/>
<path d="" fill="#000002" transform="translate(0,0)"/>
<path d="" fill="#000002" transform="translate(0,0)"/>
<path d="" fill="#000002" transform="translate(0,0)"/>
<path d="" fill="#000002" transform="translate(0,0)"/>
<path d="" fill="#F3F5F5" transform="translate(0,0)"/>
<path d="" fill="#000002" transform="translate(0,0)"/>
<path d="" fill="#F3F5F5" transform="translate(0,0)"/>
<path d="" fill="#515151" transform="translate(0,0)"/>
<path d="" fill="#F3F5F5" transform="translate(0,0)"/>
<path d="" fill="#F3F5F5" transform="translate(0,0)"/>
<path d="" fill="#F3F5F5" transform="translate(0,0)"/>
<path d="" fill="#F3F5F5" transform="translate(0,0)"/>
<path d="" fill="#F3F5F5" transform="translate(0,0)"/>
<path d="" fill="#F3F5F5" transform="translate(0,0)"/>
<path d="" fill="#F3F5F5" transform="translate(0,0)"/>
<path d="" fill="#F3F5F5" transform="translate(0,0)"/>
<path d="" fill="#F3F5F5" transform="translate(0,0)"/>
<path d="" fill="#F3F5F5" transform="translate(0,0)"/>
<path d="" fill="#F3F5F5" transform="translate(0,0)"/>
<path d="" fill="#F3F5F5" transform="translate(0,0)"/>
<path d="" fill="#F3F5F5" transform="translate(0,0)"/>
<path d="" fill="#F3F5F5" transform="translate(0,0)"/>
<path d="" fill="#F3F5F5" transform="translate(0,0)"/>
<path d="" fill="#F3F5F5" transform="translate(0,0)"/>
<path d="" fill="#F3F5F5" transform="translate(0,0)"/>
<path d="" fill="#F3F5F5" transform="translate(0,0)"/>
<path d="" fill="#F3F5F5" transform="translate(0,0)"/>
<path d="" fill="#F3F5F5" transform="translate(0,0)"/>
<path d="" fill="#F3F5F5" transform="translate(0,0)"/>
<path d="" fill="#F3F5F5" transform="translate(0,0)"/>
<path d="" fill="#F3F5F5" transform="translate(0,0)"/>
<path d="" fill="#F3F5F5" transform="translate(0,0)"/>
<path d="" fill="#F3F5F5" transform="translate(0,0)"/>
<path d="" fill="#F3F5F5" transform="translate(0,0)"/>
<path d="" fill="#F3F5F5" transform="translate(0,0)"/>
<path d="" fill="#F3F5F5" transform="translate(0,0)"/>
<path d="" fill="#F3F5F5" transform="translate(0,0)"/>
<path d="" fill="#F3F5F5" transform="translate(0,0)"/>
<path d="" fill="#F3F5F5" transform="translate(0,0)"/>
<path d="" fill="#515151" transform="translate(0,0)"/>
<path d="" fill="#515151" transform="translate(0,0)"/>
<path d="" fill="#515151" transform="translate(0,0)"/>
<path d="" fill="#F3F5F5" transform="translate(0,0)"/>
<path d="" fill="#F3F5F5" transform="translate(0,0)"/>
<path d="" fill="#F3F5F5" transform="translate(0,0)"/>
<path d="" fill="#F3F5F5" transform="translate(0,0)"/>
<path d="" fill="#F3F5F5" transform="translate(0,0)"/>
<path d="" fill="#F3F5F5" transform="translate(0,0)"/>
<path d="" fill="#F3F5F5" transform="translate(0,0)"/>
<path d="" fill="#F3F5F5" transform="translate(0,0)"/>
<path d="" fill="#F3F5F5" transform="translate(0,0)"/>
<path d="" fill="#F3F5F5" transform="translate(0,0)"/>
<path d="" fill="#515151" transform="translate(0,0)"/>
<path d="" fill="#515151" transform="translate(0,0)"/>
<path d="" fill="#F3F5F5" transform="translate(0,0)"/>
<path d="" fill="#515151" transform="translate(0,0)"/>
<path d="" fill="#F3F5F5" transform="translate(0,0)"/>
<path d="" fill="#F3F5F5" transform="translate(0,0)"/>
<path d="" fill="#F3F5F5" transform="translate(0,0)"/>
<path d="" fill="#F3F5F5" transform="translate(0,0)"/>
<path d="" fill="#F3F5F5" transform="translate(0,0)"/>
<path d="" fill="#F3F5F5" transform="translate(0,0)"/>
<path d="" fill="#F3F5F5" transform="translate(0,0)"/>
<path d="" fill="#F3F5F5" transform="translate(0,0)"/>
<path d="" fill="#F3F5F5" transform="translate(0,0)"/>
<path d="" fill="#515151" transform="translate(0,0)"/>
<path d="" fill="#F3F5F5" transform="translate(0,0)"/>
<path d="" fill="#F3F5F5" transform="translate(0,0)"/>
<path d="" fill="#515151" transform="translate(0,0)"/>
<path d="" fill="#515151" transform="translate(0,0)"/>
<path d="" fill="#515151" transform="translate(0,0)"/>
<path d="" fill="#515151" transform="translate(0,0)"/>
<path d="" fill="#F3F5F5" transform="translate(0,0)"/>
<path d="" fill="#515151" transform="translate(0,0)"/>
<path d="" fill="#F3F5F5" transform="translate(0,0)"/>
<path d="" fill="#515151" transform="translate(0,0)"/>
<path d="" fill="#F3F5F5" transform="translate(0,0)"/>
<path d="" fill="#F3F5F5" transform="translate(0,0)"/>
<path d="" fill="#F3F5F5" transform="translate(0,0)"/>
<path d="" fill="#F3F5F5" transform="translate(0,0)"/>
<path d="" fill="#F3F5F5" transform="translate(0,0)"/>
<path d="" fill="#F3F5F5" transform="translate(0,0)"/>
<path d="" fill="#F3F5F5" transform="translate(0,0)"/>
<path d="" fill="#F3F5F5" transform="translate(0,0)"/>
<path d="" fill="#515151" transform="translate(0,0)"/>
<path d="" fill="#F3F5F5" transform="translate(0,0)"/>
<path d="" fill="#F3F5F5" transform="translate(0,0)"/>
<path d="" fill="#F3F5F5" transform="translate(0,0)"/>
<path d="" fill="#F3F5F5" transform="translate(0,0)"/>
<path d="" fill="#F3F5F5" transform="translate(0,0)"/>
<path d="" fill="#F3F5F5" transform="translate(0,0)"/>
<path d="" fill="#F3F5F5" transform="translate(0,0)"/>
<path d="" fill="#F3F5F5" transform="translate(0,0)"/>
<path d="" fill="#000002" transform="translate(0,0)"/>
<path d="" fill="#F3F5F5" transform="translate(0,0)"/>
<path d="" fill="#000002" transform="translate(0,0)"/>
<path d="" fill="#F3F5F5" transform="translate(0,0)"/>
<path d="" fill="#000002" transform="translate(0,0)"/>
<path d="" fill="#F3F5F5" transform="translate(0,0)"/>
<path d="" fill="#000002" transform="translate(0,0)"/>
<path d="" fill="#F3F5F5" transform="translate(0,0)"/>
<path d="" fill="#F3F5F5" transform="translate(0,0)"/>
<path d="" fill="#000002" transform="translate(0,0)"/>
<path d="" fill="#F3F5F5" transform="translate(0,0)"/>
<path d="" fill="#F3F5F5" transform="translate(0,0)"/>
<path d="" fill="#F3F5F5" transform="translate(0,0)"/>
<path d="" fill="#515151" transform="translate(0,0)"/>
<path d="" fill="#515151" transform="translate(0,0)"/>
<path d="" fill="#515151" transform="translate(0,0)"/>
<path d="" fill="#F3F5F5" transform="translate(0,0)"/>
<path d="" fill="#F3F5F5" transform="translate(0,0)"/>
<path d="" fill="#F3F5F5" transform="translate(0,0)"/>
<path d="" fill="#F3F5F5" transform="translate(0,0)"/>
<path d="" fill="#F3F5F5" transform="translate(0,0)"/>
<path d="" fill="#F3F5F5" transform="translate(0,0)"/>
<path d="" fill="#515151" transform="translate(0,0)"/>
<path d="" fill="#F3F5F5" transform="translate(0,0)"/>
<path d="" fill="#515151" transform="translate(0,0)"/>
<path d="" fill="#F3F5F5" transform="translate(0,0)"/>
<path d="" fill="#F3F5F5" transform="translate(0,0)"/>
<path d="" fill="#F3F5F5" transform="translate(0,0)"/>
<path d="" fill="#515151" transform="translate(0,0)"/>
<path d="" fill="#515151" transform="translate(0,0)"/>
<path d="" fill="#F3F5F5" transform="translate(0,0)"/>
<path d="" fill="#F3F5F5" transform="translate(0,0)"/>
<path d="" fill="#F3F5F5" transform="translate(0,0)"/>
<path d="" fill="#F3F5F5" transform="translate(0,0)"/>
<path d="" fill="#F3F5F5" transform="translate(0,0)"/>
<path d="" fill="#F3F5F5" transform="translate(0,0)"/>
<path d="" fill="#F3F5F5" transform="translate(0,0)"/>
<path d="" fill="#F3F5F5" transform="translate(0,0)"/>
<path d="" fill="#F3F5F5" transform="translate(0,0)"/>
<path d="" fill="#F3F5F5" transform="translate(0,0)"/>
<path d="" fill="#F3F5F5" transform="translate(0,0)"/>
<path d="" fill="#F3F5F5" transform="translate(0,0)"/>
<path d="" fill="#F3F5F5" transform="translate(0,0)"/>
<path d="" fill="#F3F5F5" transform="translate(0,0)"/>
<path d="" fill="#F3F5F5" transform="translate(0,0)"/>
<path d="" fill="#F3F5F5" transform="translate(0,0)"/>
<path d="" fill="#515151" transform="translate(0,0)"/>
<path d="" fill="#515151" transform="translate(0,0)"/>
<path d="" fill="#F3F5F5" transform="translate(0,0)"/>
<path d="" fill="#000002" transform="translate(0,0)"/>
<path d="" fill="#F3F5F5" transform="translate(0,0)"/>
<path d="" fill="#F3F5F5" transform="translate(0,0)"/>
<path d="" fill="#000002" transform="translate(0,0)"/>
<path d="" fill="#F3F5F5" transform="translate(0,0)"/>
<path d="" fill="#000002" transform="translate(0,0)"/>
<path d="" fill="#F3F5F5" transform="translate(0,0)"/>
<path d="" fill="#000002" transform="translate(0,0)"/>
<path d="" fill="#F3F5F5" transform="translate(0,0)"/>
<path d="" fill="#F3F5F5" transform="translate(0,0)"/>
<path d="" fill="#F3F5F5" transform="translate(0,0)"/>
<path d="" fill="#000002" transform="translate(0,0)"/>
<path d="" fill="#000002" transform="translate(0,0)"/>
<path d="" fill="#000002" transform="translate(0,0)"/>
<path d="" fill="#F3F5F5" transform="translate(0,0)"/>
<path d="" fill="#000002" transform="translate(0,0)"/>
<path d="" fill="#F3F5F5" transform="translate(0,0)"/>
<path d="" fill="#F3F5F5" transform="translate(0,0)"/>
<path d="" fill="#F3F5F5" transform="translate(0,0)"/>
<path d="" fill="#000002" transform="translate(0,0)"/>
<path d="" fill="#F3F5F5" transform="translate(0,0)"/>
<path d="" fill="#F3F5F5" transform="translate(0,0)"/>
<path d="" fill="#F3F5F5" transform="translate(0,0)"/>
<path d="" fill="#000002" transform="translate(0,0)"/>
<path d="" fill="#F3F5F5" transform="translate(0,0)"/>
<path d="" fill="#F3F5F5" transform="translate(0,0)"/>
<path d="" fill="#F3F5F5" transform="translate(0,0)"/>
<path d="" fill="#000002" transform="translate(0,0)"/>
<path d="" fill="#F3F5F5" transform="translate(0,0)"/>
<path d="" fill="#515151" transform="translate(0,0)"/>
<path d="" fill="#F3F5F5" transform="translate(0,0)"/>
<path d="" fill="#000002" transform="translate(0,0)"/>
<path d="" fill="#000002" transform="translate(0,0)"/>
<path d="" fill="#000002" transform="translate(0,0)"/>
<path d="" fill="#F3F5F5" transform="translate(0,0)"/>
<path d="" fill="#000002" transform="translate(0,0)"/>
<path d="" fill="#000002" transform="translate(0,0)"/>
<path d="" fill="#000002" transform="translate(0,0)"/>
<path d="" fill="#000002" transform="translate(0,0)"/>
<path d="" fill="#000002" transform="translate(0,0)"/>
<path d="" fill="#000002" transform="translate(0,0)"/>
<path d="" fill="#000002" transform="translate(0,0)"/>
<path d="" fill="#000002" transform="translate(0,0)"/>
<path d="" fill="#000002" transform="translate(0,0)"/>
<path d="" fill="#000002" transform="translate(0,0)"/>
<path d="" fill="#000002" transform="translate(0,0)"/>
<path d="" fill="#F3F5F5" transform="translate(0,0)"/>
<path d="" fill="#000002" transform="translate(0,0)"/>
<path d="" fill="#000002" transform="translate(0,0)"/>
<path d="" fill="#515151" transform="translate(0,0)"/>
<path d="" fill="#000002" transform="translate(0,0)"/>
<path d="" fill="#F3F5F5" transform="translate(0,0)"/>
<path d="" fill="#F3F5F5" transform="translate(0,0)"/>
<path d="" fill="#F3F5F5" transform="translate(0,0)"/>
<path d="" fill="#000002" transform="translate(0,0)"/>
<path d="" fill="#F3F5F5" transform="translate(0,0)"/>
<path d="" fill="#F3F5F5" transform="translate(0,0)"/>
<path d="" fill="#000002" transform="translate(0,0)"/>
<path d="" fill="#F3F5F5" transform="translate(0,0)"/>
</svg>
