<?xml version="1.0" encoding="UTF-8"?>
<!DOCTYPE svg PUBLIC "-//W3C//DTD SVG 1.1//EN" "http://www.w3.org/Graphics/SVG/1.1/DTD/svg11.dtd">
<svg xmlns="http://www.w3.org/2000/svg" version="1.1" width="1025px" height="295px" style="shape-rendering:geometricPrecision; text-rendering:geometricPrecision; image-rendering:optimizeQuality; fill-rule:evenodd; clip-rule:evenodd" xmlns:xlink="http://www.w3.org/1999/xlink">
<g><path style="opacity:1" fill="#fefefe" d="M -0.5,-0.5 C 341.167,-0.5 682.833,-0.5 1024.5,-0.5C 1024.5,97.8333 1024.5,196.167 1024.5,294.5C 682.833,294.5 341.167,294.5 -0.5,294.5C -0.5,196.167 -0.5,97.8333 -0.5,-0.5 Z"/></g>
<g><path style="opacity:1" fill="#020202" d="M 176.5,67.5 C 170.5,67.5 164.5,67.5 158.5,67.5C 158.827,57.6522 158.494,47.9856 157.5,38.5C 116.833,38.5 76.1667,38.5 35.5,38.5C 35.5,107.5 35.5,176.5 35.5,245.5C 76.1667,245.5 116.833,245.5 157.5,245.5C 158.494,236.014 158.827,226.348 158.5,216.5C 164.5,216.5 170.5,216.5 176.5,216.5C 176.5,232.5 176.5,248.5 176.5,264.5C 123.5,264.5 70.5,264.5 17.5,264.5C 17.5,182.833 17.5,101.167 17.5,19.5C 70.5,19.5 123.5,19.5 176.5,19.5C 176.5,35.5 176.5,51.5 176.5,67.5 Z"/></g>
<g><path style="opacity:1" fill="#010101" d="M 428.5,53.5 C 441.833,53.5 455.167,53.5 468.5,53.5C 468.5,73.5 468.5,93.5 468.5,113.5C 470.144,113.714 471.644,113.38 473,112.5C 478.5,104.167 484,95.8333 489.5,87.5C 500.146,86.5013 510.813,86.168 521.5,86.5C 521.5,94.5 521.5,102.5 521.5,110.5C 519.473,110.338 517.473,110.505 515.5,111C 510.943,115.054 506.943,119.554 503.5,124.5C 507.585,131.418 512.252,137.918 517.5,144C 519.473,144.495 521.473,144.662 523.5,144.5C 523.5,152.5 523.5,160.5 523.5,168.5C 511.495,168.667 499.495,168.5 487.5,168C 482.373,158.913 477.373,149.747 472.5,140.5C 471.311,139.571 469.978,139.238 468.5,139.5C 468.5,149.167 468.5,158.833 468.5,168.5C 455.167,168.5 441.833,168.5 428.5,168.5C 428.5,160.5 428.5,152.5 428.5,144.5C 430.5,144.5 432.5,144.5 434.5,144.5C 434.5,122.167 434.5,99.8333 434.5,77.5C 432.5,77.5 430.5,77.5 428.5,77.5C 428.5,69.5 428.5,61.5 428.5,53.5 Z"/></g>
<g><path style="opacity:1" fill="#020202" d="M 820.5,168.5 C 820.5,160.5 820.5,152.5 820.5,144.5C 822.735,144.795 824.735,144.461 826.5,143.5C 826.5,121.5 826.5,99.5 826.5,77.5C 824.167,77.5 821.833,77.5 819.5,77.5C 819.5,69.5 819.5,61.5 819.5,53.5C 833.167,53.5 846.833,53.5 860.5,53.5C 860.333,67.504 860.5,81.504 861,95.5C 871.572,83.758 884.072,81.258 898.5,88C 907.376,94.9143 912.21,104.081 913,115.5C 914.957,130.908 912.624,145.574 906,159.5C 895.138,171.072 882.638,173.239 868.5,166C 865.624,163.825 863.124,161.325 861,158.5C 860.502,161.817 860.335,165.15 860.5,168.5C 847.167,168.5 833.833,168.5 820.5,168.5 Z"/></g>
<g><path style="opacity:1" fill="#010101" d="M 969.5,168.5 C 969.5,160.5 969.5,152.5 969.5,144.5C 971.735,144.795 973.735,144.461 975.5,143.5C 975.5,121.5 975.5,99.5 975.5,77.5C 973.167,77.5 970.833,77.5 968.5,77.5C 968.5,69.5 968.5,61.5 968.5,53.5C 982.167,53.5 995.833,53.5 1009.5,53.5C 1009.5,83.8333 1009.5,114.167 1009.5,144.5C 1011.5,144.5 1013.5,144.5 1015.5,144.5C 1015.5,152.5 1015.5,160.5 1015.5,168.5C 1000.17,168.5 984.833,168.5 969.5,168.5 Z"/></g>
<g><path style="opacity:1" fill="#747474" d="M 157.5,38.5 C 158.494,47.9856 158.827,57.6522 158.5,67.5C 164.5,67.5 170.5,67.5 176.5,67.5C 170.355,68.4902 164.022,68.8235 157.5,68.5C 157.5,58.5 157.5,48.5 157.5,38.5 Z"/></g>
<g><path style="opacity:1" fill="#757575" d="M 925.5,53.5 C 925.5,61.5 925.5,69.5 925.5,77.5C 935.167,77.5 944.833,77.5 954.5,77.5C 954.5,69.5 954.5,61.5 954.5,53.5C 955.493,61.6499 955.826,69.9832 955.5,78.5C 945.167,78.5 934.833,78.5 924.5,78.5C 924.174,69.9832 924.507,61.6499 925.5,53.5 Z"/></g>
<g><path style="opacity:1" fill="#000000" d="M 925.5,53.5 C 935.167,53.5 944.833,53.5 954.5,53.5C 954.5,61.5 954.5,69.5 954.5,77.5C 944.833,77.5 935.167,77.5 925.5,77.5C 925.5,69.5 925.5,61.5 925.5,53.5 Z"/></g>
<g><path style="opacity:1" fill="#010101" d="M 416.5,107.5 C 416.5,119.833 416.5,132.167 416.5,144.5C 418.833,144.5 421.167,144.5 423.5,144.5C 423.5,152.167 423.5,159.833 423.5,167.5C 408.167,167.5 392.833,167.5 377.5,167.5C 377.5,159.833 377.5,152.167 377.5,144.5C 379.5,144.5 381.5,144.5 383.5,144.5C 383.827,134.985 383.494,125.652 382.5,116.5C 381.734,112.105 379.067,110.105 374.5,110.5C 369.933,110.105 367.266,112.105 366.5,116.5C 365.506,125.652 365.173,134.985 365.5,144.5C 367.5,144.5 369.5,144.5 371.5,144.5C 371.5,152.167 371.5,159.833 371.5,167.5C 356.167,167.5 340.833,167.5 325.5,167.5C 325.5,159.833 325.5,152.167 325.5,144.5C 327.833,144.5 330.167,144.5 332.5,144.5C 332.827,135.318 332.493,126.318 331.5,117.5C 330.059,110.949 326.059,108.783 319.5,111C 317.249,111.748 315.916,113.248 315.5,115.5C 314.506,124.986 314.173,134.652 314.5,144.5C 316.5,144.5 318.5,144.5 320.5,144.5C 320.5,152.5 320.5,160.5 320.5,168.5C 305.167,168.5 289.833,168.5 274.5,168.5C 274.5,160.5 274.5,152.5 274.5,144.5C 276.5,144.5 278.5,144.5 280.5,144.5C 280.5,133.167 280.5,121.833 280.5,110.5C 278.5,110.5 276.5,110.5 274.5,110.5C 274.5,102.5 274.5,94.5 274.5,86.5C 287.833,86.5 301.167,86.5 314.5,86.5C 314.335,90.1817 314.501,93.8484 315,97.5C 326.016,83.925 339.516,80.7583 355.5,88C 359.491,90.9889 362.324,94.8222 364,99.5C 375.274,84.8071 389.441,80.9738 406.5,88C 412.624,93.0822 415.958,99.5822 416.5,107.5 Z"/></g>
<g><path style="opacity:1" fill="#010101" d="M 675.5,144.5 C 677.5,144.5 679.5,144.5 681.5,144.5C 681.827,134.652 681.494,124.986 680.5,115.5C 679.214,111.847 676.547,110.18 672.5,110.5C 667.956,110.711 665.29,113.045 664.5,117.5C 663.507,126.318 663.173,135.318 663.5,144.5C 665.833,144.5 668.167,144.5 670.5,144.5C 670.5,152.167 670.5,159.833 670.5,167.5C 655.167,167.5 639.833,167.5 624.5,167.5C 624.5,159.833 624.5,152.167 624.5,144.5C 626.5,144.5 628.5,144.5 630.5,144.5C 630.827,134.652 630.494,124.986 629.5,115.5C 628.214,111.847 625.547,110.18 621.5,110.5C 616.956,110.711 614.29,113.045 613.5,117.5C 612.507,126.318 612.173,135.318 612.5,144.5C 614.5,144.5 616.5,144.5 618.5,144.5C 618.5,152.167 618.5,159.833 618.5,167.5C 603.5,167.5 588.5,167.5 573.5,167.5C 573.5,159.833 573.5,152.167 573.5,144.5C 575.5,144.5 577.5,144.5 579.5,144.5C 579.828,132.988 579.495,121.654 578.5,110.5C 576.5,110.5 574.5,110.5 572.5,110.5C 572.5,102.5 572.5,94.5 572.5,86.5C 585.833,86.5 599.167,86.5 612.5,86.5C 612.177,90.226 612.511,93.8927 613.5,97.5C 614.107,97.3764 614.44,97.0431 614.5,96.5C 624.045,85.0448 636.045,81.5448 650.5,86C 656.434,88.7682 660.434,93.2682 662.5,99.5C 672.997,85.1692 686.663,81.0026 703.5,87C 709.695,91.2103 713.528,97.0437 715,104.5C 715.5,117.829 715.667,131.163 715.5,144.5C 717.5,144.5 719.5,144.5 721.5,144.5C 721.5,152.5 721.5,160.5 721.5,168.5C 706.167,168.5 690.833,168.5 675.5,168.5C 675.5,160.5 675.5,152.5 675.5,144.5 Z"/></g>
<g><path style="opacity:1" fill="#020202" d="M 759.5,84.5 C 804.414,82.0049 821.914,102.672 812,146.5C 806.741,158.758 797.574,166.258 784.5,169C 738.555,174.054 720.055,153.888 729,108.5C 734.933,95.0612 745.1,87.0612 759.5,84.5 Z"/></g>
<g><path style="opacity:1" fill="#9c9c9c" d="M 572.5,86.5 C 585.99,85.5043 599.656,85.171 613.5,85.5C 613.185,89.3714 613.518,93.0381 614.5,96.5C 614.44,97.0431 614.107,97.3764 613.5,97.5C 612.511,93.8927 612.177,90.226 612.5,86.5C 599.167,86.5 585.833,86.5 572.5,86.5 Z"/></g>
<g><path style="opacity:1" fill="#000000" d="M 957.5,86.5 C 957.5,105.833 957.5,125.167 957.5,144.5C 959.833,144.5 962.167,144.5 964.5,144.5C 964.5,152.167 964.5,159.833 964.5,167.5C 949.167,167.5 933.833,167.5 918.5,167.5C 918.5,159.833 918.5,152.167 918.5,144.5C 920.5,144.5 922.5,144.5 924.5,144.5C 924.828,132.988 924.495,121.654 923.5,110.5C 921.5,110.5 919.5,110.5 917.5,110.5C 917.5,102.5 917.5,94.5 917.5,86.5C 930.833,86.5 944.167,86.5 957.5,86.5 Z"/></g>
<g><path style="opacity:1" fill="#494949" d="M 957.5,86.5 C 958.497,105.326 958.83,124.326 958.5,143.5C 960.735,143.205 962.735,143.539 964.5,144.5C 962.167,144.5 959.833,144.5 957.5,144.5C 957.5,125.167 957.5,105.833 957.5,86.5 Z"/></g>
<g><path style="opacity:1" fill="#010101" d="M 210.5,151.5 C 174.671,150.502 138.671,150.168 102.5,150.5C 102.5,144.833 102.5,139.167 102.5,133.5C 138.671,133.832 174.671,133.498 210.5,132.5C 201.855,123.521 193.188,114.521 184.5,105.5C 188.485,101.015 192.651,96.6816 197,92.5C 213.5,109 230,125.5 246.5,142C 230,158.5 213.5,175 197,191.5C 192.651,187.318 188.485,182.985 184.5,178.5C 193.188,169.479 201.855,160.479 210.5,151.5 Z"/></g>
<g><path style="opacity:1" fill="#9c9c9c" d="M 578.5,110.5 C 579.495,121.654 579.828,132.988 579.5,144.5C 577.5,144.5 575.5,144.5 573.5,144.5C 573.167,144.5 572.833,144.5 572.5,144.5C 574.265,143.539 576.265,143.205 578.5,143.5C 578.5,132.5 578.5,121.5 578.5,110.5 Z"/></g>
<g><path style="opacity:1" fill="#f7f7f7" d="M 766.5,110.5 C 770.839,109.846 774.673,110.846 778,113.5C 779.572,121.755 779.905,130.089 779,138.5C 775.96,144.368 771.46,145.868 765.5,143C 764.299,142.097 763.465,140.931 763,139.5C 762.333,131.167 762.333,122.833 763,114.5C 763.69,112.65 764.856,111.316 766.5,110.5 Z"/></g>
<g><path style="opacity:1" fill="#fafafa" d="M 864.5,110.5 C 867.187,110.336 869.854,110.503 872.5,111C 874.667,111.833 876.167,113.333 877,115.5C 877.667,123.5 877.667,131.5 877,139.5C 871.667,146.167 866.333,146.167 861,139.5C 860.333,131.5 860.333,123.5 861,115.5C 861.997,113.677 863.164,112.01 864.5,110.5 Z"/></g>
<g><path style="opacity:1" fill="#b9b9b9" d="M 923.5,110.5 C 924.495,121.654 924.828,132.988 924.5,144.5C 922.5,144.5 920.5,144.5 918.5,144.5C 918.167,144.5 917.833,144.5 917.5,144.5C 919.265,143.539 921.265,143.205 923.5,143.5C 923.5,132.5 923.5,121.5 923.5,110.5 Z"/></g>
<g><path style="opacity:1" fill="#979797" d="M 416.5,107.5 C 417.495,119.322 417.828,131.322 417.5,143.5C 419.735,143.205 421.735,143.539 423.5,144.5C 421.167,144.5 418.833,144.5 416.5,144.5C 416.5,132.167 416.5,119.833 416.5,107.5 Z"/></g>
<g><path style="opacity:1" fill="#565656" d="M 331.5,117.5 C 332.493,126.318 332.827,135.318 332.5,144.5C 330.167,144.5 327.833,144.5 325.5,144.5C 327.265,143.539 329.265,143.205 331.5,143.5C 331.5,134.833 331.5,126.167 331.5,117.5 Z"/></g>
<g><path style="opacity:1" fill="#6f6f6f" d="M 382.5,116.5 C 383.494,125.652 383.827,134.985 383.5,144.5C 381.5,144.5 379.5,144.5 377.5,144.5C 377.167,144.5 376.833,144.5 376.5,144.5C 378.265,143.539 380.265,143.205 382.5,143.5C 382.5,134.5 382.5,125.5 382.5,116.5 Z"/></g>
<g><path style="opacity:1" fill="#6a6a6a" d="M 613.5,117.5 C 613.5,126.167 613.5,134.833 613.5,143.5C 615.735,143.205 617.735,143.539 619.5,144.5C 619.167,144.5 618.833,144.5 618.5,144.5C 616.5,144.5 614.5,144.5 612.5,144.5C 612.173,135.318 612.507,126.318 613.5,117.5 Z"/></g>
<g><path style="opacity:1" fill="#b3b3b3" d="M 629.5,115.5 C 630.494,124.986 630.827,134.652 630.5,144.5C 628.5,144.5 626.5,144.5 624.5,144.5C 625.919,143.549 627.585,143.216 629.5,143.5C 629.5,134.167 629.5,124.833 629.5,115.5 Z"/></g>
<g><path style="opacity:1" fill="#cdcdcd" d="M 680.5,115.5 C 681.494,124.986 681.827,134.652 681.5,144.5C 679.5,144.5 677.5,144.5 675.5,144.5C 676.919,143.549 678.585,143.216 680.5,143.5C 680.5,134.167 680.5,124.833 680.5,115.5 Z"/></g>
<g><path style="opacity:1" fill="#c6c6c6" d="M 315.5,115.5 C 315.5,124.833 315.5,134.167 315.5,143.5C 317.415,143.216 319.081,143.549 320.5,144.5C 318.5,144.5 316.5,144.5 314.5,144.5C 314.173,134.652 314.506,124.986 315.5,115.5 Z"/></g>
<g><path style="opacity:1" fill="#aeaeae" d="M 366.5,116.5 C 366.5,125.5 366.5,134.5 366.5,143.5C 368.415,143.216 370.081,143.549 371.5,144.5C 369.5,144.5 367.5,144.5 365.5,144.5C 365.173,134.985 365.506,125.652 366.5,116.5 Z"/></g>
<g><path style="opacity:1" fill="#4f4f4f" d="M 664.5,117.5 C 664.5,126.167 664.5,134.833 664.5,143.5C 666.735,143.205 668.735,143.539 670.5,144.5C 668.167,144.5 665.833,144.5 663.5,144.5C 663.173,135.318 663.507,126.318 664.5,117.5 Z"/></g>
<g><path style="opacity:1" fill="#323232" d="M 210.5,132.5 C 174.671,133.498 138.671,133.832 102.5,133.5C 102.5,139.167 102.5,144.833 102.5,150.5C 138.671,150.168 174.671,150.502 210.5,151.5C 174.167,151.5 137.833,151.5 101.5,151.5C 101.5,145.167 101.5,138.833 101.5,132.5C 137.833,132.5 174.167,132.5 210.5,132.5 Z"/></g>
<g><path style="opacity:1" fill="#7e7e7e" d="M 826.5,143.5 C 824.735,144.461 822.735,144.795 820.5,144.5C 820.5,152.5 820.5,160.5 820.5,168.5C 819.507,160.35 819.174,152.017 819.5,143.5C 821.833,143.5 824.167,143.5 826.5,143.5 Z"/></g>
<g><path style="opacity:1" fill="#6b6b6b" d="M 975.5,143.5 C 973.735,144.461 971.735,144.795 969.5,144.5C 969.5,152.5 969.5,160.5 969.5,168.5C 968.507,160.35 968.174,152.017 968.5,143.5C 970.833,143.5 973.167,143.5 975.5,143.5 Z"/></g>
<g><path style="opacity:1" fill="#464646" d="M 371.5,144.5 C 372.492,152.316 372.826,160.316 372.5,168.5C 356.658,168.83 340.991,168.496 325.5,167.5C 340.833,167.5 356.167,167.5 371.5,167.5C 371.5,159.833 371.5,152.167 371.5,144.5 Z"/></g>
<g><path style="opacity:1" fill="#353535" d="M 376.5,144.5 C 376.833,144.5 377.167,144.5 377.5,144.5C 377.5,152.167 377.5,159.833 377.5,167.5C 392.833,167.5 408.167,167.5 423.5,167.5C 408.009,168.496 392.342,168.83 376.5,168.5C 376.5,160.5 376.5,152.5 376.5,144.5 Z"/></g>
<g><path style="opacity:1" fill="#2e2e2e" d="M 572.5,144.5 C 572.833,144.5 573.167,144.5 573.5,144.5C 573.5,152.167 573.5,159.833 573.5,167.5C 588.5,167.5 603.5,167.5 618.5,167.5C 618.5,159.833 618.5,152.167 618.5,144.5C 618.833,144.5 619.167,144.5 619.5,144.5C 619.5,152.5 619.5,160.5 619.5,168.5C 603.833,168.5 588.167,168.5 572.5,168.5C 572.5,160.5 572.5,152.5 572.5,144.5 Z"/></g>
<g><path style="opacity:1" fill="#474747" d="M 624.5,144.5 C 624.5,152.167 624.5,159.833 624.5,167.5C 639.833,167.5 655.167,167.5 670.5,167.5C 655.009,168.496 639.342,168.83 623.5,168.5C 623.174,160.316 623.508,152.316 624.5,144.5 Z"/></g>
<g><path style="opacity:1" fill="#383838" d="M 917.5,144.5 C 917.833,144.5 918.167,144.5 918.5,144.5C 918.5,152.167 918.5,159.833 918.5,167.5C 933.833,167.5 949.167,167.5 964.5,167.5C 949.009,168.496 933.342,168.83 917.5,168.5C 917.5,160.5 917.5,152.5 917.5,144.5 Z"/></g>
<g><path style="opacity:1" fill="#0d0d0d" d="M 524.5,198.5 C 544.274,196.423 551.441,204.757 546,223.5C 540.536,229.581 533.703,231.748 525.5,230C 513.901,223.75 511.401,214.917 518,203.5C 520.326,201.934 522.492,200.268 524.5,198.5 Z"/></g>
<g><path style="opacity:1" fill="#0e0e0e" d="M 675.5,198.5 C 679.514,198.334 683.514,198.501 687.5,199C 695.365,200.672 696.532,203.838 691,208.5C 687.86,201.91 683.193,200.243 677,203.5C 676.202,205.259 676.369,206.926 677.5,208.5C 681.767,210.151 686.1,211.651 690.5,213C 695.224,215.435 696.724,219.269 695,224.5C 693.749,227.381 691.583,229.214 688.5,230C 684.5,230.667 680.5,230.667 676.5,230C 673.424,229.089 671.091,227.256 669.5,224.5C 670.48,223.019 671.647,221.685 673,220.5C 676.545,226.312 681.545,227.979 688,225.5C 688.743,223.559 688.576,221.726 687.5,220C 681.868,218.789 676.534,216.789 671.5,214C 667.874,207.391 669.208,202.224 675.5,198.5 Z"/></g>
<g><path style="opacity:1" fill="#4c4c4c" d="M 698.5,199.5 C 706.984,198.507 715.651,198.174 724.5,198.5C 724.768,200.099 724.434,201.432 723.5,202.5C 723.5,201.5 723.5,200.5 723.5,199.5C 715.167,199.5 706.833,199.5 698.5,199.5 Z"/></g>
<g><path style="opacity:1" fill="#0d0d0d" d="M 735.5,198.5 C 753.832,195.995 761.332,203.662 758,221.5C 752.913,229.244 745.746,232.078 736.5,230C 727.309,225.783 723.809,218.616 726,208.5C 728.022,203.98 731.189,200.647 735.5,198.5 Z"/></g>
<g><path style="opacity:1" fill="#111111" d="M 476.5,229.5 C 474.833,229.5 473.167,229.5 471.5,229.5C 471.5,228.5 471.5,227.5 471.5,226.5C 473.05,217.199 474.383,207.866 475.5,198.5C 478.448,198.223 481.281,198.556 484,199.5C 486.531,206.761 488.865,214.094 491,221.5C 493.499,214.172 495.999,206.839 498.5,199.5C 501.167,198.167 503.833,198.167 506.5,199.5C 508.486,209.404 509.82,219.404 510.5,229.5C 507.5,229.5 504.5,229.5 501.5,229.5C 501.775,222.687 500.942,216.021 499,209.5C 497.337,215.496 495.67,221.496 494,227.5C 491.478,229.662 488.645,229.995 485.5,228.5C 483.436,221.808 481.269,215.141 479,208.5C 477.012,215.353 476.179,222.353 476.5,229.5 Z"/></g>
<g><path style="opacity:1" fill="#080808" d="M 554.5,198.5 C 560.842,198.334 567.175,198.5 573.5,199C 583.266,202.484 583.933,207.151 575.5,213C 582.463,215.376 584.297,219.876 581,226.5C 579.581,227.46 578.081,228.293 576.5,229C 569.174,229.5 561.841,229.666 554.5,229.5C 554.5,219.167 554.5,208.833 554.5,198.5 Z"/></g>
<g><path style="opacity:1" fill="#717171" d="M 596.5,199.5 C 593.833,199.5 591.167,199.5 588.5,199.5C 588.5,209.5 588.5,219.5 588.5,229.5C 591.167,229.5 593.833,229.5 596.5,229.5C 593.713,230.477 590.713,230.81 587.5,230.5C 587.5,219.833 587.5,209.167 587.5,198.5C 590.713,198.19 593.713,198.523 596.5,199.5 Z"/></g>
<g><path style="opacity:1" fill="#000000" d="M 596.5,199.5 C 596.5,209.5 596.5,219.5 596.5,229.5C 593.833,229.5 591.167,229.5 588.5,229.5C 588.5,219.5 588.5,209.5 588.5,199.5C 591.167,199.5 593.833,199.5 596.5,199.5 Z"/></g>
<g><path style="opacity:1" fill="#040404" d="M 603.5,199.5 C 606.167,199.5 608.833,199.5 611.5,199.5C 611.174,208.349 611.507,217.016 612.5,225.5C 616.634,226.485 620.968,226.818 625.5,226.5C 625.5,227.5 625.5,228.5 625.5,229.5C 618.167,229.5 610.833,229.5 603.5,229.5C 603.5,219.5 603.5,209.5 603.5,199.5 Z"/></g>
<g><path style="opacity:1" fill="#484848" d="M 603.5,199.5 C 606.287,198.523 609.287,198.19 612.5,198.5C 612.5,207.5 612.5,216.5 612.5,225.5C 611.507,217.016 611.174,208.349 611.5,199.5C 608.833,199.5 606.167,199.5 603.5,199.5 Z"/></g>
<g><path style="opacity:1" fill="#070707" d="M 630.5,198.5 C 637.833,198.5 645.167,198.5 652.5,198.5C 652.5,199.833 652.5,201.167 652.5,202.5C 647.833,202.5 643.167,202.5 638.5,202.5C 638.5,205.833 638.5,209.167 638.5,212.5C 642.167,212.5 645.833,212.5 649.5,212.5C 649.5,213.833 649.5,215.167 649.5,216.5C 645.833,216.5 642.167,216.5 638.5,216.5C 638.5,219.833 638.5,223.167 638.5,226.5C 643.167,226.5 647.833,226.5 652.5,226.5C 652.5,227.5 652.5,228.5 652.5,229.5C 645.167,229.5 637.833,229.5 630.5,229.5C 630.5,219.167 630.5,208.833 630.5,198.5 Z"/></g>
<g><path style="opacity:1" fill="#000000" d="M 698.5,199.5 C 706.833,199.5 715.167,199.5 723.5,199.5C 723.5,200.5 723.5,201.5 723.5,202.5C 720.833,202.5 718.167,202.5 715.5,202.5C 715.5,211.5 715.5,220.5 715.5,229.5C 712.833,229.5 710.167,229.5 707.5,229.5C 707.827,220.318 707.493,211.318 706.5,202.5C 703.833,202.5 701.167,202.5 698.5,202.5C 698.5,201.5 698.5,200.5 698.5,199.5 Z"/></g>
<g><path style="opacity:1" fill="#616161" d="M 783.5,199.5 C 777.5,199.5 771.5,199.5 765.5,199.5C 765.5,209.5 765.5,219.5 765.5,229.5C 768.167,229.5 770.833,229.5 773.5,229.5C 770.713,230.477 767.713,230.81 764.5,230.5C 764.5,219.833 764.5,209.167 764.5,198.5C 771.022,198.177 777.355,198.51 783.5,199.5 Z"/></g>
<g><path style="opacity:1" fill="#060606" d="M 783.5,199.5 C 790.713,201.231 792.88,205.565 790,212.5C 787.748,215.029 785.248,217.196 782.5,219C 784.803,222.922 787.803,226.255 791.5,229C 782.271,231.61 777.271,228.11 776.5,218.5C 775.5,218.5 774.5,218.5 773.5,218.5C 773.5,222.167 773.5,225.833 773.5,229.5C 770.833,229.5 768.167,229.5 765.5,229.5C 765.5,219.5 765.5,209.5 765.5,199.5C 771.5,199.5 777.5,199.5 783.5,199.5 Z"/></g>
<g><path style="opacity:1" fill="#676767" d="M 818.5,202.5 C 818.5,201.5 818.5,200.5 818.5,199.5C 811.5,199.5 804.5,199.5 797.5,199.5C 797.5,209.5 797.5,219.5 797.5,229.5C 804.833,229.5 812.167,229.5 819.5,229.5C 812.018,230.492 804.352,230.825 796.5,230.5C 796.5,219.833 796.5,209.167 796.5,198.5C 804.167,198.5 811.833,198.5 819.5,198.5C 819.768,200.099 819.434,201.432 818.5,202.5 Z"/></g>
<g><path style="opacity:1" fill="#030303" d="M 818.5,202.5 C 814.167,202.5 809.833,202.5 805.5,202.5C 805.5,205.833 805.5,209.167 805.5,212.5C 809.167,212.5 812.833,212.5 816.5,212.5C 816.5,213.833 816.5,215.167 816.5,216.5C 812.833,216.5 809.167,216.5 805.5,216.5C 805.5,219.833 805.5,223.167 805.5,226.5C 810.167,226.5 814.833,226.5 819.5,226.5C 819.5,227.5 819.5,228.5 819.5,229.5C 812.167,229.5 804.833,229.5 797.5,229.5C 797.5,219.5 797.5,209.5 797.5,199.5C 804.5,199.5 811.5,199.5 818.5,199.5C 818.5,200.5 818.5,201.5 818.5,202.5 Z"/></g>
<g><path style="opacity:1" fill="#f9f9f9" d="M 528.5,201.5 C 533.28,200.641 536.78,202.308 539,206.5C 539.667,211.167 539.667,215.833 539,220.5C 537.171,226.158 533.337,227.992 527.5,226C 525.513,224.681 524.346,222.848 524,220.5C 523.333,216.167 523.333,211.833 524,207.5C 524.979,205.032 526.479,203.032 528.5,201.5 Z"/></g>
<g><path style="opacity:1" fill="#f1f1f1" d="M 562.5,201.5 C 565.93,201.107 569.096,201.773 572,203.5C 573.147,210.839 569.981,213.506 562.5,211.5C 562.5,208.167 562.5,204.833 562.5,201.5 Z"/></g>
<g><path style="opacity:1" fill="#f9f9f9" d="M 739.5,201.5 C 744.558,200.717 748.058,202.717 750,207.5C 750.667,211.5 750.667,215.5 750,219.5C 748.761,226.072 744.927,228.238 738.5,226C 736.951,224.786 735.785,223.286 735,221.5C 734.333,216.5 734.333,211.5 735,206.5C 736.025,204.313 737.525,202.646 739.5,201.5 Z"/></g>
<g><path style="opacity:1" fill="#f4f4f4" d="M 773.5,201.5 C 782.578,201.687 784.912,205.854 780.5,214C 778.323,215.202 775.989,215.702 773.5,215.5C 773.5,210.833 773.5,206.167 773.5,201.5 Z"/></g>
<g><path style="opacity:1" fill="#696969" d="M 706.5,202.5 C 707.493,211.318 707.827,220.318 707.5,229.5C 710.167,229.5 712.833,229.5 715.5,229.5C 712.713,230.477 709.713,230.81 706.5,230.5C 706.5,221.167 706.5,211.833 706.5,202.5 Z"/></g>
<g><path style="opacity:1" fill="#acacac" d="M 570.5,215.5 C 568.167,215.5 565.833,215.5 563.5,215.5C 563.5,219.167 563.5,222.833 563.5,226.5C 565.5,226.5 567.5,226.5 569.5,226.5C 567.393,227.468 565.059,227.802 562.5,227.5C 562.5,223.167 562.5,218.833 562.5,214.5C 565.385,214.194 568.052,214.527 570.5,215.5 Z"/></g>
<g><path style="opacity:1" fill="#f5f5f5" d="M 570.5,215.5 C 574.049,216.957 575.216,219.623 574,223.5C 572.871,225.141 571.371,226.141 569.5,226.5C 567.5,226.5 565.5,226.5 563.5,226.5C 563.5,222.833 563.5,219.167 563.5,215.5C 565.833,215.5 568.167,215.5 570.5,215.5 Z"/></g>
<g><path style="opacity:1" fill="#707070" d="M 176.5,216.5 C 170.5,216.5 164.5,216.5 158.5,216.5C 158.827,226.348 158.494,236.014 157.5,245.5C 157.5,235.5 157.5,225.5 157.5,215.5C 164.022,215.177 170.355,215.51 176.5,216.5 Z"/></g>
<g><path style="opacity:1" fill="#919191" d="M 471.5,226.5 C 471.5,227.5 471.5,228.5 471.5,229.5C 473.167,229.5 474.833,229.5 476.5,229.5C 474.735,230.461 472.735,230.795 470.5,230.5C 470.232,228.901 470.566,227.568 471.5,226.5 Z"/></g>
<g><path style="opacity:1" fill="#898989" d="M 612.5,225.5 C 617.167,225.5 621.833,225.5 626.5,225.5C 626.5,227.167 626.5,228.833 626.5,230.5C 618.648,230.825 610.982,230.492 603.5,229.5C 610.833,229.5 618.167,229.5 625.5,229.5C 625.5,228.5 625.5,227.5 625.5,226.5C 620.968,226.818 616.634,226.485 612.5,225.5 Z"/></g>
</svg>
