<?xml version="1.0" encoding="UTF-8"?>
<!DOCTYPE svg PUBLIC "-//W3C//DTD SVG 1.1//EN" "http://www.w3.org/Graphics/SVG/1.1/DTD/svg11.dtd">
<svg xmlns="http://www.w3.org/2000/svg" version="1.1" width="858px" height="291px" style="shape-rendering:geometricPrecision; text-rendering:geometricPrecision; image-rendering:optimizeQuality; fill-rule:evenodd; clip-rule:evenodd" xmlns:xlink="http://www.w3.org/1999/xlink">
<g><path style="opacity:1" fill="#8c7048" d="M 376.5,-0.5 C 377.5,-0.5 378.5,-0.5 379.5,-0.5C 380.5,0.166667 381.5,0.833333 382.5,1.5C 379.99,1.94649 377.99,1.27983 376.5,-0.5 Z"/></g>
<g><path style="opacity:0.976" fill="#9d804b" d="M 349.5,6.5 C 347.393,6.27789 345.726,5.27789 344.5,3.5C 341.347,4.98649 338.347,6.65316 335.5,8.5C 338.156,5.54551 341.323,3.21217 345,1.5C 346.684,3.01674 348.184,4.6834 349.5,6.5 Z"/></g>
<g><path style="opacity:1" fill="#9f7f47" d="M 382.5,1.5 C 387.01,2.17261 391.343,3.33928 395.5,5C 397.432,6.4585 399.432,7.62517 401.5,8.5C 396.386,7.10845 391.219,5.77511 386,4.5C 384.092,4.28488 382.926,3.28488 382.5,1.5 Z"/></g>
<g><path style="opacity:0.98" fill="#8f7754" d="M 401.5,8.5 C 404.063,9.08828 406.396,10.0883 408.5,11.5C 405.509,11.8337 403.176,10.8337 401.5,8.5 Z"/></g>
<g><path style="opacity:0.996" fill="#a2804b" d="M 351.5,-0.5 C 352.5,-0.5 353.5,-0.5 354.5,-0.5C 362.671,13.2165 369.837,27.5498 376,42.5C 377.16,47.4342 377.66,52.4342 377.5,57.5C 372.659,36.4825 363.993,17.1492 351.5,-0.5 Z"/></g>
<g><path style="opacity:0.945" fill="#a4844d" d="M 335.5,8.5 C 329.414,13.6656 324.747,19.9989 321.5,27.5C 321.043,28.2975 320.376,28.6309 319.5,28.5C 321.996,19.4804 327.329,12.8137 335.5,8.5 Z"/></g>
<g><path style="opacity:1" fill="#df8e29" d="M 349.5,6.5 C 349.804,9.52195 350.304,12.5219 351,15.5C 353.344,18.0105 355.844,20.3438 358.5,22.5C 360.008,24.1815 361.008,26.1815 361.5,28.5C 361.66,30.153 362.326,31.4863 363.5,32.5C 363.77,36.3576 365.103,39.691 367.5,42.5C 367.171,45.2282 367.837,47.5615 369.5,49.5C 370.743,57.1107 371.409,64.7774 371.5,72.5C 371.5,72.8333 371.5,73.1667 371.5,73.5C 368.247,73.5622 365.247,74.3956 362.5,76C 356.175,76.4995 349.842,76.6662 343.5,76.5C 340.261,75.5383 337.261,74.2049 334.5,72.5C 330.923,70.0974 327.756,67.0974 325,63.5C 323.301,64.4061 321.467,64.7394 319.5,64.5C 318.588,62.4048 317.421,60.4048 316,58.5C 315.51,57.2068 315.343,55.8734 315.5,54.5C 317.22,46.2334 318.553,37.9 319.5,29.5C 319.5,29.1667 319.5,28.8333 319.5,28.5C 320.376,28.6309 321.043,28.2975 321.5,27.5C 324.747,19.9989 329.414,13.6656 335.5,8.5C 338.347,6.65316 341.347,4.98649 344.5,3.5C 345.726,5.27789 347.393,6.27789 349.5,6.5 Z"/></g>
<g><path style="opacity:1" fill="#b68844" d="M 408.5,11.5 C 411.167,12.1667 412.833,13.8333 413.5,16.5C 411.883,15.962 410.216,15.6287 408.5,15.5C 408.5,14.1667 408.5,12.8333 408.5,11.5 Z"/></g>
<g><path style="opacity:1" fill="#b08344" d="M 349.5,6.5 C 352.497,11.8255 355.497,17.1588 358.5,22.5C 355.844,20.3438 353.344,18.0105 351,15.5C 350.304,12.5219 349.804,9.52195 349.5,6.5 Z"/></g>
<g><path style="opacity:1" fill="#927a50" d="M 413.5,16.5 C 414.683,17.5045 416.016,18.3378 417.5,19C 423.367,19.4431 429.034,20.2764 434.5,21.5C 427.609,22.0987 420.942,21.2654 414.5,19C 413.748,18.3292 413.414,17.4959 413.5,16.5 Z"/></g>
<g><path style="opacity:1" fill="#df8e28" d="M 354.5,-0.5 C 361.833,-0.5 369.167,-0.5 376.5,-0.5C 377.99,1.27983 379.99,1.94649 382.5,1.5C 382.926,3.28488 384.092,4.28488 386,4.5C 391.219,5.77511 396.386,7.10845 401.5,8.5C 403.176,10.8337 405.509,11.8337 408.5,11.5C 408.5,12.8333 408.5,14.1667 408.5,15.5C 410.216,15.6287 411.883,15.962 413.5,16.5C 413.414,17.4959 413.748,18.3292 414.5,19C 420.942,21.2654 427.609,22.0987 434.5,21.5C 435.167,21.5 435.833,21.5 436.5,21.5C 436.611,22.1174 436.944,22.6174 437.5,23C 448.512,27.1672 459.845,30.0005 471.5,31.5C 473.048,31.8212 473.715,32.8212 473.5,34.5C 474.167,37.5 474.833,40.5 475.5,43.5C 474.883,43.6107 474.383,43.944 474,44.5C 473.151,47.5214 472.317,50.5214 471.5,53.5C 470.153,52.9717 468.819,52.805 467.5,53C 468.406,54.6995 468.739,56.5328 468.5,58.5C 466.712,58.2148 465.045,58.5481 463.5,59.5C 465.274,62.8497 464.274,64.5164 460.5,64.5C 460.719,65.675 460.386,66.675 459.5,67.5C 458.264,66.7542 456.93,66.4208 455.5,66.5C 455.5,68.1667 455.5,69.8333 455.5,71.5C 451.792,71.7117 449.126,73.3783 447.5,76.5C 445.517,76.1568 444.183,76.8235 443.5,78.5C 438.419,78.5081 434.085,80.1748 430.5,83.5C 430.167,83.5 429.833,83.5 429.5,83.5C 424.607,82.8393 420.274,83.8393 416.5,86.5C 412.486,86.3345 408.486,86.5012 404.5,87C 403.748,87.6708 403.414,88.5041 403.5,89.5C 403.167,89.5 402.833,89.5 402.5,89.5C 399.412,89.1966 397.746,90.5299 397.5,93.5C 397.5,93.8333 397.5,94.1667 397.5,94.5C 396.85,94.8039 396.183,95.1373 395.5,95.5C 394.543,103.146 393.876,110.812 393.5,118.5C 393.196,119.15 392.863,119.817 392.5,120.5C 389.572,121.484 386.572,121.817 383.5,121.5C 378.508,116.649 375.841,110.649 375.5,103.5C 375.253,102.287 374.586,101.62 373.5,101.5C 373.31,97.6426 371.31,95.976 367.5,96.5C 366.064,94.917 364.398,93.417 362.5,92C 359.833,91.6667 357.167,91.3333 354.5,91C 356.306,86.841 358.639,86.5077 361.5,90C 363.473,90.4955 365.473,90.6621 367.5,90.5C 367.5,91.5 367.5,92.5 367.5,93.5C 368.873,93.6567 370.207,93.49 371.5,93C 369.986,91.561 369.653,90.061 370.5,88.5C 373.177,87.9258 375.843,87.2592 378.5,86.5C 373.967,85.0545 369.634,85.3878 365.5,87.5C 362.966,86.7268 360.632,85.7268 358.5,84.5C 361.518,84.6646 364.518,84.498 367.5,84C 368.416,83.7216 369.082,83.2216 369.5,82.5C 373.928,81.9824 376.595,79.6491 377.5,75.5C 378.816,72.9134 379.483,69.9134 379.5,66.5C 379.483,63.0866 378.816,60.0866 377.5,57.5C 377.66,52.4342 377.16,47.4342 376,42.5C 369.837,27.5498 362.671,13.2165 354.5,-0.5 Z M 401.5,27.5 C 405.585,34.8732 403.585,37.8732 395.5,36.5C 395.249,34.8297 394.582,33.3297 393.5,32C 394.743,30.8455 395.743,29.5122 396.5,28C 398.134,27.5065 399.801,27.3398 401.5,27.5 Z"/></g>
<g><path style="opacity:0.02" fill="#797248" d="M 452.5,25.5 C 455.428,25.5651 458.095,26.2318 460.5,27.5C 457.505,27.7062 454.838,27.0395 452.5,25.5 Z"/></g>
<g><path style="opacity:1" fill="#af854a" d="M 436.5,21.5 C 442.164,21.9608 447.497,23.2941 452.5,25.5C 454.838,27.0395 457.505,27.7062 460.5,27.5C 463.166,27.933 465.832,28.433 468.5,29C 469.942,29.3768 470.942,30.2101 471.5,31.5C 459.845,30.0005 448.512,27.1672 437.5,23C 436.944,22.6174 436.611,22.1174 436.5,21.5 Z"/></g>
<g><path style="opacity:1" fill="#121414" d="M 633.5,44.5 C 632.346,50.987 632.179,57.6536 633,64.5C 633.717,63.9558 634.217,63.2891 634.5,62.5C 636.77,60.0252 639.437,58.0252 642.5,56.5C 642.577,57.7498 643.244,58.5831 644.5,59C 644,59.5 643.5,60 643,60.5C 642,60.1667 641,59.8333 640,59.5C 640.013,63.1244 638.68,66.1244 636,68.5C 634.853,67.5419 633.853,67.8753 633,69.5C 632.691,70.7659 632.191,71.9326 631.5,73C 632.833,73.6667 632.833,74.3333 631.5,75C 632,75.1667 632.5,75.3333 633,75.5C 637.586,73.6931 641.753,74.1931 645.5,77C 644.451,77.4922 643.451,77.3256 642.5,76.5C 641.702,76.9569 641.369,77.6236 641.5,78.5C 638.739,78.1051 636.239,79.1051 634,81.5C 633.5,89.8267 633.334,98.16 633.5,106.5C 635.144,106.286 636.644,106.62 638,107.5C 638.667,115.167 638.667,122.833 638,130.5C 630.91,131.158 623.743,131.492 616.5,131.5C 609.257,131.492 602.09,131.158 595,130.5C 594.333,123.167 594.333,115.833 595,108.5C 595.278,107.584 595.778,106.918 596.5,106.5C 597.568,107.434 598.901,107.768 600.5,107.5C 600.824,100.646 600.491,93.979 599.5,87.5C 599.5,85.8333 599.5,84.1667 599.5,82.5C 600.495,71.3456 600.828,60.0123 600.5,48.5C 599.209,48.2627 598.209,48.596 597.5,49.5C 596.85,49.1961 596.183,48.8627 595.5,48.5C 594.336,41.5237 594.169,34.5237 595,27.5C 595.689,26.6433 596.522,25.9767 597.5,25.5C 609.121,26.3128 620.787,26.8128 632.5,27C 632.613,32.7896 632.946,38.6229 633.5,44.5 Z"/></g>
<g><path style="opacity:0.027" fill="#776b4b" d="M 361.5,28.5 C 363.104,29.287 363.771,30.6203 363.5,32.5C 362.326,31.4863 361.66,30.153 361.5,28.5 Z"/></g>
<g><path style="opacity:1" fill="#b28444" d="M 401.5,27.5 C 399.801,27.3398 398.134,27.5065 396.5,28C 395.743,29.5122 394.743,30.8455 393.5,32C 394.582,33.3297 395.249,34.8297 395.5,36.5C 393.62,35.9218 392.62,34.5885 392.5,32.5C 393.478,30.223 394.145,27.8897 394.5,25.5C 397.388,24.9898 399.721,25.6565 401.5,27.5 Z"/></g>
<g><path style="opacity:0.996" fill="#957c46" d="M 363.5,32.5 C 365.403,35.5299 366.737,38.8632 367.5,42.5C 365.103,39.691 363.77,36.3576 363.5,32.5 Z"/></g>
<g><path style="opacity:0.969" fill="#a48554" d="M 473.5,34.5 C 476.222,37.1174 476.889,40.1174 475.5,43.5C 474.833,40.5 474.167,37.5 473.5,34.5 Z"/></g>
<g><path style="opacity:1" fill="#b18745" d="M 401.5,27.5 C 402.583,27.5394 403.583,27.8728 404.5,28.5C 406.539,34.1063 404.872,38.1063 399.5,40.5C 397.285,40.0836 395.951,38.7503 395.5,36.5C 403.585,37.8732 405.585,34.8732 401.5,27.5 Z"/></g>
<g><path style="opacity:1" fill="#bd8c44" d="M 319.5,29.5 C 318.553,37.9 317.22,46.2334 315.5,54.5C 315.167,54.5 314.833,54.5 314.5,54.5C 314.704,51.4824 315.037,48.4824 315.5,45.5C 315.438,39.7098 316.771,34.3764 319.5,29.5 Z"/></g>
<g><path style="opacity:0.008" fill="#777878" d="M 633.5,44.5 C 633.177,50.69 633.51,56.69 634.5,62.5C 634.217,63.2891 633.717,63.9558 633,64.5C 632.179,57.6536 632.346,50.987 633.5,44.5 Z"/></g>
<g><path style="opacity:0.992" fill="#997c59" d="M 367.5,42.5 C 369.163,44.4385 369.829,46.7718 369.5,49.5C 367.837,47.5615 367.171,45.2282 367.5,42.5 Z"/></g>
<g><path style="opacity:0.992" fill="#997b4a" d="M 475.5,43.5 C 475.128,47.2971 473.794,50.6305 471.5,53.5C 472.317,50.5214 473.151,47.5214 474,44.5C 474.383,43.944 474.883,43.6107 475.5,43.5 Z"/></g>
<g><path style="opacity:1" fill="#121313" d="M 223.5,84.5 C 216.745,83.8771 210.412,84.5437 204.5,86.5C 203.989,94.983 204.822,103.316 207,111.5C 207.5,112 208,112.5 208.5,113C 213.823,113.499 219.156,113.666 224.5,113.5C 224.666,120.841 224.5,128.174 224,135.5C 220.14,137.673 215.973,138.673 211.5,138.5C 205.167,138.5 198.833,138.5 192.5,138.5C 182.595,137.438 176.095,132.104 173,122.5C 171.985,118.56 171.485,114.56 171.5,110.5C 171.5,101.833 171.5,93.1667 171.5,84.5C 169.833,84.5 168.167,84.5 166.5,84.5C 166.334,77.825 166.5,71.1583 167,64.5C 168.145,63.3636 169.312,62.3636 170.5,61.5C 172.504,60.3272 174.004,58.6605 175,56.5C 175.207,52.9106 175.707,49.4106 176.5,46C 185.547,46.2636 194.547,46.2636 203.5,46C 204.167,51 204.833,56 205.5,61C 207.034,61.923 208.701,62.423 210.5,62.5C 214.476,61.5576 218.476,61.3909 222.5,62C 223,62.5 223.5,63 224,63.5C 224.821,70.6791 224.655,77.6791 223.5,84.5 Z"/></g>
<g><path style="opacity:0.024" fill="#6b5448" d="M 315.5,45.5 C 315.037,48.4824 314.704,51.4824 314.5,54.5C 314.5,55.8333 314.5,57.1667 314.5,58.5C 313.84,57.036 313.507,55.3693 313.5,53.5C 313.382,50.5143 314.048,47.8476 315.5,45.5 Z"/></g>
<g><path style="opacity:0.98" fill="#967d54" d="M 314.5,54.5 C 314.833,54.5 315.167,54.5 315.5,54.5C 315.343,55.8734 315.51,57.2068 316,58.5C 317.421,60.4048 318.588,62.4048 319.5,64.5C 317.11,63.1092 315.443,61.1092 314.5,58.5C 314.5,57.1667 314.5,55.8333 314.5,54.5 Z"/></g>
<g><path style="opacity:1" fill="#121314" d="M 678.5,72.5 C 677.855,84.5479 678.522,96.2146 680.5,107.5C 682.201,107.034 683.701,107.034 685,107.5C 685.667,115.167 685.667,122.833 685,130.5C 670.563,131.823 656.063,131.823 641.5,130.5C 640.443,122.908 640.443,115.241 641.5,107.5C 643.5,107.5 645.5,107.5 647.5,107.5C 647.826,99.3159 647.492,91.3159 646.5,83.5C 645.811,80.8106 644.144,79.1439 641.5,78.5C 641.369,77.6236 641.702,76.9569 642.5,76.5C 643.451,77.3256 644.451,77.4922 645.5,77C 641.753,74.1931 637.586,73.6931 633,75.5C 632.5,75.3333 632,75.1667 631.5,75C 632.833,74.3333 632.833,73.6667 631.5,73C 632.191,71.9326 632.691,70.7659 633,69.5C 633.853,67.8753 634.853,67.5419 636,68.5C 638.68,66.1244 640.013,63.1244 640,59.5C 641,59.8333 642,60.1667 643,60.5C 643.5,60 644,59.5 644.5,59C 643.244,58.5831 642.577,57.7498 642.5,56.5C 651.75,51.9396 661.084,52.1063 670.5,57C 674.887,61.2745 677.554,66.4411 678.5,72.5 Z"/></g>
<g><path style="opacity:1" fill="#121314" d="M 855.5,74.5 C 855.753,78.0399 856.419,81.3733 857.5,84.5C 857.5,92.1667 857.5,99.8333 857.5,107.5C 851.282,129.776 837.282,136.942 815.5,129C 814.29,127.961 813.29,126.794 812.5,125.5C 811.878,124.373 811.045,123.373 810,122.5C 809.501,127.489 809.334,132.489 809.5,137.5C 810.791,137.737 811.791,137.404 812.5,136.5C 814.591,136.318 816.591,136.652 818.5,137.5C 819.833,144.833 819.833,152.167 818.5,159.5C 803.545,160.65 788.545,160.817 773.5,160C 772.874,159.25 772.374,158.416 772,157.5C 771.333,151.167 771.333,144.833 772,138.5C 773.441,137.74 774.941,137.074 776.5,136.5C 777.498,127.525 777.832,118.525 777.5,109.5C 778.494,99.0131 778.828,88.3464 778.5,77.5C 777.167,77.5 775.833,77.5 774.5,77.5C 772.974,76.8953 771.974,75.7286 771.5,74C 772.469,70.5751 772.469,67.0751 771.5,63.5C 771.623,60.5099 772.29,57.6766 773.5,55C 785.576,54.1888 797.576,54.3554 809.5,55.5C 809.192,57.924 809.526,60.2573 810.5,62.5C 811.522,62.1445 812.189,61.4778 812.5,60.5C 820.305,52.9722 829.305,51.1388 839.5,55C 848.28,58.6185 853.613,65.1185 855.5,74.5 Z M 816.5,77.5 C 821.831,79.1409 824.498,82.8075 824.5,88.5C 823.531,92.0751 823.531,95.5751 824.5,99C 823.475,101.071 822.642,103.238 822,105.5C 811.214,108.373 807.38,104.206 810.5,93C 810.667,89.1667 810.833,85.3333 811,81.5C 812.812,80.0229 814.645,78.6896 816.5,77.5 Z"/></g>
<g><path style="opacity:1" fill="#131414" d="M 722.5,52.5 C 737.135,51.7669 749.969,56.1003 761,65.5C 767.148,73.5785 769.981,82.7452 769.5,93C 769.867,111.646 761.534,124.312 744.5,131C 731.951,133.542 719.618,132.875 707.5,129C 693.419,121.227 686.419,109.227 686.5,93C 687.472,69.5355 699.472,56.0355 722.5,52.5 Z M 726.5,78.5 C 729.505,78.253 732.005,79.253 734,81.5C 734.667,89.1667 734.667,96.8333 734,104.5C 730.817,106.523 727.317,107.023 723.5,106C 719.68,97.6203 719.513,89.1203 723,80.5C 724.302,79.9152 725.469,79.2485 726.5,78.5 Z"/></g>
<g><path style="opacity:0.02" fill="#606464" d="M 809.5,55.5 C 810.065,57.42 811.065,59.0867 812.5,60.5C 812.189,61.4778 811.522,62.1445 810.5,62.5C 809.526,60.2573 809.192,57.924 809.5,55.5 Z"/></g>
<g><path style="opacity:1" fill="#ac8243" d="M 471.5,53.5 C 468.466,61.5861 463.132,67.5861 455.5,71.5C 455.5,69.8333 455.5,68.1667 455.5,66.5C 456.93,66.4208 458.264,66.7542 459.5,67.5C 460.386,66.675 460.719,65.675 460.5,64.5C 464.274,64.5164 465.274,62.8497 463.5,59.5C 465.045,58.5481 466.712,58.2148 468.5,58.5C 468.739,56.5328 468.406,54.6995 467.5,53C 468.819,52.805 470.153,52.9717 471.5,53.5 Z"/></g>
<g><path style="opacity:1" fill="#121313" d="M 36.5,142.5 C 37.3339,143.748 38.6672,144.415 40.5,144.5C 42.0451,144.489 43.3784,144.156 44.5,143.5C 45.2216,143.918 45.7216,144.584 46,145.5C 46.8123,152.747 46.6456,159.914 45.5,167C 30.1703,167.5 14.837,167.667 -0.5,167.5C -0.5,159.5 -0.5,151.5 -0.5,143.5C 0.95875,143.433 2.29208,143.766 3.5,144.5C 5.48804,124.861 6.15471,104.861 5.5,84.5C 3.58533,84.2155 1.91866,84.5489 0.5,85.5C 0.166667,85.5 -0.166667,85.5 -0.5,85.5C -0.5,77.5 -0.5,69.5 -0.5,61.5C 11.106,62.4061 22.606,62.4061 34,61.5C 36.1566,62.385 36.9899,64.0516 36.5,66.5C 36.3433,67.8734 36.51,69.2068 37,70.5C 38.7583,68.9168 40.2583,67.2501 41.5,65.5C 45.5515,62.6433 50.0515,60.6433 55,59.5C 71.0241,59.8601 80.6908,67.8601 84,83.5C 84.6667,94.8333 84.6667,106.167 84,117.5C 77.7351,137.349 64.9017,143.849 45.5,137C 42.6793,135.178 40.1793,133.011 38,130.5C 36.5761,134.297 36.0761,138.297 36.5,142.5 Z M 50.5,110.5 C 49.5,111.5 48.5,112.5 47.5,113.5C 42.5008,114.652 39.0008,112.985 37,108.5C 36.3333,102.833 36.3333,97.1667 37,91.5C 39.533,85.421 43.533,84.0877 49,87.5C 50.4321,95.0542 50.9321,102.721 50.5,110.5 Z"/></g>
<g><path style="opacity:1" fill="#131515" d="M 121.5,59.5 C 153.572,57.8991 167.572,72.8991 163.5,104.5C 149.167,105.167 134.833,105.833 120.5,106.5C 121.637,109.47 123.637,111.636 126.5,113C 134.576,113.315 142.576,113.481 150.5,113.5C 154.071,111.697 157.738,110.53 161.5,110C 162.647,117.42 162.813,124.92 162,132.5C 160.745,133.211 159.579,134.044 158.5,135C 142.619,140.548 126.619,141.215 110.5,137C 94.4727,129.961 86.4727,117.627 86.5,100C 86.9333,76.5621 98.6,63.0621 121.5,59.5 Z M 134.5,83.5 C 134.675,85.6208 134.341,87.6208 133.5,89.5C 129.19,88.9198 124.857,88.5865 120.5,88.5C 121.719,81.7986 125.719,79.632 132.5,82C 133.044,82.7172 133.711,83.2172 134.5,83.5 Z"/></g>
<g><path style="opacity:0.988" fill="#9a7f4d" d="M 377.5,57.5 C 378.816,60.0866 379.483,63.0866 379.5,66.5C 379.483,69.9134 378.816,72.9134 377.5,75.5C 378.398,69.5283 378.398,63.5283 377.5,57.5 Z"/></g>
<g><path style="opacity:0.008" fill="#7f807f" d="M 316.5,65.5 C 317.833,66.1667 317.833,66.1667 316.5,65.5 Z"/></g>
<g><path style="opacity:0.016" fill="#5d6163" d="M 41.5,65.5 C 40.2583,67.2501 38.7583,68.9168 37,70.5C 36.51,69.2068 36.3433,67.8734 36.5,66.5C 38.2161,66.3713 39.8828,66.038 41.5,65.5 Z"/></g>
<g><path style="opacity:1" fill="#c28b3d" d="M 334.5,72.5 C 333.167,72.5 331.833,72.5 330.5,72.5C 326.293,70.5646 322.627,67.8979 319.5,64.5C 321.467,64.7394 323.301,64.4061 325,63.5C 327.756,67.0974 330.923,70.0974 334.5,72.5 Z"/></g>
<g><path style="opacity:1" fill="#a0824f" d="M 369.5,49.5 C 372.032,52.437 372.699,55.7703 371.5,59.5C 374.116,63.973 374.116,68.3064 371.5,72.5C 371.409,64.7774 370.743,57.1107 369.5,49.5 Z"/></g>
<g><path style="opacity:1" fill="#bd8a41" d="M 318.5,70.5 C 320.695,72.4244 323.028,74.0911 325.5,75.5C 321.866,74.6157 318.366,73.2824 315,71.5C 315.718,79.3154 313.884,86.3154 309.5,92.5C 309.56,89.6592 310.226,86.9925 311.5,84.5C 312.487,79.6946 312.821,74.6946 312.5,69.5C 314.5,69.8333 316.5,70.1667 318.5,70.5 Z"/></g>
<g><path style="opacity:1" fill="#93784c" d="M 330.5,72.5 C 331.833,72.5 333.167,72.5 334.5,72.5C 337.261,74.2049 340.261,75.5383 343.5,76.5C 343.5,76.8333 343.5,77.1667 343.5,77.5C 338.71,76.7962 334.377,75.1295 330.5,72.5 Z"/></g>
<g><path style="opacity:0.012" fill="#646465" d="M 597.5,49.5 C 598.209,48.596 599.209,48.2627 600.5,48.5C 600.828,60.0123 600.495,71.3456 599.5,82.5C 600.144,71.1158 599.477,60.1158 597.5,49.5 Z"/></g>
<g><path style="opacity:0.961" fill="#98784f" d="M 455.5,71.5 C 453.371,73.9501 450.704,75.6167 447.5,76.5C 449.126,73.3783 451.792,71.7117 455.5,71.5 Z"/></g>
<g><path style="opacity:0.035" fill="#826947" d="M 318.5,70.5 C 316.5,70.1667 314.5,69.8333 312.5,69.5C 312.821,74.6946 312.487,79.6946 311.5,84.5C 311.334,78.8236 311.501,73.1569 312,67.5C 314.839,66.6638 317.005,67.6638 318.5,70.5 Z"/></g>
<g><path style="opacity:0.984" fill="#a9834b" d="M 371.5,73.5 C 369.11,76.0283 366.11,77.5283 362.5,78C 355.986,78.82 349.653,78.6533 343.5,77.5C 343.5,77.1667 343.5,76.8333 343.5,76.5C 349.842,76.6662 356.175,76.4995 362.5,76C 365.247,74.3956 368.247,73.5622 371.5,73.5 Z"/></g>
<g><path style="opacity:0.933" fill="#8f7447" d="M 447.5,76.5 C 446.713,78.1042 445.38,78.7709 443.5,78.5C 444.183,76.8235 445.517,76.1568 447.5,76.5 Z"/></g>
<g><path style="opacity:0.008" fill="#556164" d="M 170.5,61.5 C 169.312,62.3636 168.145,63.3636 167,64.5C 166.5,71.1583 166.334,77.825 166.5,84.5C 165.345,77.6791 165.179,70.6791 166,63.5C 167.11,61.9632 168.61,61.2965 170.5,61.5 Z"/></g>
<g><path style="opacity:0.051" fill="#576161" d="M 855.5,74.5 C 856.167,74.8333 856.833,75.1667 857.5,75.5C 857.5,78.5 857.5,81.5 857.5,84.5C 856.419,81.3733 855.753,78.0399 855.5,74.5 Z"/></g>
<g><path style="opacity:1" fill="#8c7447" d="M 377.5,75.5 C 376.595,79.6491 373.928,81.9824 369.5,82.5C 368.167,82.5 366.833,82.5 365.5,82.5C 368.402,81.3943 371.402,80.2276 374.5,79C 375.636,77.8549 376.636,76.6883 377.5,75.5 Z"/></g>
<g><path style="opacity:1" fill="#df8e28" d="M 325.5,75.5 C 325.703,77.0443 326.37,78.3777 327.5,79.5C 331.164,80.6306 334.831,81.6306 338.5,82.5C 338.611,83.1174 338.944,83.6174 339.5,84C 343.949,84.2641 348.283,85.0974 352.5,86.5C 354.516,85.8224 356.516,85.1557 358.5,84.5C 360.632,85.7268 362.966,86.7268 365.5,87.5C 369.634,85.3878 373.967,85.0545 378.5,86.5C 375.843,87.2592 373.177,87.9258 370.5,88.5C 369.653,90.061 369.986,91.561 371.5,93C 370.207,93.49 368.873,93.6567 367.5,93.5C 367.5,92.5 367.5,91.5 367.5,90.5C 365.473,90.6621 363.473,90.4955 361.5,90C 358.639,86.5077 356.306,86.841 354.5,91C 357.167,91.3333 359.833,91.6667 362.5,92C 364.398,93.417 366.064,94.917 367.5,96.5C 364.552,96.7771 361.719,96.4438 359,95.5C 358.139,96.7476 357.639,98.0809 357.5,99.5C 355.516,99.6168 353.85,98.9501 352.5,97.5C 352.167,98 351.833,98.5 351.5,99C 352.856,100.567 353.523,102.4 353.5,104.5C 352.127,104.343 350.793,104.51 349.5,105C 350.576,106.726 350.743,108.559 350,110.5C 349.282,109.549 348.449,109.383 347.5,110C 348.406,111.699 348.739,113.533 348.5,115.5C 347.681,117.772 347.015,120.106 346.5,122.5C 345.799,128.097 344.799,133.764 343.5,139.5C 341.5,139.5 339.5,139.5 337.5,139.5C 337.5,141.167 337.5,142.833 337.5,144.5C 337.5,145.167 337.167,145.5 336.5,145.5C 334.565,146.15 332.565,146.483 330.5,146.5C 330.552,148.903 330.219,151.236 329.5,153.5C 327.819,156.203 326.153,158.869 324.5,161.5C 322.179,163.09 321.179,165.423 321.5,168.5C 321.5,168.833 321.5,169.167 321.5,169.5C 320.5,169.5 319.5,169.5 318.5,169.5C 316.965,176.7 315.632,184.033 314.5,191.5C 312.925,190.544 311.258,189.877 309.5,189.5C 307.998,187.825 306.665,185.992 305.5,184C 304.207,183.51 302.873,183.343 301.5,183.5C 299.833,179.833 297.167,177.167 293.5,175.5C 292.833,174.5 292.167,173.5 291.5,172.5C 289.711,169.708 288.377,166.708 287.5,163.5C 286.5,163.5 285.5,163.5 284.5,163.5C 282.635,159.108 280.468,154.775 278,150.5C 277.329,149.748 276.496,149.414 275.5,149.5C 275.5,149.167 275.5,148.833 275.5,148.5C 275.5,145.167 275.5,141.833 275.5,138.5C 275.5,138.167 275.5,137.833 275.5,137.5C 278.833,134.833 281.833,131.833 284.5,128.5C 284.5,127.833 284.833,127.5 285.5,127.5C 288.5,126.5 290.5,124.5 291.5,121.5C 292.496,121.586 293.329,121.252 294,120.5C 295.75,118.266 297.25,115.932 298.5,113.5C 300.727,112.599 301.727,110.933 301.5,108.5C 302.82,107.058 304.486,106.392 306.5,106.5C 307.776,103.664 308.442,100.664 308.5,97.5C 309.451,96.0813 309.784,94.4147 309.5,92.5C 313.884,86.3154 315.718,79.3154 315,71.5C 318.366,73.2824 321.866,74.6157 325.5,75.5 Z"/></g>
<g><path style="opacity:1" fill="#a8844a" d="M 325.5,75.5 C 330.74,78.2393 336.073,80.5726 341.5,82.5C 340.5,82.5 339.5,82.5 338.5,82.5C 334.831,81.6306 331.164,80.6306 327.5,79.5C 326.37,78.3777 325.703,77.0443 325.5,75.5 Z"/></g>
<g><path style="opacity:0.953" fill="#a2834e" d="M 443.5,78.5 C 439.478,80.7339 435.144,82.4005 430.5,83.5C 434.085,80.1748 438.419,78.5081 443.5,78.5 Z"/></g>
<g><path style="opacity:1" fill="#ae8549" d="M 338.5,82.5 C 339.5,82.5 340.5,82.5 341.5,82.5C 349.5,83.8333 357.5,83.8333 365.5,82.5C 366.833,82.5 368.167,82.5 369.5,82.5C 369.082,83.2216 368.416,83.7216 367.5,84C 364.518,84.498 361.518,84.6646 358.5,84.5C 356.516,85.1557 354.516,85.8224 352.5,86.5C 348.283,85.0974 343.949,84.2641 339.5,84C 338.944,83.6174 338.611,83.1174 338.5,82.5 Z"/></g>
<g><path style="opacity:0.016" fill="#4a7477" d="M 223.5,84.5 C 217.267,85.2029 210.934,85.8695 204.5,86.5C 210.412,84.5437 216.745,83.8771 223.5,84.5 Z"/></g>
<g><path style="opacity:0.925" fill="#937c4a" d="M 429.5,83.5 C 425.385,84.9434 421.052,85.9434 416.5,86.5C 420.274,83.8393 424.607,82.8393 429.5,83.5 Z"/></g>
<g><path style="opacity:0.016" fill="#506d6d" d="M 134.5,83.5 C 135.147,84.2739 135.48,85.2739 135.5,86.5C 135.36,88.0296 134.693,89.0296 133.5,89.5C 134.341,87.6208 134.675,85.6208 134.5,83.5 Z"/></g>
<g><path style="opacity:0.945" fill="#9b7b46" d="M 416.5,86.5 C 412.264,87.4009 407.93,88.4009 403.5,89.5C 403.414,88.5041 403.748,87.6708 404.5,87C 408.486,86.5012 412.486,86.3345 416.5,86.5 Z"/></g>
<g><path style="opacity:0.945" fill="#937e52" d="M 402.5,89.5 C 400.858,90.803 399.191,92.1363 397.5,93.5C 397.746,90.5299 399.412,89.1966 402.5,89.5 Z"/></g>
<g><path style="opacity:0.008" fill="#717575" d="M 774.5,77.5 C 775.833,77.5 777.167,77.5 778.5,77.5C 778.828,88.3464 778.494,99.0131 777.5,109.5C 777.5,99.1667 777.5,88.8333 777.5,78.5C 776.209,78.7373 775.209,78.404 774.5,77.5 Z"/></g>
<g><path style="opacity:1" fill="#131415" d="M 549.5,111.5 C 549.821,113.048 550.821,113.715 552.5,113.5C 555.807,113.937 558.807,113.27 561.5,111.5C 562.713,109.149 562.047,107.316 559.5,106C 550.641,103.901 541.975,101.234 533.5,98C 521.568,85.2607 521.568,72.594 533.5,60C 539.9,56.3112 546.733,53.8112 554,52.5C 565.541,52.8147 576.708,54.9813 587.5,59C 588.833,65.6667 588.833,72.3333 587.5,79C 580.833,79.6667 574.167,79.6667 567.5,79C 565.857,73.3509 562.19,71.0176 556.5,72C 552.5,74.3333 552.5,76.6667 556.5,79C 563.087,80.9801 569.754,82.6468 576.5,84C 590.351,90.2089 595.185,100.709 591,115.5C 587,125.171 579.833,130.671 569.5,132C 556.301,133.286 543.301,132.286 530.5,129C 528.069,128.705 526.236,127.538 525,125.5C 524.333,119.5 524.333,113.5 525,107.5C 525.5,107 526,106.5 526.5,106C 533.241,106.044 540.241,106.377 547.5,107C 549.037,108.11 549.703,109.61 549.5,111.5 Z"/></g>
<g><path style="opacity:0.02" fill="#5b666b" d="M 599.5,87.5 C 600.491,93.979 600.824,100.646 600.5,107.5C 598.901,107.768 597.568,107.434 596.5,106.5C 597.496,106.586 598.329,106.252 599,105.5C 599.499,99.5092 599.666,93.5092 599.5,87.5 Z"/></g>
<g><path style="opacity:0.02" fill="#5b616b" d="M 166.5,84.5 C 168.167,84.5 169.833,84.5 171.5,84.5C 171.5,93.1667 171.5,101.833 171.5,110.5C 170.507,102.35 170.174,94.0168 170.5,85.5C 168.901,85.7678 167.568,85.4345 166.5,84.5 Z"/></g>
<g><path style="opacity:1" fill="#8a7148" d="M 309.5,92.5 C 309.784,94.4147 309.451,96.0813 308.5,97.5C 308.167,97.5 307.833,97.5 307.5,97.5C 307.796,95.597 308.463,93.9303 309.5,92.5 Z"/></g>
<g><path style="opacity:1" fill="#a77f48" d="M 367.5,96.5 C 371.31,95.976 373.31,97.6426 373.5,101.5C 368.337,96.6872 363.003,96.6872 357.5,101.5C 357.5,100.833 357.5,100.167 357.5,99.5C 357.639,98.0809 358.139,96.7476 359,95.5C 361.719,96.4438 364.552,96.7771 367.5,96.5 Z"/></g>
<g><path style="opacity:0.02" fill="#5a6566" d="M 646.5,83.5 C 647.492,91.3159 647.826,99.3159 647.5,107.5C 645.5,107.5 643.5,107.5 641.5,107.5C 642.919,106.549 644.585,106.216 646.5,106.5C 646.5,98.8333 646.5,91.1667 646.5,83.5 Z"/></g>
<g><path style="opacity:0.031" fill="#476465" d="M 0.5,85.5 C 1.91866,84.5489 3.58533,84.2155 5.5,84.5C 6.15471,104.861 5.48804,124.861 3.5,144.5C 4.48718,124.909 4.82051,105.243 4.5,85.5C 3.16667,85.5 1.83333,85.5 0.5,85.5 Z"/></g>
<g><path style="opacity:0.016" fill="#547070" d="M 678.5,72.5 C 679.186,84.0682 679.853,95.7349 680.5,107.5C 678.522,96.2146 677.855,84.5479 678.5,72.5 Z"/></g>
<g><path style="opacity:1" fill="#c28a40" d="M 307.5,97.5 C 307.833,97.5 308.167,97.5 308.5,97.5C 308.442,100.664 307.776,103.664 306.5,106.5C 304.486,106.392 302.82,107.058 301.5,108.5C 303.742,105.021 305.742,101.354 307.5,97.5 Z"/></g>
<g><path style="opacity:1" fill="#b8853f" d="M 357.5,99.5 C 357.5,100.167 357.5,100.833 357.5,101.5C 353.887,105.721 351.221,110.387 349.5,115.5C 349.167,115.5 348.833,115.5 348.5,115.5C 348.739,113.533 348.406,111.699 347.5,110C 348.449,109.383 349.282,109.549 350,110.5C 350.743,108.559 350.576,106.726 349.5,105C 350.793,104.51 352.127,104.343 353.5,104.5C 353.523,102.4 352.856,100.567 351.5,99C 351.833,98.5 352.167,98 352.5,97.5C 353.85,98.9501 355.516,99.6168 357.5,99.5 Z"/></g>
<g><path style="opacity:1" fill="#967e51" d="M 371.5,109.5 C 370.595,105.856 368.262,104.689 364.5,106C 361.127,109.292 358.127,112.792 355.5,116.5C 357.098,111.056 360.431,106.89 365.5,104C 369.836,103.167 371.836,105 371.5,109.5 Z"/></g>
<g><path style="opacity:0.961" fill="#9a8454" d="M 301.5,108.5 C 301.727,110.933 300.727,112.599 298.5,113.5C 299.11,111.566 300.11,109.899 301.5,108.5 Z"/></g>
<g><path style="opacity:0.027" fill="#536f6f" d="M 50.5,110.5 C 50.5,111.5 50.5,112.5 50.5,113.5C 49.5,113.5 48.5,113.5 47.5,113.5C 48.5,112.5 49.5,111.5 50.5,110.5 Z"/></g>
<g><path style="opacity:0.047" fill="#637777" d="M 549.5,111.5 C 550.71,111.932 551.71,112.599 552.5,113.5C 550.821,113.715 549.821,113.048 549.5,111.5 Z"/></g>
<g><path style="opacity:0.984" fill="#9f8250" d="M 397.5,94.5 C 396.828,102.576 395.828,110.576 394.5,118.5C 394.167,118.5 393.833,118.5 393.5,118.5C 393.876,110.812 394.543,103.146 395.5,95.5C 396.183,95.1373 396.85,94.8039 397.5,94.5 Z"/></g>
<g><path style="opacity:1" fill="#9b7f4f" d="M 373.5,101.5 C 374.586,101.62 375.253,102.287 375.5,103.5C 375.841,110.649 378.508,116.649 383.5,121.5C 380.944,120.457 378.777,118.79 377,116.5C 375.042,111.671 373.876,106.671 373.5,101.5 Z"/></g>
<g><path style="opacity:0.937" fill="#9a7d4b" d="M 298.5,113.5 C 297.25,115.932 295.75,118.266 294,120.5C 293.329,121.252 292.496,121.586 291.5,121.5C 293.094,118.236 295.427,115.569 298.5,113.5 Z"/></g>
<g><path style="opacity:0.008" fill="#6d807f" d="M 376.5,119.5 C 377.525,119.897 377.692,120.563 377,121.5C 376.536,120.906 376.369,120.239 376.5,119.5 Z"/></g>
<g><path style="opacity:1" fill="#957649" d="M 372.5,115.5 C 374.35,118.369 376.017,121.369 377.5,124.5C 374.069,122.652 372.403,119.652 372.5,115.5 Z"/></g>
<g><path style="opacity:0.063" fill="#816f4b" d="M 393.5,118.5 C 393.833,118.5 394.167,118.5 394.5,118.5C 394.714,120.144 394.38,121.644 393.5,123C 390.833,123.667 388.167,123.667 385.5,123C 384.584,122.722 383.918,122.222 383.5,121.5C 386.572,121.817 389.572,121.484 392.5,120.5C 392.863,119.817 393.196,119.15 393.5,118.5 Z"/></g>
<g><path style="opacity:0.055" fill="#7b6943" d="M 348.5,115.5 C 348.833,115.5 349.167,115.5 349.5,115.5C 348.171,121.567 347.171,127.567 346.5,133.5C 346.5,129.833 346.5,126.167 346.5,122.5C 347.015,120.106 347.681,117.772 348.5,115.5 Z"/></g>
<g><path style="opacity:0.98" fill="#9b8251" d="M 291.5,121.5 C 290.5,124.5 288.5,126.5 285.5,127.5C 287.077,124.95 289.077,122.95 291.5,121.5 Z"/></g>
<g><path style="opacity:0.98" fill="#8e7d51" d="M 355.5,117.5 C 355.665,120.518 355.498,123.518 355,126.5C 354.617,127.056 354.117,127.389 353.5,127.5C 353.549,123.922 354.215,120.589 355.5,117.5 Z"/></g>
<g><path style="opacity:0.012" fill="#526060" d="M 812.5,125.5 C 811.003,127.29 810.336,129.456 810.5,132C 810.569,133.986 811.235,135.486 812.5,136.5C 811.791,137.404 810.791,137.737 809.5,137.5C 809.334,132.489 809.501,127.489 810,122.5C 811.045,123.373 811.878,124.373 812.5,125.5 Z"/></g>
<g><path style="opacity:0.961" fill="#9d8456" d="M 284.5,128.5 C 281.833,131.833 278.833,134.833 275.5,137.5C 277.5,133.5 280.5,130.5 284.5,128.5 Z"/></g>
<g><path style="opacity:0.973" fill="#997a4c" d="M 377.5,125.5 C 384.71,128.469 392.043,130.802 399.5,132.5C 393.419,132.274 387.419,131.441 381.5,130C 379.365,129.124 378.031,127.624 377.5,125.5 Z"/></g>
<g><path style="opacity:1" fill="#b18c52" d="M 346.5,122.5 C 346.5,126.167 346.5,129.833 346.5,133.5C 346.539,136.089 345.539,138.089 343.5,139.5C 344.799,133.764 345.799,128.097 346.5,122.5 Z"/></g>
<g><path style="opacity:1" fill="#df8e28" d="M 371.5,109.5 C 372.461,111.265 372.795,113.265 372.5,115.5C 372.403,119.652 374.069,122.652 377.5,124.5C 377.5,124.833 377.5,125.167 377.5,125.5C 378.031,127.624 379.365,129.124 381.5,130C 387.419,131.441 393.419,132.274 399.5,132.5C 400.492,132.328 401.158,132.662 401.5,133.5C 401.5,134.5 401.5,135.5 401.5,136.5C 403.861,136.674 406.194,137.007 408.5,137.5C 408.833,137.5 409.167,137.5 409.5,137.5C 412.211,141.862 414.878,146.195 417.5,150.5C 418.386,154.037 420.719,155.704 424.5,155.5C 425.552,157.256 427.219,157.923 429.5,157.5C 431.102,159.074 433.102,159.741 435.5,159.5C 435.611,160.117 435.944,160.617 436.5,161C 438.473,161.495 440.473,161.662 442.5,161.5C 442.833,161.5 443.167,161.5 443.5,161.5C 444.99,163.28 446.99,163.946 449.5,163.5C 449.414,164.496 449.748,165.329 450.5,166C 453.478,166.696 456.478,167.196 459.5,167.5C 459.554,169.632 460.554,170.965 462.5,171.5C 463.265,174.096 463.599,176.763 463.5,179.5C 461.983,179.511 460.816,180.177 460,181.5C 459.174,184.793 458.674,188.126 458.5,191.5C 454.881,192.244 451.215,192.577 447.5,192.5C 447.5,193.5 447.5,194.5 447.5,195.5C 443.029,194.911 439.029,195.577 435.5,197.5C 432.609,198.403 429.609,198.736 426.5,198.5C 423.5,198.5 420.5,198.5 417.5,198.5C 410.119,198.686 402.786,198.186 395.5,197C 397.848,195.312 398.015,193.478 396,191.5C 395.348,193.723 393.848,194.89 391.5,195C 392.448,195.483 393.448,195.649 394.5,195.5C 394.672,197.492 394.005,199.158 392.5,200.5C 389.5,201.167 386.5,201.833 383.5,202.5C 383.931,203.293 384.265,204.127 384.5,205C 382.808,207.935 382.142,211.102 382.5,214.5C 379.167,214.5 375.833,214.5 372.5,214.5C 365.979,213.062 359.312,211.729 352.5,210.5C 352.167,210.5 351.833,210.5 351.5,210.5C 349.383,208.345 346.716,207.345 343.5,207.5C 339.838,203.403 335.171,201.403 329.5,201.5C 328.258,199.75 326.758,198.083 325,196.5C 324.454,189.816 324.62,183.149 325.5,176.5C 325.5,176.167 325.5,175.833 325.5,175.5C 328.066,170.56 330.732,165.56 333.5,160.5C 336.871,157.129 339.871,153.463 342.5,149.5C 349.352,148.318 353.019,144.318 353.5,137.5C 353.5,134.167 353.5,130.833 353.5,127.5C 354.117,127.389 354.617,127.056 355,126.5C 355.498,123.518 355.665,120.518 355.5,117.5C 355.5,117.167 355.5,116.833 355.5,116.5C 358.127,112.792 361.127,109.292 364.5,106C 368.262,104.689 370.595,105.856 371.5,109.5 Z M 399.5,159.5 C 400.983,162.411 400.65,165.078 398.5,167.5C 396.708,167.634 395.042,167.301 393.5,166.5C 391.302,160.37 393.302,158.037 399.5,159.5 Z"/></g>
<g><path style="opacity:1" fill="#af8347" d="M 401.5,133.5 C 404.326,133.998 406.66,135.331 408.5,137.5C 406.194,137.007 403.861,136.674 401.5,136.5C 401.5,135.5 401.5,134.5 401.5,133.5 Z"/></g>
<g><path style="opacity:0.984" fill="#8e7b50" d="M 353.5,127.5 C 353.5,130.833 353.5,134.167 353.5,137.5C 352.833,138.5 352.167,139.5 351.5,140.5C 351.438,135.924 352.105,131.591 353.5,127.5 Z"/></g>
<g><path style="opacity:0.875" fill="#3b4246" d="M 192.5,138.5 C 198.833,138.5 205.167,138.5 211.5,138.5C 205.126,140.748 198.793,140.748 192.5,138.5 Z"/></g>
<g><path style="opacity:1" fill="#b08042" d="M 343.5,139.5 C 341.54,141.156 339.54,142.823 337.5,144.5C 337.5,142.833 337.5,141.167 337.5,139.5C 339.5,139.5 341.5,139.5 343.5,139.5 Z"/></g>
<g><path style="opacity:0.027" fill="#5e6e6d" d="M 36.5,142.5 C 39.0545,143.388 41.7212,143.721 44.5,143.5C 43.3784,144.156 42.0451,144.489 40.5,144.5C 38.6672,144.415 37.3339,143.748 36.5,142.5 Z"/></g>
<g><path style="opacity:0.976" fill="#9e7f54" d="M 275.5,138.5 C 275.5,141.833 275.5,145.167 275.5,148.5C 274.266,146.799 273.599,144.799 273.5,142.5C 273.34,140.645 274.007,139.312 275.5,138.5 Z"/></g>
<g><path style="opacity:1" fill="#bf8a43" d="M 353.5,137.5 C 353.019,144.318 349.352,148.318 342.5,149.5C 345.349,146.263 348.349,143.263 351.5,140.5C 352.167,139.5 352.833,138.5 353.5,137.5 Z"/></g>
<g><path style="opacity:1" fill="#a98146" d="M 336.5,145.5 C 334.138,148.192 331.804,150.859 329.5,153.5C 330.219,151.236 330.552,148.903 330.5,146.5C 332.565,146.483 334.565,146.15 336.5,145.5 Z"/></g>
<g><path style="opacity:1" fill="#9e7e43" d="M 409.5,137.5 C 413.836,140.83 416.502,145.163 417.5,150.5C 414.878,146.195 412.211,141.862 409.5,137.5 Z"/></g>
<g><path style="opacity:0.988" fill="#8c7151" d="M 417.5,150.5 C 419.576,152.584 421.91,154.251 424.5,155.5C 420.719,155.704 418.386,154.037 417.5,150.5 Z"/></g>
<g><path style="opacity:1" fill="#9e8151" d="M 342.5,149.5 C 339.871,153.463 336.871,157.129 333.5,160.5C 333.709,159.078 334.209,157.745 335,156.5C 337.442,153.883 339.942,151.55 342.5,149.5 Z"/></g>
<g><path style="opacity:0.98" fill="#6d5837" d="M 424.5,155.5 C 426.403,155.796 428.07,156.463 429.5,157.5C 427.219,157.923 425.552,157.256 424.5,155.5 Z"/></g>
<g><path style="opacity:1" fill="#a88345" d="M 399.5,159.5 C 393.302,158.037 391.302,160.37 393.5,166.5C 392.5,166.5 391.5,166.5 390.5,166.5C 390.704,163.482 391.037,160.482 391.5,157.5C 394.698,156.964 397.365,157.631 399.5,159.5 Z"/></g>
<g><path style="opacity:1" fill="#857853" d="M 429.5,157.5 C 431.786,157.595 433.786,158.262 435.5,159.5C 433.102,159.741 431.102,159.074 429.5,157.5 Z"/></g>
<g><path style="opacity:0.055" fill="#747350" d="M 435.5,159.5 C 438.067,159.721 440.401,160.388 442.5,161.5C 440.473,161.662 438.473,161.495 436.5,161C 435.944,160.617 435.611,160.117 435.5,159.5 Z"/></g>
<g><path style="opacity:0.016" fill="#857142" d="M 399.5,159.5 C 401.369,161.635 402.036,164.302 401.5,167.5C 400.5,167.5 399.5,167.5 398.5,167.5C 400.65,165.078 400.983,162.411 399.5,159.5 Z"/></g>
<g><path style="opacity:0.996" fill="#917b50" d="M 443.5,161.5 C 445.786,161.595 447.786,162.262 449.5,163.5C 446.99,163.946 444.99,163.28 443.5,161.5 Z"/></g>
<g><path style="opacity:1" fill="#9c7e49" d="M 333.5,160.5 C 330.732,165.56 328.066,170.56 325.5,175.5C 326.487,169.536 329.153,164.536 333.5,160.5 Z"/></g>
<g><path style="opacity:1" fill="#a1834e" d="M 275.5,149.5 C 276.496,149.414 277.329,149.748 278,150.5C 280.468,154.775 282.635,159.108 284.5,163.5C 285.5,163.5 286.5,163.5 287.5,163.5C 288.377,166.708 289.711,169.708 291.5,172.5C 288.775,170.056 286.275,167.39 284,164.5C 281.169,159.505 278.335,154.505 275.5,149.5 Z"/></g>
<g><path style="opacity:1" fill="#a2844d" d="M 324.5,161.5 C 324.065,164.157 323.065,166.491 321.5,168.5C 321.179,165.423 322.179,163.09 324.5,161.5 Z"/></g>
<g><path style="opacity:1" fill="#a8844c" d="M 449.5,163.5 C 453.297,163.872 456.63,165.206 459.5,167.5C 456.478,167.196 453.478,166.696 450.5,166C 449.748,165.329 449.414,164.496 449.5,163.5 Z"/></g>
<g><path style="opacity:1" fill="#a18452" d="M 459.5,167.5 C 461.262,168.262 462.262,169.596 462.5,171.5C 460.554,170.965 459.554,169.632 459.5,167.5 Z"/></g>
<g><path style="opacity:0.996" fill="#8f7c50" d="M 293.5,175.5 C 297.167,177.167 299.833,179.833 301.5,183.5C 298.5,181.167 295.833,178.5 293.5,175.5 Z"/></g>
<g><path style="opacity:1" fill="#948463" d="M 462.5,171.5 C 465.976,173.859 466.309,176.526 463.5,179.5C 463.599,176.763 463.265,174.096 462.5,171.5 Z"/></g>
<g><path style="opacity:0.984" fill="#a4804c" d="M 321.5,169.5 C 318.395,176.851 316.729,184.851 316.5,193.5C 313.386,193.445 311.052,192.112 309.5,189.5C 311.258,189.877 312.925,190.544 314.5,191.5C 315.632,184.033 316.965,176.7 318.5,169.5C 319.5,169.5 320.5,169.5 321.5,169.5 Z"/></g>
<g><path style="opacity:1" fill="#aa854b" d="M 463.5,179.5 C 461.94,182.913 461.107,186.579 461,190.5C 457.168,193.834 452.668,195.501 447.5,195.5C 447.5,194.5 447.5,193.5 447.5,192.5C 451.215,192.577 454.881,192.244 458.5,191.5C 458.674,188.126 459.174,184.793 460,181.5C 460.816,180.177 461.983,179.511 463.5,179.5 Z"/></g>
<g><path style="opacity:0.996" fill="#957c4e" d="M 301.5,183.5 C 302.873,183.343 304.207,183.51 305.5,184C 306.665,185.992 307.998,187.825 309.5,189.5C 306.545,187.878 303.878,185.878 301.5,183.5 Z"/></g>
<g><path style="opacity:1" fill="#927c52" d="M 323.5,183.5 C 323.334,188.179 323.501,192.845 324,197.5C 324.717,198.044 325.217,198.711 325.5,199.5C 323.983,199.489 322.816,198.823 322,197.5C 321.127,192.556 321.627,187.89 323.5,183.5 Z"/></g>
<g><path style="opacity:1" fill="#bd8b43" d="M 325.5,176.5 C 324.62,183.149 324.454,189.816 325,196.5C 326.758,198.083 328.258,199.75 329.5,201.5C 327.847,201.34 326.514,200.674 325.5,199.5C 325.217,198.711 324.717,198.044 324,197.5C 323.501,192.845 323.334,188.179 323.5,183.5C 323.41,180.848 324.076,178.515 325.5,176.5 Z"/></g>
<g><path style="opacity:1" fill="#c1883e" d="M 417.5,198.5 C 414.695,199.319 411.695,199.819 408.5,200C 407.944,200.383 407.611,200.883 407.5,201.5C 402.595,202.572 397.595,203.238 392.5,203.5C 390.167,203.5 387.833,203.5 385.5,203.5C 385.5,204.5 385.5,205.5 385.5,206.5C 384.874,209.672 384.207,212.839 383.5,216C 379.642,216.81 375.976,216.643 372.5,215.5C 372.5,215.167 372.5,214.833 372.5,214.5C 375.833,214.5 379.167,214.5 382.5,214.5C 382.142,211.102 382.808,207.935 384.5,205C 384.265,204.127 383.931,203.293 383.5,202.5C 386.5,201.833 389.5,201.167 392.5,200.5C 394.005,199.158 394.672,197.492 394.5,195.5C 393.448,195.649 392.448,195.483 391.5,195C 393.848,194.89 395.348,193.723 396,191.5C 398.015,193.478 397.848,195.312 395.5,197C 402.786,198.186 410.119,198.686 417.5,198.5 Z"/></g>
<g><path style="opacity:0.031" fill="#84704b" d="M 447.5,195.5 C 443.764,196.989 439.764,197.656 435.5,197.5C 439.029,195.577 443.029,194.911 447.5,195.5 Z"/></g>
<g><path style="opacity:0.969" fill="#987d4e" d="M 417.5,198.5 C 420.5,198.5 423.5,198.5 426.5,198.5C 420.464,200.581 414.131,201.581 407.5,201.5C 407.611,200.883 407.944,200.383 408.5,200C 411.695,199.819 414.695,199.319 417.5,198.5 Z"/></g>
<g><path style="opacity:1" fill="#a8844b" d="M 329.5,201.5 C 335.171,201.403 339.838,203.403 343.5,207.5C 338.522,206.068 333.856,204.068 329.5,201.5 Z"/></g>
<g><path style="opacity:0.059" fill="#746b51" d="M 392.5,203.5 C 390.066,204.131 387.732,205.131 385.5,206.5C 385.5,205.5 385.5,204.5 385.5,203.5C 387.833,203.5 390.167,203.5 392.5,203.5 Z"/></g>
<g><path style="opacity:0.98" fill="#947c4d" d="M 343.5,207.5 C 346.716,207.345 349.383,208.345 351.5,210.5C 348.458,210.267 345.792,209.267 343.5,207.5 Z"/></g>
<g><path style="opacity:0.969" fill="#967d4b" d="M 352.5,210.5 C 359.312,211.729 365.979,213.062 372.5,214.5C 372.5,214.833 372.5,215.167 372.5,215.5C 367.16,214.777 361.827,213.943 356.5,213C 354.934,212.392 353.6,211.558 352.5,210.5 Z"/></g>
<g><path style="opacity:0.067" fill="#576064" d="M 759.5,244.5 C 760.833,244.5 762.167,244.5 763.5,244.5C 763.737,245.791 763.404,246.791 762.5,247.5C 761.694,246.272 760.694,245.272 759.5,244.5 Z"/></g>
<g><path style="opacity:0.901" fill="#0f161b" d="M 673.5,247.5 C 670.762,246.965 668.928,247.965 668,250.5C 666.492,248.162 664.325,247.162 661.5,247.5C 660.957,247.44 660.624,247.107 660.5,246.5C 662.465,245.708 664.465,245.041 666.5,244.5C 668.396,244.336 670.396,244.669 672.5,245.5C 674.418,245.861 674.751,246.528 673.5,247.5 Z"/></g>
<g><path style="opacity:0.039" fill="#466262" d="M 356.5,247.5 C 357.833,247.5 359.167,247.5 360.5,247.5C 360.768,249.099 360.434,250.432 359.5,251.5C 358.789,249.97 357.789,248.637 356.5,247.5 Z"/></g>
<g><path style="opacity:0.012" fill="#595e60" d="M 245.5,247.5 C 244.41,248.857 243.076,249.857 241.5,250.5C 240.226,249.811 240.226,248.977 241.5,248C 242.793,247.51 244.127,247.343 245.5,247.5 Z"/></g>
<g><path style="opacity:0.027" fill="#587170" d="M 811.5,247.5 C 812.5,247.5 813.5,247.5 814.5,247.5C 814.5,248.833 814.5,250.167 814.5,251.5C 813.026,250.564 812.026,249.23 811.5,247.5 Z"/></g>
<g><path style="opacity:0.894" fill="#38474a" d="M 661.5,247.5 C 664.325,247.162 666.492,248.162 668,250.5C 668.928,247.965 670.762,246.965 673.5,247.5C 670.316,248.693 668.649,251.026 668.5,254.5C 667.842,253.602 667.176,252.602 666.5,251.5C 665.818,252.243 665.151,252.909 664.5,253.5C 664.385,251.053 663.385,249.053 661.5,247.5 Z"/></g>
<g><path style="opacity:1" fill="#121516" d="M 226.5,247.5 C 221.983,246.969 221.316,248.302 224.5,251.5C 225.912,253.604 226.912,255.937 227.5,258.5C 228.217,260.937 229.217,263.27 230.5,265.5C 232.436,261.961 234.102,258.295 235.5,254.5C 235.263,253.209 235.596,252.209 236.5,251.5C 238.104,250.713 238.771,249.38 238.5,247.5C 236.585,247.216 234.919,247.549 233.5,248.5C 232.522,248.189 231.855,247.522 231.5,246.5C 232.688,245.16 234.188,244.493 236,244.5C 239.027,244.775 242.194,244.942 245.5,245C 246.774,245.977 246.774,246.811 245.5,247.5C 244.127,247.343 242.793,247.51 241.5,248C 240.226,248.977 240.226,249.811 241.5,250.5C 233.975,260.928 231.141,272.595 233,285.5C 233.335,287.503 234.168,289.17 235.5,290.5C 228.5,290.5 221.5,290.5 214.5,290.5C 215.209,289.596 216.209,289.263 217.5,289.5C 218.82,286.572 219.486,283.239 219.5,279.5C 219.498,275.982 219.165,272.649 218.5,269.5C 215.578,265.316 213.412,260.649 212,255.5C 210.262,251.759 207.762,248.592 204.5,246C 210.196,245.743 215.863,245.243 221.5,244.5C 223.197,244.899 224.863,245.399 226.5,246C 227.738,246.69 227.738,247.19 226.5,247.5 Z"/></g>
<g><path style="opacity:0.053" fill="#586767" d="M 233.5,248.5 C 234.919,247.549 236.585,247.216 238.5,247.5C 238.771,249.38 238.104,250.713 236.5,251.5C 235.833,250.167 234.833,249.167 233.5,248.5 Z"/></g>
<g><path style="opacity:0.059" fill="#495d65" d="M 226.5,247.5 C 225.4,248.605 224.733,249.938 224.5,251.5C 221.316,248.302 221.983,246.969 226.5,247.5 Z"/></g>
<g><path style="opacity:1" fill="#111314" d="M 442.5,249.5 C 442.5,253.167 442.5,256.833 442.5,260.5C 445.167,260.5 447.833,260.5 450.5,260.5C 451.833,260.833 451.833,261.167 450.5,261.5C 447.833,261.5 445.167,261.5 442.5,261.5C 442.174,270.349 442.507,279.016 443.5,287.5C 445.505,288.124 447.172,287.29 448.5,285C 447.353,282.915 448.02,281.415 450.5,280.5C 451.107,280.624 451.44,280.957 451.5,281.5C 451.122,283.921 450.455,286.254 449.5,288.5C 449.167,289.167 448.833,289.833 448.5,290.5C 443.167,290.5 437.833,290.5 432.5,290.5C 430.925,288.453 429.925,286.119 429.5,283.5C 430.13,275.757 429.463,268.424 427.5,261.5C 426.167,261.167 426.167,260.833 427.5,260.5C 429.388,258.012 430.055,255.012 429.5,251.5C 433.001,250.372 436.667,249.372 440.5,248.5C 441.416,248.543 442.083,248.876 442.5,249.5 Z"/></g>
<g><path style="opacity:1" fill="#121415" d="M 830.5,247.5 C 829.5,247.5 828.5,247.5 827.5,247.5C 827.168,261.913 827.501,275.58 828.5,288.5C 829.71,288.932 830.71,289.599 831.5,290.5C 824.5,290.5 817.5,290.5 810.5,290.5C 811.6,289.442 812.934,288.608 814.5,288C 813.215,275.876 813.215,263.709 814.5,251.5C 814.5,250.167 814.5,248.833 814.5,247.5C 813.5,247.5 812.5,247.5 811.5,247.5C 810.624,247.631 809.957,247.298 809.5,246.5C 810.438,245.447 811.605,244.78 813,244.5C 819.054,244.8 825.221,245.467 831.5,246.5C 831.376,247.107 831.043,247.44 830.5,247.5 Z"/></g>
<g><path style="opacity:1" fill="#131516" d="M 842.5,250.5 C 844.19,251.103 845.69,252.103 847,253.5C 847.5,265.162 847.667,276.829 847.5,288.5C 849.698,288.12 851.365,288.787 852.5,290.5C 847.833,290.5 843.167,290.5 838.5,290.5C 837.093,288.692 835.926,286.692 835,284.5C 834.667,277.167 834.333,269.833 834,262.5C 832.62,261.744 832.453,261.078 833.5,260.5C 835.308,259.082 835.975,257.082 835.5,254.5C 834.402,253.603 834.402,252.77 835.5,252C 837.677,250.798 840.011,250.298 842.5,250.5 Z"/></g>
<g><path style="opacity:1" fill="#141717" d="M 382.5,272.5 C 379.5,272.5 376.5,272.5 373.5,272.5C 373.263,273.791 373.596,274.791 374.5,275.5C 374.354,279.956 374.354,284.622 374.5,289.5C 376.735,289.205 378.735,289.539 380.5,290.5C 371.833,290.5 363.167,290.5 354.5,290.5C 355.878,289.766 357.378,289.099 359,288.5C 359.198,276.967 359.698,265.467 360.5,254C 360.257,253.098 359.923,252.265 359.5,251.5C 360.434,250.432 360.768,249.099 360.5,247.5C 359.167,247.5 357.833,247.5 356.5,247.5C 353.972,246.482 354.139,245.482 357,244.5C 367.12,244.524 377.287,245.357 387.5,247C 392.229,249.27 394.895,253.103 395.5,258.5C 394.634,266.366 390.301,271.033 382.5,272.5 Z M 376.5,248.5 C 377.122,249.627 377.955,250.627 379,251.5C 379.667,256.5 379.667,261.5 379,266.5C 378.363,268.303 377.197,269.636 375.5,270.5C 374.702,270.043 374.369,269.376 374.5,268.5C 373.874,261.416 374.541,254.75 376.5,248.5 Z"/></g>
<g><path style="opacity:0.016" fill="#527272" d="M 835.5,254.5 C 835.975,257.082 835.308,259.082 833.5,260.5C 834.048,258.374 834.715,256.374 835.5,254.5 Z"/></g>
<g><path style="opacity:0.024" fill="#59646a" d="M 376.5,248.5 C 374.541,254.75 373.874,261.416 374.5,268.5C 373.509,261.687 373.175,254.687 373.5,247.5C 374.791,247.263 375.791,247.596 376.5,248.5 Z"/></g>
<g><path style="opacity:0.012" fill="#5b6767" d="M 235.5,254.5 C 234.102,258.295 232.436,261.961 230.5,265.5C 229.217,263.27 228.217,260.937 227.5,258.5C 228.88,257.294 230.047,257.627 231,259.5C 231.996,257.34 233.496,255.673 235.5,254.5 Z"/></g>
<g><path style="opacity:0.035" fill="#5e7878" d="M 429.5,251.5 C 430.055,255.012 429.388,258.012 427.5,260.5C 428.088,257.39 428.755,254.39 429.5,251.5 Z"/></g>
<g><path style="opacity:0.027" fill="#586768" d="M 442.5,249.5 C 443.479,252.625 443.813,255.958 443.5,259.5C 446.059,259.198 448.393,259.532 450.5,260.5C 447.833,260.5 445.167,260.5 442.5,260.5C 442.5,256.833 442.5,253.167 442.5,249.5 Z"/></g>
<g><path style="opacity:0.047" fill="#5e7070" d="M 427.5,261.5 C 429.463,268.424 430.13,275.757 429.5,283.5C 428.802,276.266 428.136,268.933 427.5,261.5 Z"/></g>
<g><path style="opacity:0.024" fill="#48566a" d="M 757.5,259.5 C 759.233,260.008 759.566,260.841 758.5,262C 756.934,262.765 755.601,262.598 754.5,261.5C 756.179,261.715 757.179,261.048 757.5,259.5 Z"/></g>
<g><path style="opacity:1" fill="#141617" d="M 630.5,245.5 C 630.5,246.167 630.5,246.833 630.5,247.5C 629.022,247.238 627.689,247.571 626.5,248.5C 627.028,250.336 627.694,252.003 628.5,253.5C 630.774,257.92 632.441,262.586 633.5,267.5C 633.737,270.647 634.57,273.647 636,276.5C 637.807,270.912 639.307,265.245 640.5,259.5C 640.276,256.92 639.609,254.586 638.5,252.5C 638.817,248.828 637.151,247.162 633.5,247.5C 633.5,246.833 633.5,246.167 633.5,245.5C 640.512,244.221 647.512,244.554 654.5,246.5C 653.509,247.665 652.509,248.832 651.5,250C 654.301,256.548 656.301,263.048 657.5,269.5C 657.995,271.482 658.495,273.482 659,275.5C 660.759,272.392 661.592,269.059 661.5,265.5C 661.586,264.504 661.252,263.671 660.5,263C 662.512,259.995 663.845,256.829 664.5,253.5C 665.151,252.909 665.818,252.243 666.5,251.5C 667.176,252.602 667.842,253.602 668.5,254.5C 668.5,254.833 668.5,255.167 668.5,255.5C 667.034,256.347 666.2,257.68 666,259.5C 664.67,264.484 663.504,269.484 662.5,274.5C 661.496,279.842 660.496,285.175 659.5,290.5C 656.5,290.5 653.5,290.5 650.5,290.5C 648.99,286.145 647.323,281.812 645.5,277.5C 646.484,275.402 646.151,273.402 644.5,271.5C 644.301,269.04 643.635,266.707 642.5,264.5C 640.482,267.888 639.482,271.554 639.5,275.5C 638.322,280.543 636.989,285.543 635.5,290.5C 632.5,290.5 629.5,290.5 626.5,290.5C 622.293,276.723 617.46,263.057 612,249.5C 610.513,248.845 609.347,247.845 608.5,246.5C 610.707,244.971 613.207,244.305 616,244.5C 620.819,245.091 625.652,245.424 630.5,245.5 Z M 630.5,247.5 C 631.5,247.5 632.5,247.5 633.5,247.5C 635.167,249.167 636.833,250.833 638.5,252.5C 638.817,257.672 638.151,262.672 636.5,267.5C 635.5,267.5 634.5,267.5 633.5,267.5C 632.441,262.586 630.774,257.92 628.5,253.5C 628.966,251.799 628.966,250.299 628.5,249C 629.416,248.722 630.082,248.222 630.5,247.5 Z"/></g>
<g><path style="opacity:0.012" fill="#51535a" d="M 633.5,247.5 C 637.151,247.162 638.817,248.828 638.5,252.5C 636.833,250.833 635.167,249.167 633.5,247.5 Z"/></g>
<g><path style="opacity:0.027" fill="#586c6d" d="M 630.5,247.5 C 630.082,248.222 629.416,248.722 628.5,249C 628.966,250.299 628.966,251.799 628.5,253.5C 627.694,252.003 627.028,250.336 626.5,248.5C 627.689,247.571 629.022,247.238 630.5,247.5 Z"/></g>
<g><path style="opacity:0.016" fill="#4e717c" d="M 630.5,245.5 C 631.5,245.5 632.5,245.5 633.5,245.5C 633.5,246.167 633.5,246.833 633.5,247.5C 632.5,247.5 631.5,247.5 630.5,247.5C 630.5,246.833 630.5,246.167 630.5,245.5 Z"/></g>
<g><path style="opacity:0.016" fill="#477878" d="M 703.5,261.5 C 704.5,261.5 705.5,261.5 706.5,261.5C 706.715,263.179 706.048,264.179 704.5,264.5C 704.443,263.391 704.11,262.391 703.5,261.5 Z"/></g>
<g><path style="opacity:1" fill="#141617" d="M 799.5,290.5 C 786.167,290.5 772.833,290.5 759.5,290.5C 759.842,289.662 760.508,289.328 761.5,289.5C 762.83,283.034 763.497,276.201 763.5,269C 763.5,261.992 763.166,255.158 762.5,248.5C 762.5,248.167 762.5,247.833 762.5,247.5C 763.404,246.791 763.737,245.791 763.5,244.5C 762.167,244.5 760.833,244.5 759.5,244.5C 761.743,243.188 764.41,242.522 767.5,242.5C 770.167,242.667 772.833,242.833 775.5,243C 776.312,249.085 776.812,255.252 777,261.5C 782.522,258.23 787.855,258.23 793,261.5C 793.667,262.833 794.333,264.167 795,265.5C 795.168,273.521 795.668,281.521 796.5,289.5C 797.922,288.223 798.922,288.557 799.5,290.5 Z M 781.5,271.5 C 781.789,277.591 781.455,283.591 780.5,289.5C 778.052,289.99 776.385,289.157 775.5,287C 776.811,281.174 776.811,275.34 775.5,269.5C 779.604,262.279 781.604,262.945 781.5,271.5 Z"/></g>
<g><path style="opacity:1" fill="#151719" d="M 294.5,286.5 C 295.686,287.705 295.686,289.039 294.5,290.5C 289.833,290.5 285.167,290.5 280.5,290.5C 279.242,288.313 278.242,285.98 277.5,283.5C 277.831,276.137 277.497,268.803 276.5,261.5C 275.893,261.624 275.56,261.957 275.5,262.5C 274.596,261.791 274.263,260.791 274.5,259.5C 279.797,260.275 285.13,260.608 290.5,260.5C 290.334,268.507 290.5,276.507 291,284.5C 291.335,287.19 292.501,287.857 294.5,286.5 Z"/></g>
<g><path style="opacity:0.039" fill="#485c5d" d="M 668.5,255.5 C 668.131,257.441 667.464,259.275 666.5,261C 666.957,261.414 667.291,261.914 667.5,262.5C 665.819,264.992 665.152,267.492 665.5,270C 664.219,271.409 663.219,272.909 662.5,274.5C 663.504,269.484 664.67,264.484 666,259.5C 666.2,257.68 667.034,256.347 668.5,255.5 Z"/></g>
<g><path style="opacity:1" fill="#111516" d="M 333.5,290.5 C 321.5,290.5 309.5,290.5 297.5,290.5C 296.64,280.861 296.307,271.194 296.5,261.5C 295.5,261.5 294.5,261.5 293.5,261.5C 292.262,261.19 292.262,260.69 293.5,260C 297.167,259.333 300.833,259.333 304.5,260C 306.663,260.245 308.33,261.245 309.5,263C 308.304,271.779 308.304,280.612 309.5,289.5C 311.167,289.5 312.833,289.5 314.5,289.5C 315.827,285.217 316.493,280.551 316.5,275.5C 316.487,270.587 316.154,265.753 315.5,261C 316.416,260.722 317.082,260.222 317.5,259.5C 321.767,259.752 325.934,260.419 330,261.5C 335.333,257.5 340,258.167 344,263.5C 345.429,271.405 342.262,274.572 334.5,273C 331.766,270.354 331.433,267.687 333.5,265C 332.551,264.383 331.718,264.549 331,265.5C 329.04,268.884 328.207,272.55 328.5,276.5C 328.786,280.844 329.12,285.177 329.5,289.5C 331.099,289.232 332.432,289.566 333.5,290.5 Z"/></g>
<g><path style="opacity:0.012" fill="#4d595a" d="M 317.5,259.5 C 317.082,260.222 316.416,260.722 315.5,261C 316.154,265.753 316.487,270.587 316.5,275.5C 316.493,280.551 315.827,285.217 314.5,289.5C 315.636,280.912 315.802,272.245 315,263.5C 311.815,260.462 312.648,259.129 317.5,259.5 Z"/></g>
<g><path style="opacity:0.012" fill="#545c60" d="M 638.5,252.5 C 639.609,254.586 640.276,256.92 640.5,259.5C 639.307,265.245 637.807,270.912 636,276.5C 634.57,273.647 633.737,270.647 633.5,267.5C 634.5,267.5 635.5,267.5 636.5,267.5C 638.151,262.672 638.817,257.672 638.5,252.5 Z"/></g>
<g><path style="opacity:1" fill="#151819" d="M 420.5,290.5 C 414.167,290.5 407.833,290.5 401.5,290.5C 398.039,288.525 395.873,285.525 395,281.5C 391.254,267.391 396.754,259.725 411.5,258.5C 421.488,259.702 426.154,265.202 425.5,275C 419.804,275.17 414.138,275.67 408.5,276.5C 407.87,279.882 408.37,283.215 410,286.5C 413.228,289.13 416.395,288.964 419.5,286C 421.019,284.649 422.352,283.149 423.5,281.5C 424.287,282.242 424.953,283.075 425.5,284C 423.461,285.926 421.794,288.093 420.5,290.5 Z M 408.5,262.5 C 410.062,262.733 411.395,263.4 412.5,264.5C 412.5,267.167 412.5,269.833 412.5,272.5C 410.571,272.769 408.905,272.269 407.5,271C 408.444,268.281 408.777,265.448 408.5,262.5 Z"/></g>
<g><path style="opacity:0.063" fill="#5c666e" d="M 408.5,262.5 C 409.568,261.566 410.901,261.232 412.5,261.5C 412.5,262.5 412.5,263.5 412.5,264.5C 411.395,263.4 410.062,262.733 408.5,262.5 Z"/></g>
<g><path style="opacity:0.031" fill="#505f5f" d="M 830.5,247.5 C 829.077,249.756 828.41,252.256 828.5,255C 828.675,266.325 828.675,277.492 828.5,288.5C 827.501,275.58 827.168,261.913 827.5,247.5C 828.5,247.5 829.5,247.5 830.5,247.5 Z"/></g>
<g><path style="opacity:0.02" fill="#5a5f61" d="M 565.5,263.5 C 566.338,263.842 566.672,264.508 566.5,265.5C 567.107,269.361 566.44,273.028 564.5,276.5C 564.586,275.504 564.252,274.671 563.5,274C 560.635,273.817 557.969,273.317 555.5,272.5C 563.253,274.414 566.586,271.414 565.5,263.5 Z"/></g>
<g><path style="opacity:0.053" fill="#515e63" d="M 644.5,271.5 C 643.85,271.196 643.183,270.863 642.5,270.5C 641.935,272.544 640.935,274.21 639.5,275.5C 639.482,271.554 640.482,267.888 642.5,264.5C 643.635,266.707 644.301,269.04 644.5,271.5 Z"/></g>
<g><path style="opacity:0.043" fill="#555f5f" d="M 661.5,265.5 C 661.592,269.059 660.759,272.392 659,275.5C 658.495,273.482 657.995,271.482 657.5,269.5C 658.239,269.631 658.906,269.464 659.5,269C 660.085,267.698 660.751,266.531 661.5,265.5 Z"/></g>
<g><path style="opacity:1" fill="#131516" d="M 702.5,270.5 C 701.659,275.01 700.992,279.676 700.5,284.5C 699.527,287.135 697.86,289.135 695.5,290.5C 688.833,290.5 682.167,290.5 675.5,290.5C 668.587,284.135 666.754,276.469 670,267.5C 671.122,265.376 672.622,263.543 674.5,262C 684.407,256.305 693.241,257.472 701,265.5C 701.352,267.247 701.852,268.914 702.5,270.5 Z M 687.5,262.5 C 688.302,269.804 688.635,277.138 688.5,284.5C 687.766,285.878 687.099,287.378 686.5,289C 685.002,289.585 684.002,289.085 683.5,287.5C 683.334,279.493 683.5,271.493 684,263.5C 685.011,262.663 686.178,262.33 687.5,262.5 Z"/></g>
<g><path style="opacity:0.02" fill="#5c6267" d="M 702.5,270.5 C 702.666,274.514 702.499,278.514 702,282.5C 701.722,283.416 701.222,284.082 700.5,284.5C 700.992,279.676 701.659,275.01 702.5,270.5 Z"/></g>
<g><path style="opacity:1" fill="#161a1b" d="M 267.5,290.5 C 260.833,290.5 254.167,290.5 247.5,290.5C 244.861,288.691 242.694,286.358 241,283.5C 238.792,274.321 240.792,266.321 247,259.5C 247.333,259.833 247.667,260.167 248,260.5C 264.497,254.988 273.33,260.821 274.5,278C 273.323,282.858 270.99,287.025 267.5,290.5 Z M 256.5,261.5 C 257.458,261.953 258.292,262.619 259,263.5C 259.184,271.079 259.684,278.579 260.5,286C 259.333,287.167 258.167,288.333 257,289.5C 256.333,288.833 255.667,288.167 255,287.5C 254.333,279.5 254.333,271.5 255,263.5C 255.717,262.956 256.217,262.289 256.5,261.5 Z"/></g>
<g><path style="opacity:1" fill="#171b1c" d="M 468.5,262.5 C 462.361,259.804 459.361,261.804 459.5,268.5C 461.5,268.5 463.5,268.5 465.5,268.5C 475.457,269.292 479.623,274.625 478,284.5C 476.668,286.66 475.168,288.66 473.5,290.5C 466.5,290.5 459.5,290.5 452.5,290.5C 452.167,289.833 451.833,289.167 451.5,288.5C 452.468,286.393 452.802,284.059 452.5,281.5C 452.369,280.624 452.702,279.957 453.5,279.5C 454.7,280.531 456.034,281.365 457.5,282C 457.043,282.414 456.709,282.914 456.5,283.5C 459.22,288.129 463.22,289.962 468.5,289C 470.211,287.867 470.711,286.367 470,284.5C 465.448,282.87 460.948,281.036 456.5,279C 450.078,273.108 450.078,267.108 456.5,261C 463.184,259.625 469.85,259.125 476.5,259.5C 476.915,263.375 476.415,267.042 475,270.5C 473.067,267.63 470.901,264.963 468.5,262.5 Z"/></g>
<g><path style="opacity:0.004" fill="#000000" d="M 462.5,266.5 C 462.897,265.475 463.563,265.308 464.5,266C 463.906,266.464 463.239,266.631 462.5,266.5 Z"/></g>
<g><path style="opacity:0.043" fill="#4a5158" d="M 468.5,262.5 C 465.293,262.124 462.627,263.124 460.5,265.5C 460.957,266.298 461.624,266.631 462.5,266.5C 463.5,267.167 464.5,267.833 465.5,268.5C 463.5,268.5 461.5,268.5 459.5,268.5C 459.361,261.804 462.361,259.804 468.5,262.5 Z"/></g>
<g><path style="opacity:0.928" fill="#15181a" d="M 757.5,259.5 C 757.179,261.048 756.179,261.715 754.5,261.5C 753.178,261.33 752.011,261.663 751,262.5C 750.333,269.833 750.333,277.167 751,284.5C 751.594,288.818 753.094,289.318 755.5,286C 754.167,284.16 754.334,283.66 756,284.5C 756.792,282.356 758.292,281.023 760.5,280.5C 759.216,284.014 757.55,287.347 755.5,290.5C 750.5,290.5 745.5,290.5 740.5,290.5C 738.65,288.134 737.317,285.467 736.5,282.5C 737.794,276.147 737.794,269.814 736.5,263.5C 736.167,263.167 735.833,262.833 735.5,262.5C 734.682,265.107 734.182,267.774 734,270.5C 731.79,273.29 728.956,274.123 725.5,273C 723.845,271.556 723.178,269.722 723.5,267.5C 723.5,266.833 723.5,266.167 723.5,265.5C 726.315,265.217 726.815,264.217 725,262.5C 722.695,262.973 721.195,264.307 720.5,266.5C 718.843,269.089 718.509,271.756 719.5,274.5C 718.872,279.423 719.039,284.423 720,289.5C 721,289.167 722,288.833 723,288.5C 723.717,289.044 724.217,289.711 724.5,290.5C 717.5,290.5 710.5,290.5 703.5,290.5C 703.5,289.833 703.833,289.5 704.5,289.5C 705.805,287.603 706.471,285.269 706.5,282.5C 706.497,279.975 706.163,277.641 705.5,275.5C 705.756,271.731 705.423,268.064 704.5,264.5C 706.048,264.179 706.715,263.179 706.5,261.5C 705.5,261.5 704.5,261.5 703.5,261.5C 703.611,260.883 703.944,260.383 704.5,260C 708.821,259.501 713.154,259.334 717.5,259.5C 717.892,261.179 718.392,262.846 719,264.5C 719.717,263.956 720.217,263.289 720.5,262.5C 721.338,262.158 721.672,261.492 721.5,260.5C 723.679,259.941 725.846,259.274 728,258.5C 730.724,259.687 733.557,260.353 736.5,260.5C 736.183,257.428 736.516,254.428 737.5,251.5C 741.713,250.089 746.046,249.422 750.5,249.5C 750.5,253.167 750.5,256.833 750.5,260.5C 752.861,260.326 755.194,259.993 757.5,259.5 Z"/></g>
<g><path style="opacity:0.035" fill="#546c71" d="M 720.5,266.5 C 720.425,269.206 720.092,271.873 719.5,274.5C 718.509,271.756 718.843,269.089 720.5,266.5 Z"/></g>
<g><path style="opacity:0.075" fill="#60666f" d="M 723.5,265.5 C 723.5,266.167 723.5,266.833 723.5,267.5C 722.609,266.89 721.609,266.557 720.5,266.5C 721.195,264.307 722.695,262.973 725,262.5C 726.815,264.217 726.315,265.217 723.5,265.5 Z"/></g>
<g><path style="opacity:0.018" fill="#545a5d" d="M 717.5,259.5 C 718.708,260.234 720.041,260.567 721.5,260.5C 721.672,261.492 721.338,262.158 720.5,262.5C 720.217,263.289 719.717,263.956 719,264.5C 718.392,262.846 717.892,261.179 717.5,259.5 Z"/></g>
<g><path style="opacity:0.012" fill="#536263" d="M 450.5,261.5 C 448.393,262.468 446.059,262.802 443.5,262.5C 443.5,270.833 443.5,279.167 443.5,287.5C 442.507,279.016 442.174,270.349 442.5,261.5C 445.167,261.5 447.833,261.5 450.5,261.5 Z"/></g>
<g><path style="opacity:0.02" fill="#596369" d="M 275.5,262.5 C 275.56,261.957 275.893,261.624 276.5,261.5C 277.497,268.803 277.831,276.137 277.5,283.5C 276.833,276.5 276.167,269.5 275.5,262.5 Z"/></g>
<g><path style="opacity:0.916" fill="#14181a" d="M 596.5,274.5 C 590.463,274.171 584.463,274.504 578.5,275.5C 578.624,276.107 578.957,276.44 579.5,276.5C 578.896,280.85 580.229,284.684 583.5,288C 585.167,288.667 586.833,288.667 588.5,288C 589.486,285.672 591.486,283.672 594.5,282C 595.932,281.73 596.932,282.396 597.5,284C 595.294,286.037 593.294,288.203 591.5,290.5C 585.167,290.5 578.833,290.5 572.5,290.5C 570.46,288.805 568.626,286.805 567,284.5C 566.458,281.708 565.624,279.042 564.5,276.5C 566.44,273.028 567.107,269.361 566.5,265.5C 569.354,263.491 572.354,261.657 575.5,260C 580.167,259.333 584.833,259.333 589.5,260C 595.59,263.133 597.923,267.967 596.5,274.5 Z M 583.5,262.5 C 583.747,265.939 583.414,269.272 582.5,272.5C 581.5,272.5 580.5,272.5 579.5,272.5C 579.5,270.167 579.5,267.833 579.5,265.5C 580.236,263.771 581.57,262.771 583.5,262.5 Z"/></g>
<g><path style="opacity:0.02" fill="#5a6c6c" d="M 583.5,262.5 C 584.16,263.964 584.493,265.631 584.5,267.5C 584.444,269.64 583.777,271.306 582.5,272.5C 583.414,269.272 583.747,265.939 583.5,262.5 Z"/></g>
<g><path style="opacity:0.035" fill="#5b6868" d="M 583.5,262.5 C 581.57,262.771 580.236,263.771 579.5,265.5C 579.337,261.965 580.67,260.965 583.5,262.5 Z"/></g>
<g><path style="opacity:0.018" fill="#585960" d="M 644.5,271.5 C 646.151,273.402 646.484,275.402 645.5,277.5C 644.85,275.565 644.517,273.565 644.5,271.5 Z"/></g>
<g><path style="opacity:0.012" fill="#595f5f" d="M 382.5,272.5 C 379.523,272.902 376.857,273.902 374.5,275.5C 373.596,274.791 373.263,273.791 373.5,272.5C 376.5,272.5 379.5,272.5 382.5,272.5 Z"/></g>
<g><path style="opacity:0.035" fill="#55656b" d="M 596.5,274.5 C 590.833,275.167 585.167,275.833 579.5,276.5C 578.957,276.44 578.624,276.107 578.5,275.5C 584.463,274.504 590.463,274.171 596.5,274.5 Z"/></g>
<g><path style="opacity:0.027" fill="#50686b" d="M 218.5,269.5 C 219.165,272.649 219.498,275.982 219.5,279.5C 219.486,283.239 218.82,286.572 217.5,289.5C 218.46,282.922 218.793,276.255 218.5,269.5 Z"/></g>
<g><path style="opacity:0.027" fill="#54636b" d="M 513.5,279.5 C 509.65,276.401 505.317,275.734 500.5,277.5C 502.048,276.206 504.048,275.539 506.5,275.5C 508.5,275.667 510.5,275.833 512.5,276C 513.337,277.011 513.67,278.178 513.5,279.5 Z"/></g>
<g><path style="opacity:0.928" fill="#1d2a2d" d="M 857.5,260.5 C 857.5,260.833 857.5,261.167 857.5,261.5C 854.896,262.53 852.229,262.53 849.5,261.5C 848.826,270.13 848.826,278.796 849.5,287.5C 850.552,287.649 851.552,287.483 852.5,287C 853.851,284.736 855.517,282.902 857.5,281.5C 857.5,283.5 857.5,285.5 857.5,287.5C 855.952,287.821 855.285,288.821 855.5,290.5C 854.5,290.5 853.5,290.5 852.5,290.5C 851.365,288.787 849.698,288.12 847.5,288.5C 847.667,276.829 847.5,265.162 847,253.5C 845.69,252.103 844.19,251.103 842.5,250.5C 844.46,248.79 846.627,248.457 849,249.5C 849.499,253.152 849.665,256.818 849.5,260.5C 852.376,260.208 855.043,260.208 857.5,260.5 Z"/></g>
<g><path style="opacity:1" fill="#131617" d="M 536.5,289.5 C 537.494,280.348 537.827,271.015 537.5,261.5C 536.5,261.5 535.5,261.5 534.5,261.5C 536.223,260.2 538.39,259.533 541,259.5C 544.842,259.407 548.509,260.074 552,261.5C 555.539,258.39 559.372,257.89 563.5,260C 564.823,260.816 565.489,261.983 565.5,263.5C 566.586,271.414 563.253,274.414 555.5,272.5C 554.961,270.495 554.295,268.495 553.5,266.5C 551.728,267.27 550.728,268.603 550.5,270.5C 551.174,276.646 551.507,282.979 551.5,289.5C 552.791,289.263 553.791,289.596 554.5,290.5C 540.5,290.5 526.5,290.5 512.5,290.5C 512.833,289.5 513.5,288.833 514.5,288.5C 515.251,289.573 516.251,289.74 517.5,289C 516.868,286.585 515.868,284.418 514.5,282.5C 513.596,281.791 513.263,280.791 513.5,279.5C 513.67,278.178 513.337,277.011 512.5,276C 510.5,275.833 508.5,275.667 506.5,275.5C 504.048,275.539 502.048,276.206 500.5,277.5C 499.1,276.9 498.1,275.9 497.5,274.5C 501.172,265.164 504.839,255.83 508.5,246.5C 509.994,244.177 511.828,243.844 514,245.5C 515.326,245.755 516.326,246.422 517,247.5C 521.67,260.838 526.336,274.171 531,287.5C 532.444,289.155 534.278,289.822 536.5,289.5 Z M 508.5,264.5 C 508.721,267.067 509.388,269.401 510.5,271.5C 508.365,273.369 505.698,274.036 502.5,273.5C 502.833,272.167 503.167,270.833 503.5,269.5C 504.49,267.21 506.157,265.544 508.5,264.5 Z"/></g>
<g><path style="opacity:0.082" fill="#566262" d="M 510.5,271.5 C 511.267,272.172 511.934,273.005 512.5,274C 508.39,274.806 505.057,274.64 502.5,273.5C 505.698,274.036 508.365,273.369 510.5,271.5 Z"/></g>
<g><path style="opacity:0.027" fill="#51676e" d="M 534.5,261.5 C 535.5,261.5 536.5,261.5 537.5,261.5C 537.827,271.015 537.494,280.348 536.5,289.5C 536.666,281.16 536.5,272.827 536,264.5C 535.487,263.473 534.987,262.473 534.5,261.5 Z"/></g>
<g><path style="opacity:0.02" fill="#515a5e" d="M 508.5,264.5 C 506.157,265.544 504.49,267.21 503.5,269.5C 504.16,265.687 505.326,262.021 507,258.5C 507.505,260.518 508.005,262.518 508.5,264.5 Z"/></g>
<g><path style="opacity:0.051" fill="#5d6265" d="M 554.5,265.5 C 554.167,264.167 553.833,264.167 553.5,265.5C 552.227,264.923 552.227,264.257 553.5,263.5C 554.736,262.754 556.07,262.421 557.5,262.5C 557.5,263.5 557.5,264.5 557.5,265.5C 556.5,265.5 555.5,265.5 554.5,265.5 Z"/></g>
<g><path style="opacity:0.027" fill="#506667" d="M 687.5,262.5 C 689.017,266.56 689.684,270.893 689.5,275.5C 689.498,278.686 689.165,281.686 688.5,284.5C 688.635,277.138 688.302,269.804 687.5,262.5 Z"/></g>
<g><path style="opacity:0.884" fill="#2b3537" d="M 497.5,274.5 C 498.1,275.9 499.1,276.9 500.5,277.5C 500.741,279.898 500.074,281.898 498.5,283.5C 498.167,282.167 497.833,282.167 497.5,283.5C 496.761,283.369 496.094,283.536 495.5,284C 494.915,285.302 494.249,286.469 493.5,287.5C 494.511,283.124 495.845,278.791 497.5,274.5 Z"/></g>
<g><path style="opacity:0.02" fill="#596268" d="M 705.5,275.5 C 706.163,277.641 706.497,279.975 706.5,282.5C 706.471,285.269 705.805,287.603 704.5,289.5C 705.196,285.133 705.529,280.467 705.5,275.5 Z"/></g>
<g><path style="opacity:0.031" fill="#566465" d="M 687.5,262.5 C 686.178,262.33 685.011,262.663 684,263.5C 683.5,271.493 683.334,279.493 683.5,287.5C 682.343,279.344 682.177,271.01 683,262.5C 684.616,261.199 686.116,261.199 687.5,262.5 Z"/></g>
<g><path style="opacity:0.027" fill="#4f6166" d="M 762.5,248.5 C 763.166,255.158 763.5,261.992 763.5,269C 763.497,276.201 762.83,283.034 761.5,289.5C 762.501,288.211 762.334,286.878 761,285.5C 759.331,286.846 758.164,288.513 757.5,290.5C 756.833,290.5 756.167,290.5 755.5,290.5C 757.55,287.347 759.216,284.014 760.5,280.5C 761.222,280.918 761.722,281.584 762,282.5C 762.072,271.026 762.239,259.693 762.5,248.5 Z"/></g>
<g><path style="opacity:0.937" fill="#3c4a4a" d="M 293.5,261.5 C 294.5,261.5 295.5,261.5 296.5,261.5C 296.307,271.194 296.64,280.861 297.5,290.5C 296.5,290.5 295.5,290.5 294.5,290.5C 295.686,289.039 295.686,287.705 294.5,286.5C 296.158,277.947 295.825,269.613 293.5,261.5 Z"/></g>
<g><path style="opacity:0.02" fill="#65686a" d="M 514.5,282.5 C 515.868,284.418 516.868,286.585 517.5,289C 516.251,289.74 515.251,289.573 514.5,288.5C 514.758,286.81 514.758,284.81 514.5,282.5 Z"/></g>
<g><path style="opacity:0.02" fill="#5d6e6f" d="M 451.5,281.5 C 451.833,281.5 452.167,281.5 452.5,281.5C 452.802,284.059 452.468,286.393 451.5,288.5C 450.833,288.5 450.167,288.5 449.5,288.5C 450.455,286.254 451.122,283.921 451.5,281.5 Z"/></g>
<g><path style="opacity:0.02" fill="#5e6767" d="M 498.5,283.5 C 499.381,285.397 499.714,287.064 499.5,288.5C 498.399,289.598 497.066,289.765 495.5,289C 496.861,287.416 497.528,285.582 497.5,283.5C 497.833,282.167 498.167,282.167 498.5,283.5 Z"/></g>
<g><path style="opacity:0.035" fill="#656969" d="M 781.5,271.5 C 782.165,274.314 782.498,277.314 782.5,280.5C 782.483,283.913 781.816,286.913 780.5,289.5C 781.455,283.591 781.789,277.591 781.5,271.5 Z"/></g>
<g><path style="opacity:0.965" fill="#0e1518" d="M 497.5,283.5 C 497.528,285.582 496.861,287.416 495.5,289C 497.066,289.765 498.399,289.598 499.5,288.5C 500.5,288.833 501.167,289.5 501.5,290.5C 497.833,290.5 494.167,290.5 490.5,290.5C 491.167,289.167 492.167,288.167 493.5,287.5C 494.249,286.469 494.915,285.302 495.5,284C 496.094,283.536 496.761,283.369 497.5,283.5 Z"/></g>
</svg>
